<?xml version="1.0" encoding="UTF-8" standalone="no"?>
<svg width="161.925mm" height="209.55mm"
 viewBox="0 0 612 792"
 xmlns="http://www.w3.org/2000/svg" xmlns:xlink="http://www.w3.org/1999/xlink" version="1.2" baseProfile="tiny">
<title>Cluck Old Hen</title>
<desc>Dorico5</desc>
<defs>
</defs>
<g fill="none" stroke="black" stroke-width="1" fill-rule="evenodd" stroke-linecap="square" stroke-linejoin="bevel" >

<g fill="none" stroke="#000000" stroke-opacity="1" stroke-width="0.62" stroke-linecap="butt" stroke-linejoin="miter" stroke-miterlimit="2" transform="matrix(1,0,0,1,0,0)"
font-family="Segoe UI" font-size="12" font-weight="400" font-style="normal" 
>
<polyline fill="none" vector-effect="none" points="42,142 570,142 " />
<polyline fill="none" vector-effect="none" points="42,171.76 570,171.76 " />
<polyline fill="none" vector-effect="none" points="42,149.44 570,149.44 " />
<polyline fill="none" vector-effect="none" points="42,156.88 570,156.88 " />
<polyline fill="none" vector-effect="none" points="42,164.32 570,164.32 " />
</g>

<g fill="none" stroke="#000000" stroke-opacity="1" stroke-width="0.992" stroke-linecap="butt" stroke-linejoin="miter" stroke-miterlimit="2" transform="matrix(1,0,0,1,0,0)"
font-family="Segoe UI" font-size="12" font-weight="400" font-style="normal" 
>
<polyline fill="none" vector-effect="none" points="198.78,141.69 198.78,172.07 " />
<polyline fill="none" vector-effect="none" points="314.702,141.69 314.702,172.07 " />
<polyline fill="none" vector-effect="none" points="430.624,141.69 430.624,172.07 " />
<polyline fill="none" vector-effect="none" points="564.544,141.69 564.544,172.07 " />
</g>

<g fill="none" stroke="#000000" stroke-opacity="1" stroke-width="2.48" stroke-linecap="butt" stroke-linejoin="miter" stroke-miterlimit="2" transform="matrix(1,0,0,1,0,0)"
font-family="Segoe UI" font-size="12" font-weight="400" font-style="normal" 
>
<polyline fill="none" vector-effect="none" points="568.76,141.69 568.76,172.07 " />
<polyline fill="none" vector-effect="none" points="69.9725,141.69 69.9725,172.07 " />
</g>

<g fill="none" stroke="#000000" stroke-opacity="1" stroke-width="0.992" stroke-linecap="butt" stroke-linejoin="miter" stroke-miterlimit="2" transform="matrix(1,0,0,1,0,0)"
font-family="Segoe UI" font-size="12" font-weight="400" font-style="normal" 
>
<polyline fill="none" vector-effect="none" points="74.1885,141.69 74.1885,172.07 " />
</g>

<g fill="none" stroke="#000000" stroke-opacity="1" stroke-width="1" stroke-linecap="square" stroke-linejoin="bevel" transform="matrix(0.5,0,0,0.5,44.5347,156.88)"
font-family="Bravura" font-size="40" font-weight="400" font-style="normal" 
>
</g>

<g fill="#000000" fill-opacity="1" stroke="none" transform="matrix(0.5,0,0,0.5,44.5347,156.88)"
font-family="Bravura" font-size="40" font-weight="400" font-style="normal" 
>
<path vector-effect="none" fill-rule="nonzero" d="M5.04,1.44 L8.12,-7.12 L11.04,1.44 L5.04,1.44 M11.88,16.2 C11.88,18.12 10.8,19.2 8.12,19.2 L3.48,19.2 L3.48,13.2 L8.12,13.2 C10.8,13.2 11.88,14.28 11.88,16.2 M12.72,24.56 C12.72,26.36 11.6,27.8 9.36,27.8 L3.48,27.8 L3.48,21.32 L9.36,21.32 C11.6,21.32 12.72,22.72 12.72,24.56 M9.72,-9.68 L6.6,-9.68 L-0.12,9.12 L2.44,9.12 L4.44,3.48 L11.68,3.48 L13.64,9.12 L16.32,9.12 L9.72,-9.68 M15.48,-30.56 L0.72,-30.56 L0.72,-28.44 L6.92,-28.44 L6.92,-11.72 L9.32,-11.72 L9.32,-28.44 L15.48,-28.44 L15.48,-30.56 M15.12,24.52 C15.12,22.28 14.08,20.88 11.68,19.96 C13.4,19.16 14.28,17.76 14.28,15.88 C14.28,13.12 12.28,11.08 8.72,11.08 L1.08,11.08 L1.08,29.92 L9.56,29.92 C12.96,29.92 15.12,27.64 15.12,24.52 "/>
</g>

<g fill="none" stroke="#000000" stroke-opacity="1" stroke-width="1" stroke-linecap="square" stroke-linejoin="bevel" transform="matrix(0.5,0,0,0.5,44.5347,156.88)"
font-family="Bravura" font-size="40" font-weight="400" font-style="normal" 
>
<text fill="#000000" fill-opacity="1" stroke="none" xml:space="preserve" x="0" y="0" font-family="Segoe UI" font-size="12" font-weight="400" font-style="normal" 
 ></text>
</g>

<g fill="none" stroke="#000000" stroke-opacity="1" stroke-width="1" stroke-linecap="square" stroke-linejoin="bevel" transform="matrix(0.5,0,0,0.5,559.568,153.16)"
font-family="Bravura" font-size="40" font-weight="400" font-style="normal" 
>
</g>

<g fill="#000000" fill-opacity="1" stroke="none" transform="matrix(0.5,0,0,0.5,559.568,153.16)"
font-family="Bravura" font-size="40" font-weight="400" font-style="normal" 
>
<path vector-effect="none" fill-rule="nonzero" d="M2,-2 C0.88,-2 0,-1.12 0,0 C0,1.12 0.88,2 2,2 C3.08,2 4,1.12 4,0 C4,-1.12 3.08,-2 2,-2 "/>
</g>

<g fill="none" stroke="#000000" stroke-opacity="1" stroke-width="1" stroke-linecap="square" stroke-linejoin="bevel" transform="matrix(0.5,0,0,0.5,559.568,153.16)"
font-family="Bravura" font-size="40" font-weight="400" font-style="normal" 
>
<text fill="#000000" fill-opacity="1" stroke="none" xml:space="preserve" x="0" y="0" font-family="Segoe UI" font-size="12" font-weight="400" font-style="normal" 
 ></text>
</g>

<g fill="none" stroke="#000000" stroke-opacity="1" stroke-width="1" stroke-linecap="square" stroke-linejoin="bevel" transform="matrix(0.5,0,0,0.5,559.568,160.6)"
font-family="Bravura" font-size="40" font-weight="400" font-style="normal" 
>
</g>

<g fill="#000000" fill-opacity="1" stroke="none" transform="matrix(0.5,0,0,0.5,559.568,160.6)"
font-family="Bravura" font-size="40" font-weight="400" font-style="normal" 
>
<path vector-effect="none" fill-rule="nonzero" d="M2,-2 C0.88,-2 0,-1.12 0,0 C0,1.12 0.88,2 2,2 C3.08,2 4,1.12 4,0 C4,-1.12 3.08,-2 2,-2 "/>
</g>

<g fill="none" stroke="#000000" stroke-opacity="1" stroke-width="1" stroke-linecap="square" stroke-linejoin="bevel" transform="matrix(0.5,0,0,0.5,559.568,160.6)"
font-family="Bravura" font-size="40" font-weight="400" font-style="normal" 
>
<text fill="#000000" fill-opacity="1" stroke="none" xml:space="preserve" x="0" y="0" font-family="Segoe UI" font-size="12" font-weight="400" font-style="normal" 
 ></text>
</g>

<g fill="none" stroke="#000000" stroke-opacity="1" stroke-width="1" stroke-linecap="square" stroke-linejoin="bevel" transform="matrix(0.5,0,0,0.5,77.1645,153.16)"
font-family="Bravura" font-size="40" font-weight="400" font-style="normal" 
>
</g>

<g fill="#000000" fill-opacity="1" stroke="none" transform="matrix(0.5,0,0,0.5,77.1645,153.16)"
font-family="Bravura" font-size="40" font-weight="400" font-style="normal" 
>
<path vector-effect="none" fill-rule="nonzero" d="M2,-2 C0.88,-2 0,-1.12 0,0 C0,1.12 0.88,2 2,2 C3.08,2 4,1.12 4,0 C4,-1.12 3.08,-2 2,-2 "/>
</g>

<g fill="none" stroke="#000000" stroke-opacity="1" stroke-width="1" stroke-linecap="square" stroke-linejoin="bevel" transform="matrix(0.5,0,0,0.5,77.1645,153.16)"
font-family="Bravura" font-size="40" font-weight="400" font-style="normal" 
>
<text fill="#000000" fill-opacity="1" stroke="none" xml:space="preserve" x="0" y="0" font-family="Segoe UI" font-size="12" font-weight="400" font-style="normal" 
 ></text>
</g>

<g fill="none" stroke="#000000" stroke-opacity="1" stroke-width="1" stroke-linecap="square" stroke-linejoin="bevel" transform="matrix(0.5,0,0,0.5,77.1645,160.6)"
font-family="Bravura" font-size="40" font-weight="400" font-style="normal" 
>
</g>

<g fill="#000000" fill-opacity="1" stroke="none" transform="matrix(0.5,0,0,0.5,77.1645,160.6)"
font-family="Bravura" font-size="40" font-weight="400" font-style="normal" 
>
<path vector-effect="none" fill-rule="nonzero" d="M2,-2 C0.88,-2 0,-1.12 0,0 C0,1.12 0.88,2 2,2 C3.08,2 4,1.12 4,0 C4,-1.12 3.08,-2 2,-2 "/>
</g>

<g fill="none" stroke="#000000" stroke-opacity="1" stroke-width="1" stroke-linecap="square" stroke-linejoin="bevel" transform="matrix(0.5,0,0,0.5,77.1645,160.6)"
font-family="Bravura" font-size="40" font-weight="400" font-style="normal" 
>
<text fill="#000000" fill-opacity="1" stroke="none" xml:space="preserve" x="0" y="0" font-family="Segoe UI" font-size="12" font-weight="400" font-style="normal" 
 ></text>
</g>

<g fill="none" stroke="#000000" stroke-opacity="1" stroke-width="1" stroke-linecap="square" stroke-linejoin="bevel" transform="matrix(0.5,0,0,0.5,57.2603,151.88)"
font-family="Bravura" font-size="40" font-weight="400" font-style="normal" 
>
<text fill="#000000" fill-opacity="1" stroke="none" xml:space="preserve" x="0" y="0" font-family="Bravura" font-size="40" font-weight="400" font-style="normal" 
 ></text>
</g>

<g fill="none" stroke="#000000" stroke-opacity="1" stroke-width="1" stroke-linecap="square" stroke-linejoin="bevel" transform="matrix(0.5,0,0,0.5,57.2603,161.896)"
font-family="Bravura" font-size="40" font-weight="400" font-style="normal" 
>
<text fill="#000000" fill-opacity="1" stroke="none" xml:space="preserve" x="0" y="0" font-family="Bravura" font-size="40" font-weight="400" font-style="normal" 
 ></text>
</g>

<g fill="#ffffff" fill-opacity="1" stroke="none" transform="matrix(1,0,0,1,0,0)"
font-family="Bravura" font-size="40" font-weight="400" font-style="normal" 
>
<rect x="90.4045" y="139.047" width="5.03437" height="5.90625"/>
</g>

<g fill="none" stroke="none" transform="matrix(1,0,0,1,0,0)"
font-family="Bravura" font-size="40" font-weight="400" font-style="normal" 
>
<path vector-effect="none" fill-rule="evenodd" d="M90.4045,139.047 L95.4389,139.047 L95.4389,144.953 L90.4045,144.953 L90.4045,139.047"/>
</g>

<g fill="#ffffff" fill-opacity="1" stroke="none" transform="matrix(1,0,0,1,0,0)"
font-family="Bravura" font-size="40" font-weight="400" font-style="normal" 
>
<rect x="121.885" y="168.807" width="5.03438" height="5.90625"/>
</g>

<g fill="none" stroke="none" transform="matrix(1,0,0,1,0,0)"
font-family="Bravura" font-size="40" font-weight="400" font-style="normal" 
>
<path vector-effect="none" fill-rule="evenodd" d="M121.885,168.807 L126.919,168.807 L126.919,174.713 L121.885,174.713 L121.885,168.807"/>
</g>

<g fill="#ffffff" fill-opacity="1" stroke="none" transform="matrix(1,0,0,1,0,0)"
font-family="Bravura" font-size="40" font-weight="400" font-style="normal" 
>
<rect x="153.365" y="139.047" width="4.8" height="5.90625"/>
</g>

<g fill="none" stroke="none" transform="matrix(1,0,0,1,0,0)"
font-family="Bravura" font-size="40" font-weight="400" font-style="normal" 
>
<path vector-effect="none" fill-rule="evenodd" d="M153.365,139.047 L158.165,139.047 L158.165,144.953 L153.365,144.953 L153.365,139.047"/>
</g>

<g fill="#ffffff" fill-opacity="1" stroke="none" transform="matrix(1,0,0,1,0,0)"
font-family="Bravura" font-size="40" font-weight="400" font-style="normal" 
>
<rect x="206.326" y="139.047" width="5.03438" height="5.90625"/>
</g>

<g fill="none" stroke="none" transform="matrix(1,0,0,1,0,0)"
font-family="Bravura" font-size="40" font-weight="400" font-style="normal" 
>
<path vector-effect="none" fill-rule="evenodd" d="M206.326,139.047 L211.361,139.047 L211.361,144.953 L206.326,144.953 L206.326,139.047"/>
</g>

<g fill="#ffffff" fill-opacity="1" stroke="none" transform="matrix(1,0,0,1,0,0)"
font-family="Bravura" font-size="40" font-weight="400" font-style="normal" 
>
<rect x="237.807" y="168.807" width="5.03438" height="5.90625"/>
</g>

<g fill="none" stroke="none" transform="matrix(1,0,0,1,0,0)"
font-family="Bravura" font-size="40" font-weight="400" font-style="normal" 
>
<path vector-effect="none" fill-rule="evenodd" d="M237.807,168.807 L242.841,168.807 L242.841,174.713 L237.807,174.713 L237.807,168.807"/>
</g>

<g fill="#ffffff" fill-opacity="1" stroke="none" transform="matrix(1,0,0,1,0,0)"
font-family="Bravura" font-size="40" font-weight="400" font-style="normal" 
>
<rect x="269.287" y="146.487" width="5.03437" height="5.90625"/>
</g>

<g fill="none" stroke="none" transform="matrix(1,0,0,1,0,0)"
font-family="Bravura" font-size="40" font-weight="400" font-style="normal" 
>
<path vector-effect="none" fill-rule="evenodd" d="M269.287,146.487 L274.322,146.487 L274.322,152.393 L269.287,152.393 L269.287,146.487"/>
</g>

<g fill="#ffffff" fill-opacity="1" stroke="none" transform="matrix(1,0,0,1,0,0)"
font-family="Bravura" font-size="40" font-weight="400" font-style="normal" 
>
<rect x="322.248" y="139.047" width="5.03437" height="5.90625"/>
</g>

<g fill="none" stroke="none" transform="matrix(1,0,0,1,0,0)"
font-family="Bravura" font-size="40" font-weight="400" font-style="normal" 
>
<path vector-effect="none" fill-rule="evenodd" d="M322.248,139.047 L327.282,139.047 L327.282,144.953 L322.248,144.953 L322.248,139.047"/>
</g>

<g fill="#ffffff" fill-opacity="1" stroke="none" transform="matrix(1,0,0,1,0,0)"
font-family="Bravura" font-size="40" font-weight="400" font-style="normal" 
>
<rect x="353.729" y="168.807" width="5.03437" height="5.90625"/>
</g>

<g fill="none" stroke="none" transform="matrix(1,0,0,1,0,0)"
font-family="Bravura" font-size="40" font-weight="400" font-style="normal" 
>
<path vector-effect="none" fill-rule="evenodd" d="M353.729,168.807 L358.763,168.807 L358.763,174.713 L353.729,174.713 L353.729,168.807"/>
</g>

<g fill="#ffffff" fill-opacity="1" stroke="none" transform="matrix(1,0,0,1,0,0)"
font-family="Bravura" font-size="40" font-weight="400" font-style="normal" 
>
<rect x="385.209" y="139.047" width="4.8" height="5.90625"/>
</g>

<g fill="none" stroke="none" transform="matrix(1,0,0,1,0,0)"
font-family="Bravura" font-size="40" font-weight="400" font-style="normal" 
>
<path vector-effect="none" fill-rule="evenodd" d="M385.209,139.047 L390.009,139.047 L390.009,144.953 L385.209,144.953 L385.209,139.047"/>
</g>

<g fill="#ffffff" fill-opacity="1" stroke="none" transform="matrix(1,0,0,1,0,0)"
font-family="Bravura" font-size="40" font-weight="400" font-style="normal" 
>
<rect x="438.17" y="146.518" width="4.76094" height="5.84375"/>
</g>

<g fill="none" stroke="none" transform="matrix(1,0,0,1,0,0)"
font-family="Bravura" font-size="40" font-weight="400" font-style="normal" 
>
<path vector-effect="none" fill-rule="evenodd" d="M438.17,146.518 L442.931,146.518 L442.931,152.362 L438.17,152.362 L438.17,146.518"/>
</g>

<g fill="#ffffff" fill-opacity="1" stroke="none" transform="matrix(1,0,0,1,0,0)"
font-family="Bravura" font-size="40" font-weight="400" font-style="normal" 
>
<rect x="460.429" y="146.487" width="5.03437" height="5.90625"/>
</g>

<g fill="none" stroke="none" transform="matrix(1,0,0,1,0,0)"
font-family="Bravura" font-size="40" font-weight="400" font-style="normal" 
>
<path vector-effect="none" fill-rule="evenodd" d="M460.429,146.487 L465.464,146.487 L465.464,152.393 L460.429,152.393 L460.429,146.487"/>
</g>

<g fill="#ffffff" fill-opacity="1" stroke="none" transform="matrix(1,0,0,1,0,0)"
font-family="Bravura" font-size="40" font-weight="400" font-style="normal" 
>
<rect x="482.689" y="153.927" width="4.8" height="5.90625"/>
</g>

<g fill="none" stroke="none" transform="matrix(1,0,0,1,0,0)"
font-family="Bravura" font-size="40" font-weight="400" font-style="normal" 
>
<path vector-effect="none" fill-rule="evenodd" d="M482.689,153.927 L487.489,153.927 L487.489,159.833 L482.689,159.833 L482.689,153.927"/>
</g>

<g fill="#ffffff" fill-opacity="1" stroke="none" transform="matrix(1,0,0,1,0,0)"
font-family="Bravura" font-size="40" font-weight="400" font-style="normal" 
>
<rect x="514.169" y="153.927" width="5.03437" height="5.90625"/>
</g>

<g fill="none" stroke="none" transform="matrix(1,0,0,1,0,0)"
font-family="Bravura" font-size="40" font-weight="400" font-style="normal" 
>
<path vector-effect="none" fill-rule="evenodd" d="M514.169,153.927 L519.204,153.927 L519.204,159.833 L514.169,159.833 L514.169,153.927"/>
</g>

<g fill="#ffffff" fill-opacity="1" stroke="#000000" stroke-opacity="1" stroke-width="1" stroke-linecap="square" stroke-linejoin="bevel" transform="matrix(0.5,0,0,0.5,90.6092,144.891)"
font-family="Lato" font-size="16" font-weight="700" font-style="normal" 
>
<text fill="#000000" fill-opacity="1" stroke="none" xml:space="preserve" x="0" y="0" font-family="Lato" font-size="16" font-weight="700" font-style="normal" 
 >0</text>
</g>

<g fill="#ffffff" fill-opacity="1" stroke="#000000" stroke-opacity="1" stroke-width="1" stroke-linecap="square" stroke-linejoin="bevel" transform="matrix(0.5,0,0,0.5,122.09,174.651)"
font-family="Lato" font-size="16" font-weight="700" font-style="normal" 
>
<text fill="#000000" fill-opacity="1" stroke="none" xml:space="preserve" x="0" y="0" font-family="Lato" font-size="16" font-weight="700" font-style="normal" 
 >0</text>
</g>

<g fill="#ffffff" fill-opacity="1" stroke="#000000" stroke-opacity="1" stroke-width="1" stroke-linecap="square" stroke-linejoin="bevel" transform="matrix(0.5,0,0,0.5,153.508,144.891)"
font-family="Lato" font-size="16" font-weight="700" font-style="normal" 
>
<text fill="#000000" fill-opacity="1" stroke="none" xml:space="preserve" x="0" y="0" font-family="Lato" font-size="16" font-weight="700" font-style="normal" 
 >3</text>
</g>

<g fill="#ffffff" fill-opacity="1" stroke="#000000" stroke-opacity="1" stroke-width="1" stroke-linecap="square" stroke-linejoin="bevel" transform="matrix(0.5,0,0,0.5,206.531,144.891)"
font-family="Lato" font-size="16" font-weight="700" font-style="normal" 
>
<text fill="#000000" fill-opacity="1" stroke="none" xml:space="preserve" x="0" y="0" font-family="Lato" font-size="16" font-weight="700" font-style="normal" 
 >0</text>
</g>

<g fill="#ffffff" fill-opacity="1" stroke="#000000" stroke-opacity="1" stroke-width="1" stroke-linecap="square" stroke-linejoin="bevel" transform="matrix(0.5,0,0,0.5,238.011,174.651)"
font-family="Lato" font-size="16" font-weight="700" font-style="normal" 
>
<text fill="#000000" fill-opacity="1" stroke="none" xml:space="preserve" x="0" y="0" font-family="Lato" font-size="16" font-weight="700" font-style="normal" 
 >0</text>
</g>

<g fill="#ffffff" fill-opacity="1" stroke="#000000" stroke-opacity="1" stroke-width="1" stroke-linecap="square" stroke-linejoin="bevel" transform="matrix(0.5,0,0,0.5,269.492,152.331)"
font-family="Lato" font-size="16" font-weight="700" font-style="normal" 
>
<text fill="#000000" fill-opacity="1" stroke="none" xml:space="preserve" x="0" y="0" font-family="Lato" font-size="16" font-weight="700" font-style="normal" 
 >0</text>
</g>

<g fill="#ffffff" fill-opacity="1" stroke="#000000" stroke-opacity="1" stroke-width="1" stroke-linecap="square" stroke-linejoin="bevel" transform="matrix(0.5,0,0,0.5,322.453,144.891)"
font-family="Lato" font-size="16" font-weight="700" font-style="normal" 
>
<text fill="#000000" fill-opacity="1" stroke="none" xml:space="preserve" x="0" y="0" font-family="Lato" font-size="16" font-weight="700" font-style="normal" 
 >0</text>
</g>

<g fill="#ffffff" fill-opacity="1" stroke="#000000" stroke-opacity="1" stroke-width="1" stroke-linecap="square" stroke-linejoin="bevel" transform="matrix(0.5,0,0,0.5,353.933,174.651)"
font-family="Lato" font-size="16" font-weight="700" font-style="normal" 
>
<text fill="#000000" fill-opacity="1" stroke="none" xml:space="preserve" x="0" y="0" font-family="Lato" font-size="16" font-weight="700" font-style="normal" 
 >0</text>
</g>

<g fill="#ffffff" fill-opacity="1" stroke="#000000" stroke-opacity="1" stroke-width="1" stroke-linecap="square" stroke-linejoin="bevel" transform="matrix(0.5,0,0,0.5,385.351,144.891)"
font-family="Lato" font-size="16" font-weight="700" font-style="normal" 
>
<text fill="#000000" fill-opacity="1" stroke="none" xml:space="preserve" x="0" y="0" font-family="Lato" font-size="16" font-weight="700" font-style="normal" 
 >3</text>
</g>

<g fill="#ffffff" fill-opacity="1" stroke="#000000" stroke-opacity="1" stroke-width="1" stroke-linecap="square" stroke-linejoin="bevel" transform="matrix(0.5,0,0,0.5,438.273,152.362)"
font-family="Lato" font-size="16" font-weight="700" font-style="normal" 
>
<text fill="#000000" fill-opacity="1" stroke="none" xml:space="preserve" x="0" y="0" font-family="Lato" font-size="16" font-weight="700" font-style="normal" 
 >2</text>
</g>

<g fill="#ffffff" fill-opacity="1" stroke="#000000" stroke-opacity="1" stroke-width="1" stroke-linecap="square" stroke-linejoin="bevel" transform="matrix(0.5,0,0,0.5,460.634,152.331)"
font-family="Lato" font-size="16" font-weight="700" font-style="normal" 
>
<text fill="#000000" fill-opacity="1" stroke="none" xml:space="preserve" x="0" y="0" font-family="Lato" font-size="16" font-weight="700" font-style="normal" 
 >0</text>
</g>

<g fill="#ffffff" fill-opacity="1" stroke="#000000" stroke-opacity="1" stroke-width="1" stroke-linecap="square" stroke-linejoin="bevel" transform="matrix(0.5,0,0,0.5,482.831,159.771)"
font-family="Lato" font-size="16" font-weight="700" font-style="normal" 
>
<text fill="#000000" fill-opacity="1" stroke="none" xml:space="preserve" x="0" y="0" font-family="Lato" font-size="16" font-weight="700" font-style="normal" 
 >3</text>
</g>

<g fill="#ffffff" fill-opacity="1" stroke="#000000" stroke-opacity="1" stroke-width="1" stroke-linecap="square" stroke-linejoin="bevel" transform="matrix(0.5,0,0,0.5,514.374,159.771)"
font-family="Lato" font-size="16" font-weight="700" font-style="normal" 
>
<text fill="#000000" fill-opacity="1" stroke="none" xml:space="preserve" x="0" y="0" font-family="Lato" font-size="16" font-weight="700" font-style="normal" 
 >0</text>
</g>

<g fill="#ffffff" fill-opacity="1" stroke="#000000" stroke-opacity="1" stroke-width="0.62" stroke-linecap="butt" stroke-linejoin="miter" stroke-miterlimit="2" transform="matrix(1,0,0,1,0,0)"
font-family="Lato" font-size="16" font-weight="700" font-style="normal" 
>
<polyline fill="none" vector-effect="none" points="42,221.36 570,221.36 " />
<polyline fill="none" vector-effect="none" points="42,251.12 570,251.12 " />
<polyline fill="none" vector-effect="none" points="42,228.8 570,228.8 " />
<polyline fill="none" vector-effect="none" points="42,236.24 570,236.24 " />
<polyline fill="none" vector-effect="none" points="42,243.68 570,243.68 " />
</g>

<g fill="#ffffff" fill-opacity="1" stroke="#000000" stroke-opacity="1" stroke-width="0.992" stroke-linecap="butt" stroke-linejoin="miter" stroke-miterlimit="2" transform="matrix(1,0,0,1,0,0)"
font-family="Lato" font-size="16" font-weight="700" font-style="normal" 
>
<polyline fill="none" vector-effect="none" points="190.393,221.05 190.393,251.43 " />
<polyline fill="none" vector-effect="none" points="309.002,221.05 309.002,251.43 " />
<polyline fill="none" vector-effect="none" points="427.611,221.05 427.611,251.43 " />
<polyline fill="none" vector-effect="none" points="564.544,221.05 564.544,251.43 " />
</g>

<g fill="#ffffff" fill-opacity="1" stroke="#000000" stroke-opacity="1" stroke-width="2.48" stroke-linecap="butt" stroke-linejoin="miter" stroke-miterlimit="2" transform="matrix(1,0,0,1,0,0)"
font-family="Lato" font-size="16" font-weight="700" font-style="normal" 
>
<polyline fill="none" vector-effect="none" points="568.76,221.05 568.76,251.43 " />
<polyline fill="none" vector-effect="none" points="58.8987,221.05 58.8987,251.43 " />
</g>

<g fill="#ffffff" fill-opacity="1" stroke="#000000" stroke-opacity="1" stroke-width="0.992" stroke-linecap="butt" stroke-linejoin="miter" stroke-miterlimit="2" transform="matrix(1,0,0,1,0,0)"
font-family="Lato" font-size="16" font-weight="700" font-style="normal" 
>
<polyline fill="none" vector-effect="none" points="63.1148,221.05 63.1148,251.43 " />
</g>

<g fill="#ffffff" fill-opacity="1" stroke="#000000" stroke-opacity="1" stroke-width="1" stroke-linecap="square" stroke-linejoin="bevel" transform="matrix(0.5,0,0,0.5,44.5347,236.24)"
font-family="Bravura" font-size="40" font-weight="400" font-style="normal" 
>
</g>

<g fill="#000000" fill-opacity="1" stroke="none" transform="matrix(0.5,0,0,0.5,44.5347,236.24)"
font-family="Bravura" font-size="40" font-weight="400" font-style="normal" 
>
<path vector-effect="none" fill-rule="nonzero" d="M5.04,1.44 L8.12,-7.12 L11.04,1.44 L5.04,1.44 M11.88,16.2 C11.88,18.12 10.8,19.2 8.12,19.2 L3.48,19.2 L3.48,13.2 L8.12,13.2 C10.8,13.2 11.88,14.28 11.88,16.2 M12.72,24.56 C12.72,26.36 11.6,27.8 9.36,27.8 L3.48,27.8 L3.48,21.32 L9.36,21.32 C11.6,21.32 12.72,22.72 12.72,24.56 M9.72,-9.68 L6.6,-9.68 L-0.12,9.12 L2.44,9.12 L4.44,3.48 L11.68,3.48 L13.64,9.12 L16.32,9.12 L9.72,-9.68 M15.48,-30.56 L0.72,-30.56 L0.72,-28.44 L6.92,-28.44 L6.92,-11.72 L9.32,-11.72 L9.32,-28.44 L15.48,-28.44 L15.48,-30.56 M15.12,24.52 C15.12,22.28 14.08,20.88 11.68,19.96 C13.4,19.16 14.28,17.76 14.28,15.88 C14.28,13.12 12.28,11.08 8.72,11.08 L1.08,11.08 L1.08,29.92 L9.56,29.92 C12.96,29.92 15.12,27.64 15.12,24.52 "/>
</g>

<g fill="#ffffff" fill-opacity="1" stroke="#000000" stroke-opacity="1" stroke-width="1" stroke-linecap="square" stroke-linejoin="bevel" transform="matrix(0.5,0,0,0.5,44.5347,236.24)"
font-family="Bravura" font-size="40" font-weight="400" font-style="normal" 
>
<text fill="#000000" fill-opacity="1" stroke="none" xml:space="preserve" x="0" y="0" font-family="Segoe UI" font-size="12" font-weight="400" font-style="normal" 
 ></text>
</g>

<g fill="#ffffff" fill-opacity="1" stroke="#000000" stroke-opacity="1" stroke-width="1" stroke-linecap="square" stroke-linejoin="bevel" transform="matrix(0.5,0,0,0.5,559.568,232.52)"
font-family="Bravura" font-size="40" font-weight="400" font-style="normal" 
>
</g>

<g fill="#000000" fill-opacity="1" stroke="none" transform="matrix(0.5,0,0,0.5,559.568,232.52)"
font-family="Bravura" font-size="40" font-weight="400" font-style="normal" 
>
<path vector-effect="none" fill-rule="nonzero" d="M2,-2 C0.88,-2 0,-1.12 0,0 C0,1.12 0.88,2 2,2 C3.08,2 4,1.12 4,0 C4,-1.12 3.08,-2 2,-2 "/>
</g>

<g fill="#ffffff" fill-opacity="1" stroke="#000000" stroke-opacity="1" stroke-width="1" stroke-linecap="square" stroke-linejoin="bevel" transform="matrix(0.5,0,0,0.5,559.568,232.52)"
font-family="Bravura" font-size="40" font-weight="400" font-style="normal" 
>
<text fill="#000000" fill-opacity="1" stroke="none" xml:space="preserve" x="0" y="0" font-family="Segoe UI" font-size="12" font-weight="400" font-style="normal" 
 ></text>
</g>

<g fill="#ffffff" fill-opacity="1" stroke="#000000" stroke-opacity="1" stroke-width="1" stroke-linecap="square" stroke-linejoin="bevel" transform="matrix(0.5,0,0,0.5,559.568,239.96)"
font-family="Bravura" font-size="40" font-weight="400" font-style="normal" 
>
</g>

<g fill="#000000" fill-opacity="1" stroke="none" transform="matrix(0.5,0,0,0.5,559.568,239.96)"
font-family="Bravura" font-size="40" font-weight="400" font-style="normal" 
>
<path vector-effect="none" fill-rule="nonzero" d="M2,-2 C0.88,-2 0,-1.12 0,0 C0,1.12 0.88,2 2,2 C3.08,2 4,1.12 4,0 C4,-1.12 3.08,-2 2,-2 "/>
</g>

<g fill="#ffffff" fill-opacity="1" stroke="#000000" stroke-opacity="1" stroke-width="1" stroke-linecap="square" stroke-linejoin="bevel" transform="matrix(0.5,0,0,0.5,559.568,239.96)"
font-family="Bravura" font-size="40" font-weight="400" font-style="normal" 
>
<text fill="#000000" fill-opacity="1" stroke="none" xml:space="preserve" x="0" y="0" font-family="Segoe UI" font-size="12" font-weight="400" font-style="normal" 
 ></text>
</g>

<g fill="#ffffff" fill-opacity="1" stroke="#000000" stroke-opacity="1" stroke-width="1" stroke-linecap="square" stroke-linejoin="bevel" transform="matrix(0.5,0,0,0.5,66.0907,232.52)"
font-family="Bravura" font-size="40" font-weight="400" font-style="normal" 
>
</g>

<g fill="#000000" fill-opacity="1" stroke="none" transform="matrix(0.5,0,0,0.5,66.0907,232.52)"
font-family="Bravura" font-size="40" font-weight="400" font-style="normal" 
>
<path vector-effect="none" fill-rule="nonzero" d="M2,-2 C0.88,-2 0,-1.12 0,0 C0,1.12 0.88,2 2,2 C3.08,2 4,1.12 4,0 C4,-1.12 3.08,-2 2,-2 "/>
</g>

<g fill="#ffffff" fill-opacity="1" stroke="#000000" stroke-opacity="1" stroke-width="1" stroke-linecap="square" stroke-linejoin="bevel" transform="matrix(0.5,0,0,0.5,66.0907,232.52)"
font-family="Bravura" font-size="40" font-weight="400" font-style="normal" 
>
<text fill="#000000" fill-opacity="1" stroke="none" xml:space="preserve" x="0" y="0" font-family="Segoe UI" font-size="12" font-weight="400" font-style="normal" 
 ></text>
</g>

<g fill="#ffffff" fill-opacity="1" stroke="#000000" stroke-opacity="1" stroke-width="1" stroke-linecap="square" stroke-linejoin="bevel" transform="matrix(0.5,0,0,0.5,66.0907,239.96)"
font-family="Bravura" font-size="40" font-weight="400" font-style="normal" 
>
</g>

<g fill="#000000" fill-opacity="1" stroke="none" transform="matrix(0.5,0,0,0.5,66.0907,239.96)"
font-family="Bravura" font-size="40" font-weight="400" font-style="normal" 
>
<path vector-effect="none" fill-rule="nonzero" d="M2,-2 C0.88,-2 0,-1.12 0,0 C0,1.12 0.88,2 2,2 C3.08,2 4,1.12 4,0 C4,-1.12 3.08,-2 2,-2 "/>
</g>

<g fill="#ffffff" fill-opacity="1" stroke="#000000" stroke-opacity="1" stroke-width="1" stroke-linecap="square" stroke-linejoin="bevel" transform="matrix(0.5,0,0,0.5,66.0907,239.96)"
font-family="Bravura" font-size="40" font-weight="400" font-style="normal" 
>
<text fill="#000000" fill-opacity="1" stroke="none" xml:space="preserve" x="0" y="0" font-family="Segoe UI" font-size="12" font-weight="400" font-style="normal" 
 ></text>
</g>

<g fill="#ffffff" fill-opacity="1" stroke="none" transform="matrix(1,0,0,1,0,0)"
font-family="Bravura" font-size="40" font-weight="400" font-style="normal" 
>
<rect x="79.3307" y="233.287" width="5.03438" height="5.90625"/>
</g>

<g fill="none" stroke="none" transform="matrix(1,0,0,1,0,0)"
font-family="Bravura" font-size="40" font-weight="400" font-style="normal" 
>
<path vector-effect="none" fill-rule="evenodd" d="M79.3307,233.287 L84.3651,233.287 L84.3651,239.193 L79.3307,239.193 L79.3307,233.287"/>
</g>

<g fill="#ffffff" fill-opacity="1" stroke="none" transform="matrix(1,0,0,1,0,0)"
font-family="Bravura" font-size="40" font-weight="400" font-style="normal" 
>
<rect x="111.598" y="233.287" width="5.03438" height="5.90625"/>
</g>

<g fill="none" stroke="none" transform="matrix(1,0,0,1,0,0)"
font-family="Bravura" font-size="40" font-weight="400" font-style="normal" 
>
<path vector-effect="none" fill-rule="evenodd" d="M111.598,233.287 L116.633,233.287 L116.633,239.193 L111.598,239.193 L111.598,233.287"/>
</g>

<g fill="#ffffff" fill-opacity="1" stroke="none" transform="matrix(1,0,0,1,0,0)"
font-family="Bravura" font-size="40" font-weight="400" font-style="normal" 
>
<rect x="143.866" y="233.287" width="4.8" height="5.90625"/>
</g>

<g fill="none" stroke="none" transform="matrix(1,0,0,1,0,0)"
font-family="Bravura" font-size="40" font-weight="400" font-style="normal" 
>
<path vector-effect="none" fill-rule="evenodd" d="M143.866,233.287 L148.666,233.287 L148.666,239.193 L143.866,239.193 L143.866,233.287"/>
</g>

<g fill="#ffffff" fill-opacity="1" stroke="none" transform="matrix(1,0,0,1,0,0)"
font-family="Bravura" font-size="40" font-weight="400" font-style="normal" 
>
<rect x="197.939" y="233.287" width="5.03438" height="5.90625"/>
</g>

<g fill="none" stroke="none" transform="matrix(1,0,0,1,0,0)"
font-family="Bravura" font-size="40" font-weight="400" font-style="normal" 
>
<path vector-effect="none" fill-rule="evenodd" d="M197.939,233.287 L202.974,233.287 L202.974,239.193 L197.939,239.193 L197.939,233.287"/>
</g>

<g fill="#ffffff" fill-opacity="1" stroke="none" transform="matrix(1,0,0,1,0,0)"
font-family="Bravura" font-size="40" font-weight="400" font-style="normal" 
>
<rect x="230.207" y="233.287" width="5.03438" height="5.90625"/>
</g>

<g fill="none" stroke="none" transform="matrix(1,0,0,1,0,0)"
font-family="Bravura" font-size="40" font-weight="400" font-style="normal" 
>
<path vector-effect="none" fill-rule="evenodd" d="M230.207,233.287 L235.241,233.287 L235.241,239.193 L230.207,239.193 L230.207,233.287"/>
</g>

<g fill="#ffffff" fill-opacity="1" stroke="none" transform="matrix(1,0,0,1,0,0)"
font-family="Bravura" font-size="40" font-weight="400" font-style="normal" 
>
<rect x="262.474" y="240.758" width="4.64375" height="5.84375"/>
</g>

<g fill="none" stroke="none" transform="matrix(1,0,0,1,0,0)"
font-family="Bravura" font-size="40" font-weight="400" font-style="normal" 
>
<path vector-effect="none" fill-rule="evenodd" d="M262.474,240.758 L267.118,240.758 L267.118,246.602 L262.474,246.602 L262.474,240.758"/>
</g>

<g fill="#ffffff" fill-opacity="1" stroke="none" transform="matrix(1,0,0,1,0,0)"
font-family="Bravura" font-size="40" font-weight="400" font-style="normal" 
>
<rect x="316.548" y="233.287" width="5.03437" height="5.90625"/>
</g>

<g fill="none" stroke="none" transform="matrix(1,0,0,1,0,0)"
font-family="Bravura" font-size="40" font-weight="400" font-style="normal" 
>
<path vector-effect="none" fill-rule="evenodd" d="M316.548,233.287 L321.583,233.287 L321.583,239.193 L316.548,239.193 L316.548,233.287"/>
</g>

<g fill="#ffffff" fill-opacity="1" stroke="none" transform="matrix(1,0,0,1,0,0)"
font-family="Bravura" font-size="40" font-weight="400" font-style="normal" 
>
<rect x="348.816" y="233.287" width="5.03437" height="5.90625"/>
</g>

<g fill="none" stroke="none" transform="matrix(1,0,0,1,0,0)"
font-family="Bravura" font-size="40" font-weight="400" font-style="normal" 
>
<path vector-effect="none" fill-rule="evenodd" d="M348.816,233.287 L353.85,233.287 L353.85,239.193 L348.816,239.193 L348.816,233.287"/>
</g>

<g fill="#ffffff" fill-opacity="1" stroke="none" transform="matrix(1,0,0,1,0,0)"
font-family="Bravura" font-size="40" font-weight="400" font-style="normal" 
>
<rect x="381.083" y="233.287" width="4.8" height="5.90625"/>
</g>

<g fill="none" stroke="none" transform="matrix(1,0,0,1,0,0)"
font-family="Bravura" font-size="40" font-weight="400" font-style="normal" 
>
<path vector-effect="none" fill-rule="evenodd" d="M381.083,233.287 L385.883,233.287 L385.883,239.193 L381.083,239.193 L381.083,233.287"/>
</g>

<g fill="#ffffff" fill-opacity="1" stroke="none" transform="matrix(1,0,0,1,0,0)"
font-family="Bravura" font-size="40" font-weight="400" font-style="normal" 
>
<rect x="435.157" y="225.878" width="4.76094" height="5.84375"/>
</g>

<g fill="none" stroke="none" transform="matrix(1,0,0,1,0,0)"
font-family="Bravura" font-size="40" font-weight="400" font-style="normal" 
>
<path vector-effect="none" fill-rule="evenodd" d="M435.157,225.878 L439.918,225.878 L439.918,231.722 L435.157,231.722 L435.157,225.878"/>
</g>

<g fill="#ffffff" fill-opacity="1" stroke="none" transform="matrix(1,0,0,1,0,0)"
font-family="Bravura" font-size="40" font-weight="400" font-style="normal" 
>
<rect x="457.973" y="225.847" width="5.03437" height="5.90625"/>
</g>

<g fill="none" stroke="none" transform="matrix(1,0,0,1,0,0)"
font-family="Bravura" font-size="40" font-weight="400" font-style="normal" 
>
<path vector-effect="none" fill-rule="evenodd" d="M457.973,225.847 L463.007,225.847 L463.007,231.753 L457.973,231.753 L457.973,225.847"/>
</g>

<g fill="#ffffff" fill-opacity="1" stroke="none" transform="matrix(1,0,0,1,0,0)"
font-family="Bravura" font-size="40" font-weight="400" font-style="normal" 
>
<rect x="480.789" y="233.287" width="4.8" height="5.90625"/>
</g>

<g fill="none" stroke="none" transform="matrix(1,0,0,1,0,0)"
font-family="Bravura" font-size="40" font-weight="400" font-style="normal" 
>
<path vector-effect="none" fill-rule="evenodd" d="M480.789,233.287 L485.589,233.287 L485.589,239.193 L480.789,239.193 L480.789,233.287"/>
</g>

<g fill="#ffffff" fill-opacity="1" stroke="none" transform="matrix(1,0,0,1,0,0)"
font-family="Bravura" font-size="40" font-weight="400" font-style="normal" 
>
<rect x="513.056" y="233.287" width="5.03437" height="5.90625"/>
</g>

<g fill="none" stroke="none" transform="matrix(1,0,0,1,0,0)"
font-family="Bravura" font-size="40" font-weight="400" font-style="normal" 
>
<path vector-effect="none" fill-rule="evenodd" d="M513.056,233.287 L518.091,233.287 L518.091,239.193 L513.056,239.193 L513.056,233.287"/>
</g>

<g fill="#ffffff" fill-opacity="1" stroke="#000000" stroke-opacity="1" stroke-width="1" stroke-linecap="square" stroke-linejoin="bevel" transform="matrix(0.5,0,0,0.5,79.5354,239.131)"
font-family="Lato" font-size="16" font-weight="700" font-style="normal" 
>
<text fill="#000000" fill-opacity="1" stroke="none" xml:space="preserve" x="0" y="0" font-family="Lato" font-size="16" font-weight="700" font-style="normal" 
 >0</text>
</g>

<g fill="#ffffff" fill-opacity="1" stroke="#000000" stroke-opacity="1" stroke-width="1" stroke-linecap="square" stroke-linejoin="bevel" transform="matrix(0.5,0,0,0.5,111.803,239.131)"
font-family="Lato" font-size="16" font-weight="700" font-style="normal" 
>
<text fill="#000000" fill-opacity="1" stroke="none" xml:space="preserve" x="0" y="0" font-family="Lato" font-size="16" font-weight="700" font-style="normal" 
 >0</text>
</g>

<g fill="#ffffff" fill-opacity="1" stroke="#000000" stroke-opacity="1" stroke-width="1" stroke-linecap="square" stroke-linejoin="bevel" transform="matrix(0.5,0,0,0.5,144.008,239.131)"
font-family="Lato" font-size="16" font-weight="700" font-style="normal" 
>
<text fill="#000000" fill-opacity="1" stroke="none" xml:space="preserve" x="0" y="0" font-family="Lato" font-size="16" font-weight="700" font-style="normal" 
 >3</text>
</g>

<g fill="#ffffff" fill-opacity="1" stroke="#000000" stroke-opacity="1" stroke-width="1" stroke-linecap="square" stroke-linejoin="bevel" transform="matrix(0.5,0,0,0.5,198.144,239.131)"
font-family="Lato" font-size="16" font-weight="700" font-style="normal" 
>
<text fill="#000000" fill-opacity="1" stroke="none" xml:space="preserve" x="0" y="0" font-family="Lato" font-size="16" font-weight="700" font-style="normal" 
 >0</text>
</g>

<g fill="#ffffff" fill-opacity="1" stroke="#000000" stroke-opacity="1" stroke-width="1" stroke-linecap="square" stroke-linejoin="bevel" transform="matrix(0.5,0,0,0.5,230.412,239.131)"
font-family="Lato" font-size="16" font-weight="700" font-style="normal" 
>
<text fill="#000000" fill-opacity="1" stroke="none" xml:space="preserve" x="0" y="0" font-family="Lato" font-size="16" font-weight="700" font-style="normal" 
 >0</text>
</g>

<g fill="#ffffff" fill-opacity="1" stroke="#000000" stroke-opacity="1" stroke-width="1" stroke-linecap="square" stroke-linejoin="bevel" transform="matrix(0.5,0,0,0.5,262.531,246.539)"
font-family="Lato" font-size="16" font-weight="700" font-style="normal" 
>
<text fill="#000000" fill-opacity="1" stroke="none" xml:space="preserve" x="0" y="0" font-family="Lato" font-size="16" font-weight="700" font-style="normal" 
 >5</text>
</g>

<g fill="#ffffff" fill-opacity="1" stroke="#000000" stroke-opacity="1" stroke-width="1" stroke-linecap="square" stroke-linejoin="bevel" transform="matrix(0.5,0,0,0.5,316.753,239.131)"
font-family="Lato" font-size="16" font-weight="700" font-style="normal" 
>
<text fill="#000000" fill-opacity="1" stroke="none" xml:space="preserve" x="0" y="0" font-family="Lato" font-size="16" font-weight="700" font-style="normal" 
 >0</text>
</g>

<g fill="#ffffff" fill-opacity="1" stroke="#000000" stroke-opacity="1" stroke-width="1" stroke-linecap="square" stroke-linejoin="bevel" transform="matrix(0.5,0,0,0.5,349.02,239.131)"
font-family="Lato" font-size="16" font-weight="700" font-style="normal" 
>
<text fill="#000000" fill-opacity="1" stroke="none" xml:space="preserve" x="0" y="0" font-family="Lato" font-size="16" font-weight="700" font-style="normal" 
 >0</text>
</g>

<g fill="#ffffff" fill-opacity="1" stroke="#000000" stroke-opacity="1" stroke-width="1" stroke-linecap="square" stroke-linejoin="bevel" transform="matrix(0.5,0,0,0.5,381.225,239.131)"
font-family="Lato" font-size="16" font-weight="700" font-style="normal" 
>
<text fill="#000000" fill-opacity="1" stroke="none" xml:space="preserve" x="0" y="0" font-family="Lato" font-size="16" font-weight="700" font-style="normal" 
 >3</text>
</g>

<g fill="#ffffff" fill-opacity="1" stroke="#000000" stroke-opacity="1" stroke-width="1" stroke-linecap="square" stroke-linejoin="bevel" transform="matrix(0.5,0,0,0.5,435.26,231.722)"
font-family="Lato" font-size="16" font-weight="700" font-style="normal" 
>
<text fill="#000000" fill-opacity="1" stroke="none" xml:space="preserve" x="0" y="0" font-family="Lato" font-size="16" font-weight="700" font-style="normal" 
 >2</text>
</g>

<g fill="#ffffff" fill-opacity="1" stroke="#000000" stroke-opacity="1" stroke-width="1" stroke-linecap="square" stroke-linejoin="bevel" transform="matrix(0.5,0,0,0.5,458.178,231.691)"
font-family="Lato" font-size="16" font-weight="700" font-style="normal" 
>
<text fill="#000000" fill-opacity="1" stroke="none" xml:space="preserve" x="0" y="0" font-family="Lato" font-size="16" font-weight="700" font-style="normal" 
 >0</text>
</g>

<g fill="#ffffff" fill-opacity="1" stroke="#000000" stroke-opacity="1" stroke-width="1" stroke-linecap="square" stroke-linejoin="bevel" transform="matrix(0.5,0,0,0.5,480.931,239.131)"
font-family="Lato" font-size="16" font-weight="700" font-style="normal" 
>
<text fill="#000000" fill-opacity="1" stroke="none" xml:space="preserve" x="0" y="0" font-family="Lato" font-size="16" font-weight="700" font-style="normal" 
 >3</text>
</g>

<g fill="#ffffff" fill-opacity="1" stroke="#000000" stroke-opacity="1" stroke-width="1" stroke-linecap="square" stroke-linejoin="bevel" transform="matrix(0.5,0,0,0.5,513.261,239.131)"
font-family="Lato" font-size="16" font-weight="700" font-style="normal" 
>
<text fill="#000000" fill-opacity="1" stroke="none" xml:space="preserve" x="0" y="0" font-family="Lato" font-size="16" font-weight="700" font-style="normal" 
 >0</text>
</g>

<g fill="#ffffff" fill-opacity="1" stroke="#000000" stroke-opacity="1" stroke-width="2" stroke-linecap="butt" stroke-linejoin="miter" stroke-miterlimit="2" transform="matrix(1,0,0,1,0,0)"
font-family="Lato" font-size="16" font-weight="700" font-style="normal" 
>
</g>

<g fill="#ffffff" fill-opacity="1" stroke="#000000" stroke-opacity="1" stroke-width="2" stroke-linecap="butt" stroke-linejoin="miter" stroke-miterlimit="2" transform="matrix(0.5,0,0,0.5,42,47.5)"
font-family="Lato" font-size="16" font-weight="700" font-style="normal" 
>
</g>

<g fill="#ffffff" fill-opacity="1" stroke="#000000" stroke-opacity="1" stroke-width="2" stroke-linecap="butt" stroke-linejoin="miter" stroke-miterlimit="2" transform="matrix(0.5,0,0,0.5,42,47.5)"
font-family="Lato" font-size="16" font-weight="700" font-style="normal" 
>
</g>

<g fill="#ffffff" fill-opacity="1" stroke="#000000" stroke-opacity="1" stroke-width="1" stroke-linecap="square" stroke-linejoin="bevel" transform="matrix(0.5,0,0,0.5,42,47.5)"
font-family="Lato" font-size="16" font-weight="700" font-style="normal" 
>
<text fill="#000000" fill-opacity="1" stroke="none" xml:space="preserve" x="391.141" y="39.2031" font-family="Academico" font-size="40" font-weight="400" font-style="normal" 
 >Cluck Old Hen</text>
</g>

<g fill="#ffffff" fill-opacity="1" stroke="#000000" stroke-opacity="1" stroke-width="2" stroke-linecap="butt" stroke-linejoin="miter" stroke-miterlimit="2" transform="matrix(0.5,0,0,0.5,42,47.5)"
font-family="Lato" font-size="16" font-weight="700" font-style="normal" 
>
</g>

<g fill="#ffffff" fill-opacity="1" stroke="#000000" stroke-opacity="1" stroke-width="2" stroke-linecap="butt" stroke-linejoin="miter" stroke-miterlimit="2" transform="matrix(1,0,0,1,0,0)"
font-family="Lato" font-size="16" font-weight="700" font-style="normal" 
>
</g>

<g fill="#ffffff" fill-opacity="1" stroke="#000000" stroke-opacity="1" stroke-width="2" stroke-linecap="butt" stroke-linejoin="miter" stroke-miterlimit="2" transform="matrix(0.5,0,0,0.5,42,740)"
font-family="Lato" font-size="16" font-weight="700" font-style="normal" 
>
</g>

<g fill="#ffffff" fill-opacity="1" stroke="#000000" stroke-opacity="1" stroke-width="2" stroke-linecap="butt" stroke-linejoin="miter" stroke-miterlimit="2" transform="matrix(0.5,0,0,0.5,42,740)"
font-family="Lato" font-size="16" font-weight="700" font-style="normal" 
>
</g>

<g fill="#ffffff" fill-opacity="1" stroke="#000000" stroke-opacity="1" stroke-width="1" stroke-linecap="square" stroke-linejoin="bevel" transform="matrix(0.5,0,0,0.5,42,740)"
font-family="Lato" font-size="16" font-weight="700" font-style="normal" 
>
<text fill="#000000" fill-opacity="1" stroke="none" xml:space="preserve" x="452.219" y="15.6875" font-family="Academico" font-size="16" font-weight="400" font-style="normal" 
 >https://axe.pics/banjo</text>
</g>

<g fill="#ffffff" fill-opacity="1" stroke="#000000" stroke-opacity="1" stroke-width="2" stroke-linecap="butt" stroke-linejoin="miter" stroke-miterlimit="2" transform="matrix(0.5,0,0,0.5,42,740)"
font-family="Lato" font-size="16" font-weight="700" font-style="normal" 
>
</g>

<g fill="#ffffff" fill-opacity="1" stroke="#000000" stroke-opacity="1" stroke-width="2" stroke-linecap="butt" stroke-linejoin="miter" stroke-miterlimit="2" transform="matrix(1,0,0,1,0,0)"
font-family="Lato" font-size="16" font-weight="700" font-style="normal" 
>
</g>

<g fill="#ffffff" fill-opacity="1" stroke="#000000" stroke-opacity="1" stroke-width="2" stroke-linecap="butt" stroke-linejoin="miter" stroke-miterlimit="2" transform="matrix(0.5,0,0,0.5,42,83.75)"
font-family="Lato" font-size="16" font-weight="700" font-style="normal" 
>
</g>

<g fill="#ffffff" fill-opacity="1" stroke="#000000" stroke-opacity="1" stroke-width="2" stroke-linecap="butt" stroke-linejoin="miter" stroke-miterlimit="2" transform="matrix(0.5,0,0,0.5,42,83.75)"
font-family="Lato" font-size="16" font-weight="700" font-style="normal" 
>
</g>

<g fill="#ffffff" fill-opacity="1" stroke="#000000" stroke-opacity="1" stroke-width="1" stroke-linecap="square" stroke-linejoin="bevel" transform="matrix(0.5,0,0,0.5,42,83.75)"
font-family="Lato" font-size="16" font-weight="700" font-style="normal" 
>
<text fill="#000000" fill-opacity="1" stroke="none" xml:space="preserve" x="0" y="19.5938" font-family="Academico" font-size="20" font-weight="400" font-style="normal" 
 >Double C (gCGCD)</text>
</g>

<g fill="#ffffff" fill-opacity="1" stroke="#000000" stroke-opacity="1" stroke-width="2" stroke-linecap="butt" stroke-linejoin="miter" stroke-miterlimit="2" transform="matrix(0.5,0,0,0.5,42,83.75)"
font-family="Lato" font-size="16" font-weight="700" font-style="normal" 
>
</g>

<g fill="#ffffff" fill-opacity="1" stroke="#000000" stroke-opacity="1" stroke-width="2" stroke-linecap="butt" stroke-linejoin="miter" stroke-miterlimit="2" transform="matrix(1,0,0,1,0,0)"
font-family="Lato" font-size="16" font-weight="700" font-style="normal" 
>
</g>

<g fill="#ffffff" fill-opacity="1" stroke="#000000" stroke-opacity="1" stroke-width="2" stroke-linecap="butt" stroke-linejoin="miter" stroke-miterlimit="2" transform="matrix(0.5,0,0,0.5,315,83.75)"
font-family="Lato" font-size="16" font-weight="700" font-style="normal" 
>
</g>

<g fill="#ffffff" fill-opacity="1" stroke="#000000" stroke-opacity="1" stroke-width="2" stroke-linecap="butt" stroke-linejoin="miter" stroke-miterlimit="2" transform="matrix(0.5,0,0,0.5,315,83.75)"
font-family="Lato" font-size="16" font-weight="700" font-style="normal" 
>
</g>

<g fill="#ffffff" fill-opacity="1" stroke="#000000" stroke-opacity="1" stroke-width="1" stroke-linecap="square" stroke-linejoin="bevel" transform="matrix(0.5,0,0,0.5,315,83.75)"
font-family="Lato" font-size="16" font-weight="700" font-style="normal" 
>
<text fill="#000000" fill-opacity="1" stroke="none" xml:space="preserve" x="407.453" y="19.5938" font-family="Academico" font-size="20" font-weight="400" font-style="normal" 
 >Axe Barbie</text>
</g>

<g fill="#ffffff" fill-opacity="1" stroke="#000000" stroke-opacity="1" stroke-width="2" stroke-linecap="butt" stroke-linejoin="miter" stroke-miterlimit="2" transform="matrix(0.5,0,0,0.5,315,83.75)"
font-family="Lato" font-size="16" font-weight="700" font-style="normal" 
>
</g>

<g fill="#ffffff" fill-opacity="1" stroke="#000000" stroke-opacity="1" stroke-width="2" stroke-linecap="butt" stroke-linejoin="miter" stroke-miterlimit="2" transform="matrix(1,0,0,1,0,0)"
font-family="Lato" font-size="16" font-weight="700" font-style="normal" 
>
</g>
</g>
</svg>
