<?xml version="1.0" encoding="UTF-8" standalone="no"?>
<svg width="161.925mm" height="209.55mm"
 viewBox="0 0 612 792"
 xmlns="http://www.w3.org/2000/svg" xmlns:xlink="http://www.w3.org/1999/xlink" version="1.2" baseProfile="tiny">
<title>Darlin' Cory</title>
<desc>Dorico5</desc>
<defs>
</defs>
<g fill="none" stroke="black" stroke-width="1" fill-rule="evenodd" stroke-linecap="square" stroke-linejoin="bevel" >

<g fill="none" stroke="#000000" stroke-opacity="1" stroke-width="0.62" stroke-linecap="butt" stroke-linejoin="miter" stroke-miterlimit="2" transform="matrix(1,0,0,1,0,0)"
font-family="Segoe UI" font-size="12" font-weight="400" font-style="normal" 
>
<polyline fill="none" vector-effect="none" points="42,142 570,142 " />
<polyline fill="none" vector-effect="none" points="42,171.76 570,171.76 " />
<polyline fill="none" vector-effect="none" points="42,149.44 570,149.44 " />
<polyline fill="none" vector-effect="none" points="42,156.88 570,156.88 " />
<polyline fill="none" vector-effect="none" points="42,164.32 570,164.32 " />
</g>

<g fill="none" stroke="#000000" stroke-opacity="1" stroke-width="0.992" stroke-linecap="butt" stroke-linejoin="miter" stroke-miterlimit="2" transform="matrix(1,0,0,1,0,0)"
font-family="Segoe UI" font-size="12" font-weight="400" font-style="normal" 
>
<polyline fill="none" vector-effect="none" points="204.52,141.69 204.52,172.07 " />
<polyline fill="none" vector-effect="none" points="306.754,141.69 306.754,172.07 " />
<polyline fill="none" vector-effect="none" points="428.416,141.69 428.416,172.07 " />
<polyline fill="none" vector-effect="none" points="569.504,141.69 569.504,172.07 " />
</g>

<g fill="none" stroke="#000000" stroke-opacity="1" stroke-width="2.48" stroke-linecap="butt" stroke-linejoin="miter" stroke-miterlimit="2" transform="matrix(1,0,0,1,0,0)"
font-family="Segoe UI" font-size="12" font-weight="400" font-style="normal" 
>
<polyline fill="none" vector-effect="none" points="69.9725,141.69 69.9725,172.07 " />
</g>

<g fill="none" stroke="#000000" stroke-opacity="1" stroke-width="0.992" stroke-linecap="butt" stroke-linejoin="miter" stroke-miterlimit="2" transform="matrix(1,0,0,1,0,0)"
font-family="Segoe UI" font-size="12" font-weight="400" font-style="normal" 
>
<polyline fill="none" vector-effect="none" points="74.1885,141.69 74.1885,172.07 " />
</g>

<g fill="none" stroke="#000000" stroke-opacity="1" stroke-width="1" stroke-linecap="square" stroke-linejoin="bevel" transform="matrix(0.5,0,0,0.5,44.5347,156.88)"
font-family="Bravura" font-size="40" font-weight="400" font-style="normal" 
>
</g>

<g fill="#000000" fill-opacity="1" stroke="none" transform="matrix(0.5,0,0,0.5,44.5347,156.88)"
font-family="Bravura" font-size="40" font-weight="400" font-style="normal" 
>
<path vector-effect="none" fill-rule="nonzero" d="M5.04,1.44 L8.12,-7.12 L11.04,1.44 L5.04,1.44 M11.88,16.2 C11.88,18.12 10.8,19.2 8.12,19.2 L3.48,19.2 L3.48,13.2 L8.12,13.2 C10.8,13.2 11.88,14.28 11.88,16.2 M12.72,24.56 C12.72,26.36 11.6,27.8 9.36,27.8 L3.48,27.8 L3.48,21.32 L9.36,21.32 C11.6,21.32 12.72,22.72 12.72,24.56 M9.72,-9.68 L6.6,-9.68 L-0.12,9.12 L2.44,9.12 L4.44,3.48 L11.68,3.48 L13.64,9.12 L16.32,9.12 L9.72,-9.68 M15.48,-30.56 L0.72,-30.56 L0.72,-28.44 L6.92,-28.44 L6.92,-11.72 L9.32,-11.72 L9.32,-28.44 L15.48,-28.44 L15.48,-30.56 M15.12,24.52 C15.12,22.28 14.08,20.88 11.68,19.96 C13.4,19.16 14.28,17.76 14.28,15.88 C14.28,13.12 12.28,11.08 8.72,11.08 L1.08,11.08 L1.08,29.92 L9.56,29.92 C12.96,29.92 15.12,27.64 15.12,24.52 "/>
</g>

<g fill="none" stroke="#000000" stroke-opacity="1" stroke-width="1" stroke-linecap="square" stroke-linejoin="bevel" transform="matrix(0.5,0,0,0.5,44.5347,156.88)"
font-family="Bravura" font-size="40" font-weight="400" font-style="normal" 
>
<text fill="#000000" fill-opacity="1" stroke="none" xml:space="preserve" x="0" y="0" font-family="Segoe UI" font-size="12" font-weight="400" font-style="normal" 
 ></text>
</g>

<g fill="none" stroke="#000000" stroke-opacity="1" stroke-width="1" stroke-linecap="square" stroke-linejoin="bevel" transform="matrix(0.5,0,0,0.5,77.1645,153.16)"
font-family="Bravura" font-size="40" font-weight="400" font-style="normal" 
>
</g>

<g fill="#000000" fill-opacity="1" stroke="none" transform="matrix(0.5,0,0,0.5,77.1645,153.16)"
font-family="Bravura" font-size="40" font-weight="400" font-style="normal" 
>
<path vector-effect="none" fill-rule="nonzero" d="M2,-2 C0.88,-2 0,-1.12 0,0 C0,1.12 0.88,2 2,2 C3.08,2 4,1.12 4,0 C4,-1.12 3.08,-2 2,-2 "/>
</g>

<g fill="none" stroke="#000000" stroke-opacity="1" stroke-width="1" stroke-linecap="square" stroke-linejoin="bevel" transform="matrix(0.5,0,0,0.5,77.1645,153.16)"
font-family="Bravura" font-size="40" font-weight="400" font-style="normal" 
>
<text fill="#000000" fill-opacity="1" stroke="none" xml:space="preserve" x="0" y="0" font-family="Segoe UI" font-size="12" font-weight="400" font-style="normal" 
 ></text>
</g>

<g fill="none" stroke="#000000" stroke-opacity="1" stroke-width="1" stroke-linecap="square" stroke-linejoin="bevel" transform="matrix(0.5,0,0,0.5,77.1645,160.6)"
font-family="Bravura" font-size="40" font-weight="400" font-style="normal" 
>
</g>

<g fill="#000000" fill-opacity="1" stroke="none" transform="matrix(0.5,0,0,0.5,77.1645,160.6)"
font-family="Bravura" font-size="40" font-weight="400" font-style="normal" 
>
<path vector-effect="none" fill-rule="nonzero" d="M2,-2 C0.88,-2 0,-1.12 0,0 C0,1.12 0.88,2 2,2 C3.08,2 4,1.12 4,0 C4,-1.12 3.08,-2 2,-2 "/>
</g>

<g fill="none" stroke="#000000" stroke-opacity="1" stroke-width="1" stroke-linecap="square" stroke-linejoin="bevel" transform="matrix(0.5,0,0,0.5,77.1645,160.6)"
font-family="Bravura" font-size="40" font-weight="400" font-style="normal" 
>
<text fill="#000000" fill-opacity="1" stroke="none" xml:space="preserve" x="0" y="0" font-family="Segoe UI" font-size="12" font-weight="400" font-style="normal" 
 ></text>
</g>

<g fill="none" stroke="#000000" stroke-opacity="1" stroke-width="1" stroke-linecap="square" stroke-linejoin="bevel" transform="matrix(0.5,0,0,0.5,57.2603,151.88)"
font-family="Bravura" font-size="40" font-weight="400" font-style="normal" 
>
<text fill="#000000" fill-opacity="1" stroke="none" xml:space="preserve" x="0" y="0" font-family="Bravura" font-size="40" font-weight="400" font-style="normal" 
 ></text>
</g>

<g fill="none" stroke="#000000" stroke-opacity="1" stroke-width="1" stroke-linecap="square" stroke-linejoin="bevel" transform="matrix(0.5,0,0,0.5,57.2603,161.896)"
font-family="Bravura" font-size="40" font-weight="400" font-style="normal" 
>
<text fill="#000000" fill-opacity="1" stroke="none" xml:space="preserve" x="0" y="0" font-family="Bravura" font-size="40" font-weight="400" font-style="normal" 
 ></text>
</g>

<g fill="#ffffff" fill-opacity="1" stroke="none" transform="matrix(1,0,0,1,0,0)"
font-family="Bravura" font-size="40" font-weight="400" font-style="normal" 
>
<rect x="90.4045" y="153.927" width="5.03437" height="5.90625"/>
</g>

<g fill="none" stroke="none" transform="matrix(1,0,0,1,0,0)"
font-family="Bravura" font-size="40" font-weight="400" font-style="normal" 
>
<path vector-effect="none" fill-rule="evenodd" d="M90.4045,153.927 L95.4389,153.927 L95.4389,159.833 L90.4045,159.833 L90.4045,153.927"/>
</g>

<g fill="#ffffff" fill-opacity="1" stroke="none" transform="matrix(1,0,0,1,0,0)"
font-family="Bravura" font-size="40" font-weight="400" font-style="normal" 
>
<rect x="123.566" y="153.927" width="4.8" height="5.90625"/>
</g>

<g fill="none" stroke="none" transform="matrix(1,0,0,1,0,0)"
font-family="Bravura" font-size="40" font-weight="400" font-style="normal" 
>
<path vector-effect="none" fill-rule="evenodd" d="M123.566,153.927 L128.366,153.927 L128.366,159.833 L123.566,159.833 L123.566,153.927"/>
</g>

<g fill="#ffffff" fill-opacity="1" stroke="none" transform="matrix(1,0,0,1,0,0)"
font-family="Bravura" font-size="40" font-weight="400" font-style="normal" 
>
<rect x="156.728" y="146.487" width="5.03438" height="5.90625"/>
</g>

<g fill="none" stroke="none" transform="matrix(1,0,0,1,0,0)"
font-family="Bravura" font-size="40" font-weight="400" font-style="normal" 
>
<path vector-effect="none" fill-rule="evenodd" d="M156.728,146.487 L161.762,146.487 L161.762,152.393 L156.728,152.393 L156.728,146.487"/>
</g>

<g fill="#ffffff" fill-opacity="1" stroke="none" transform="matrix(1,0,0,1,0,0)"
font-family="Bravura" font-size="40" font-weight="400" font-style="normal" 
>
<rect x="212.066" y="146.487" width="4.8" height="5.90625"/>
</g>

<g fill="none" stroke="none" transform="matrix(1,0,0,1,0,0)"
font-family="Bravura" font-size="40" font-weight="400" font-style="normal" 
>
<path vector-effect="none" fill-rule="evenodd" d="M212.066,146.487 L216.866,146.487 L216.866,152.393 L212.066,152.393 L212.066,146.487"/>
</g>

<g fill="#ffffff" fill-opacity="1" stroke="none" transform="matrix(1,0,0,1,0,0)"
font-family="Bravura" font-size="40" font-weight="400" font-style="normal" 
>
<rect x="258.962" y="146.487" width="5.03438" height="5.90625"/>
</g>

<g fill="none" stroke="none" transform="matrix(1,0,0,1,0,0)"
font-family="Bravura" font-size="40" font-weight="400" font-style="normal" 
>
<path vector-effect="none" fill-rule="evenodd" d="M258.962,146.487 L263.996,146.487 L263.996,152.393 L258.962,152.393 L258.962,146.487"/>
</g>

<g fill="#ffffff" fill-opacity="1" stroke="none" transform="matrix(1,0,0,1,0,0)"
font-family="Bravura" font-size="40" font-weight="400" font-style="normal" 
>
<rect x="314.3" y="153.927" width="5.03437" height="5.90625"/>
</g>

<g fill="none" stroke="none" transform="matrix(1,0,0,1,0,0)"
font-family="Bravura" font-size="40" font-weight="400" font-style="normal" 
>
<path vector-effect="none" fill-rule="evenodd" d="M314.3,153.927 L319.335,153.927 L319.335,159.833 L314.3,159.833 L314.3,153.927"/>
</g>

<g fill="#ffffff" fill-opacity="1" stroke="none" transform="matrix(1,0,0,1,0,0)"
font-family="Bravura" font-size="40" font-weight="400" font-style="normal" 
>
<rect x="347.462" y="153.927" width="4.8" height="5.90625"/>
</g>

<g fill="none" stroke="none" transform="matrix(1,0,0,1,0,0)"
font-family="Bravura" font-size="40" font-weight="400" font-style="normal" 
>
<path vector-effect="none" fill-rule="evenodd" d="M347.462,153.927 L352.262,153.927 L352.262,159.833 L347.462,159.833 L347.462,153.927"/>
</g>

<g fill="#ffffff" fill-opacity="1" stroke="none" transform="matrix(1,0,0,1,0,0)"
font-family="Bravura" font-size="40" font-weight="400" font-style="normal" 
>
<rect x="380.623" y="146.487" width="5.03437" height="5.90625"/>
</g>

<g fill="none" stroke="none" transform="matrix(1,0,0,1,0,0)"
font-family="Bravura" font-size="40" font-weight="400" font-style="normal" 
>
<path vector-effect="none" fill-rule="evenodd" d="M380.623,146.487 L385.658,146.487 L385.658,152.393 L380.623,152.393 L380.623,146.487"/>
</g>

<g fill="#ffffff" fill-opacity="1" stroke="none" transform="matrix(1,0,0,1,0,0)"
font-family="Bravura" font-size="40" font-weight="400" font-style="normal" 
>
<rect x="435.962" y="153.927" width="4.8" height="5.90625"/>
</g>

<g fill="none" stroke="none" transform="matrix(1,0,0,1,0,0)"
font-family="Bravura" font-size="40" font-weight="400" font-style="normal" 
>
<path vector-effect="none" fill-rule="evenodd" d="M435.962,153.927 L440.762,153.927 L440.762,159.833 L435.962,159.833 L435.962,153.927"/>
</g>

<g fill="#ffffff" fill-opacity="1" stroke="none" transform="matrix(1,0,0,1,0,0)"
font-family="Bravura" font-size="40" font-weight="400" font-style="normal" 
>
<rect x="469.123" y="153.927" width="5.03437" height="5.90625"/>
</g>

<g fill="none" stroke="none" transform="matrix(1,0,0,1,0,0)"
font-family="Bravura" font-size="40" font-weight="400" font-style="normal" 
>
<path vector-effect="none" fill-rule="evenodd" d="M469.123,153.927 L474.158,153.927 L474.158,159.833 L469.123,159.833 L469.123,153.927"/>
</g>

<g fill="#ffffff" fill-opacity="1" stroke="none" transform="matrix(1,0,0,1,0,0)"
font-family="Bravura" font-size="40" font-weight="400" font-style="normal" 
>
<rect x="502.285" y="161.398" width="4.64375" height="5.84375"/>
</g>

<g fill="none" stroke="none" transform="matrix(1,0,0,1,0,0)"
font-family="Bravura" font-size="40" font-weight="400" font-style="normal" 
>
<path vector-effect="none" fill-rule="evenodd" d="M502.285,161.398 L506.929,161.398 L506.929,167.242 L502.285,167.242 L502.285,161.398"/>
</g>

<g fill="#ffffff" fill-opacity="1" stroke="none" transform="matrix(1,0,0,1,0,0)"
font-family="Bravura" font-size="40" font-weight="400" font-style="normal" 
>
<rect x="535.446" y="161.367" width="4.8" height="5.90625"/>
</g>

<g fill="none" stroke="none" transform="matrix(1,0,0,1,0,0)"
font-family="Bravura" font-size="40" font-weight="400" font-style="normal" 
>
<path vector-effect="none" fill-rule="evenodd" d="M535.446,161.367 L540.246,161.367 L540.246,167.273 L535.446,167.273 L535.446,161.367"/>
</g>

<g fill="#ffffff" fill-opacity="1" stroke="#000000" stroke-opacity="1" stroke-width="1" stroke-linecap="square" stroke-linejoin="bevel" transform="matrix(0.5,0,0,0.5,90.6092,159.771)"
font-family="Lato" font-size="16" font-weight="700" font-style="normal" 
>
<text fill="#000000" fill-opacity="1" stroke="none" xml:space="preserve" x="0" y="0" font-family="Lato" font-size="16" font-weight="700" font-style="normal" 
 >0</text>
</g>

<g fill="#ffffff" fill-opacity="1" stroke="#000000" stroke-opacity="1" stroke-width="1" stroke-linecap="square" stroke-linejoin="bevel" transform="matrix(0.5,0,0,0.5,123.708,159.771)"
font-family="Lato" font-size="16" font-weight="700" font-style="normal" 
>
<text fill="#000000" fill-opacity="1" stroke="none" xml:space="preserve" x="0" y="0" font-family="Lato" font-size="16" font-weight="700" font-style="normal" 
 >3</text>
</g>

<g fill="#ffffff" fill-opacity="1" stroke="#000000" stroke-opacity="1" stroke-width="1" stroke-linecap="square" stroke-linejoin="bevel" transform="matrix(0.5,0,0,0.5,156.932,152.331)"
font-family="Lato" font-size="16" font-weight="700" font-style="normal" 
>
<text fill="#000000" fill-opacity="1" stroke="none" xml:space="preserve" x="0" y="0" font-family="Lato" font-size="16" font-weight="700" font-style="normal" 
 >0</text>
</g>

<g fill="#ffffff" fill-opacity="1" stroke="#000000" stroke-opacity="1" stroke-width="1" stroke-linecap="square" stroke-linejoin="bevel" transform="matrix(0.5,0,0,0.5,212.208,152.331)"
font-family="Lato" font-size="16" font-weight="700" font-style="normal" 
>
<text fill="#000000" fill-opacity="1" stroke="none" xml:space="preserve" x="0" y="0" font-family="Lato" font-size="16" font-weight="700" font-style="normal" 
 >3</text>
</g>

<g fill="#ffffff" fill-opacity="1" stroke="#000000" stroke-opacity="1" stroke-width="1" stroke-linecap="square" stroke-linejoin="bevel" transform="matrix(0.5,0,0,0.5,259.167,152.331)"
font-family="Lato" font-size="16" font-weight="700" font-style="normal" 
>
<text fill="#000000" fill-opacity="1" stroke="none" xml:space="preserve" x="0" y="0" font-family="Lato" font-size="16" font-weight="700" font-style="normal" 
 >0</text>
</g>

<g fill="#ffffff" fill-opacity="1" stroke="#000000" stroke-opacity="1" stroke-width="1" stroke-linecap="square" stroke-linejoin="bevel" transform="matrix(0.5,0,0,0.5,314.505,159.771)"
font-family="Lato" font-size="16" font-weight="700" font-style="normal" 
>
<text fill="#000000" fill-opacity="1" stroke="none" xml:space="preserve" x="0" y="0" font-family="Lato" font-size="16" font-weight="700" font-style="normal" 
 >0</text>
</g>

<g fill="#ffffff" fill-opacity="1" stroke="#000000" stroke-opacity="1" stroke-width="1" stroke-linecap="square" stroke-linejoin="bevel" transform="matrix(0.5,0,0,0.5,347.604,159.771)"
font-family="Lato" font-size="16" font-weight="700" font-style="normal" 
>
<text fill="#000000" fill-opacity="1" stroke="none" xml:space="preserve" x="0" y="0" font-family="Lato" font-size="16" font-weight="700" font-style="normal" 
 >3</text>
</g>

<g fill="#ffffff" fill-opacity="1" stroke="#000000" stroke-opacity="1" stroke-width="1" stroke-linecap="square" stroke-linejoin="bevel" transform="matrix(0.5,0,0,0.5,380.828,152.331)"
font-family="Lato" font-size="16" font-weight="700" font-style="normal" 
>
<text fill="#000000" fill-opacity="1" stroke="none" xml:space="preserve" x="0" y="0" font-family="Lato" font-size="16" font-weight="700" font-style="normal" 
 >0</text>
</g>

<g fill="#ffffff" fill-opacity="1" stroke="#000000" stroke-opacity="1" stroke-width="1" stroke-linecap="square" stroke-linejoin="bevel" transform="matrix(0.5,0,0,0.5,436.104,159.771)"
font-family="Lato" font-size="16" font-weight="700" font-style="normal" 
>
<text fill="#000000" fill-opacity="1" stroke="none" xml:space="preserve" x="0" y="0" font-family="Lato" font-size="16" font-weight="700" font-style="normal" 
 >3</text>
</g>

<g fill="#ffffff" fill-opacity="1" stroke="#000000" stroke-opacity="1" stroke-width="1" stroke-linecap="square" stroke-linejoin="bevel" transform="matrix(0.5,0,0,0.5,469.328,159.771)"
font-family="Lato" font-size="16" font-weight="700" font-style="normal" 
>
<text fill="#000000" fill-opacity="1" stroke="none" xml:space="preserve" x="0" y="0" font-family="Lato" font-size="16" font-weight="700" font-style="normal" 
 >0</text>
</g>

<g fill="#ffffff" fill-opacity="1" stroke="#000000" stroke-opacity="1" stroke-width="1" stroke-linecap="square" stroke-linejoin="bevel" transform="matrix(0.5,0,0,0.5,502.341,167.179)"
font-family="Lato" font-size="16" font-weight="700" font-style="normal" 
>
<text fill="#000000" fill-opacity="1" stroke="none" xml:space="preserve" x="0" y="0" font-family="Lato" font-size="16" font-weight="700" font-style="normal" 
 >5</text>
</g>

<g fill="#ffffff" fill-opacity="1" stroke="#000000" stroke-opacity="1" stroke-width="1" stroke-linecap="square" stroke-linejoin="bevel" transform="matrix(0.5,0,0,0.5,535.589,167.211)"
font-family="Lato" font-size="16" font-weight="700" font-style="normal" 
>
<text fill="#000000" fill-opacity="1" stroke="none" xml:space="preserve" x="0" y="0" font-family="Lato" font-size="16" font-weight="700" font-style="normal" 
 >3</text>
</g>

<g fill="#ffffff" fill-opacity="1" stroke="#000000" stroke-opacity="1" stroke-width="0.62" stroke-linecap="butt" stroke-linejoin="miter" stroke-miterlimit="2" transform="matrix(1,0,0,1,0,0)"
font-family="Lato" font-size="16" font-weight="700" font-style="normal" 
>
<polyline fill="none" vector-effect="none" points="42,221.36 570,221.36 " />
<polyline fill="none" vector-effect="none" points="42,251.12 570,251.12 " />
<polyline fill="none" vector-effect="none" points="42,228.8 570,228.8 " />
<polyline fill="none" vector-effect="none" points="42,236.24 570,236.24 " />
<polyline fill="none" vector-effect="none" points="42,243.68 570,243.68 " />
</g>

<g fill="#ffffff" fill-opacity="1" stroke="#000000" stroke-opacity="1" stroke-width="0.992" stroke-linecap="butt" stroke-linejoin="miter" stroke-miterlimit="2" transform="matrix(1,0,0,1,0,0)"
font-family="Lato" font-size="16" font-weight="700" font-style="normal" 
>
<polyline fill="none" vector-effect="none" points="184.311,221.05 184.311,251.43 " />
<polyline fill="none" vector-effect="none" points="312.708,221.05 312.708,251.43 " />
<polyline fill="none" vector-effect="none" points="420.523,221.05 420.523,251.43 " />
<polyline fill="none" vector-effect="none" points="569.504,221.05 569.504,251.43 " />
</g>

<g fill="#ffffff" fill-opacity="1" stroke="#000000" stroke-opacity="1" stroke-width="1" stroke-linecap="square" stroke-linejoin="bevel" transform="matrix(0.5,0,0,0.5,44.5347,236.24)"
font-family="Bravura" font-size="40" font-weight="400" font-style="normal" 
>
</g>

<g fill="#000000" fill-opacity="1" stroke="none" transform="matrix(0.5,0,0,0.5,44.5347,236.24)"
font-family="Bravura" font-size="40" font-weight="400" font-style="normal" 
>
<path vector-effect="none" fill-rule="nonzero" d="M5.04,1.44 L8.12,-7.12 L11.04,1.44 L5.04,1.44 M11.88,16.2 C11.88,18.12 10.8,19.2 8.12,19.2 L3.48,19.2 L3.48,13.2 L8.12,13.2 C10.8,13.2 11.88,14.28 11.88,16.2 M12.72,24.56 C12.72,26.36 11.6,27.8 9.36,27.8 L3.48,27.8 L3.48,21.32 L9.36,21.32 C11.6,21.32 12.72,22.72 12.72,24.56 M9.72,-9.68 L6.6,-9.68 L-0.12,9.12 L2.44,9.12 L4.44,3.48 L11.68,3.48 L13.64,9.12 L16.32,9.12 L9.72,-9.68 M15.48,-30.56 L0.72,-30.56 L0.72,-28.44 L6.92,-28.44 L6.92,-11.72 L9.32,-11.72 L9.32,-28.44 L15.48,-28.44 L15.48,-30.56 M15.12,24.52 C15.12,22.28 14.08,20.88 11.68,19.96 C13.4,19.16 14.28,17.76 14.28,15.88 C14.28,13.12 12.28,11.08 8.72,11.08 L1.08,11.08 L1.08,29.92 L9.56,29.92 C12.96,29.92 15.12,27.64 15.12,24.52 "/>
</g>

<g fill="#ffffff" fill-opacity="1" stroke="#000000" stroke-opacity="1" stroke-width="1" stroke-linecap="square" stroke-linejoin="bevel" transform="matrix(0.5,0,0,0.5,44.5347,236.24)"
font-family="Bravura" font-size="40" font-weight="400" font-style="normal" 
>
<text fill="#000000" fill-opacity="1" stroke="none" xml:space="preserve" x="0" y="0" font-family="Segoe UI" font-size="12" font-weight="400" font-style="normal" 
 ></text>
</g>

<g fill="#ffffff" fill-opacity="1" stroke="none" transform="matrix(1,0,0,1,0,0)"
font-family="Bravura" font-size="40" font-weight="400" font-style="normal" 
>
<rect x="63.4588" y="240.727" width="5.03437" height="5.90625"/>
</g>

<g fill="none" stroke="none" transform="matrix(1,0,0,1,0,0)"
font-family="Bravura" font-size="40" font-weight="400" font-style="normal" 
>
<path vector-effect="none" fill-rule="evenodd" d="M63.4588,240.727 L68.4931,240.727 L68.4931,246.633 L63.4588,246.633 L63.4588,240.727"/>
</g>

<g fill="#ffffff" fill-opacity="1" stroke="none" transform="matrix(1,0,0,1,0,0)"
font-family="Bravura" font-size="40" font-weight="400" font-style="normal" 
>
<rect x="113.145" y="240.758" width="4.64375" height="5.84375"/>
</g>

<g fill="none" stroke="none" transform="matrix(1,0,0,1,0,0)"
font-family="Bravura" font-size="40" font-weight="400" font-style="normal" 
>
<path vector-effect="none" fill-rule="evenodd" d="M113.145,240.758 L117.789,240.758 L117.789,246.602 L113.145,246.602 L113.145,240.758"/>
</g>

<g fill="#ffffff" fill-opacity="1" stroke="none" transform="matrix(1,0,0,1,0,0)"
font-family="Bravura" font-size="40" font-weight="400" font-style="normal" 
>
<rect x="148.28" y="240.727" width="4.8" height="5.90625"/>
</g>

<g fill="none" stroke="none" transform="matrix(1,0,0,1,0,0)"
font-family="Bravura" font-size="40" font-weight="400" font-style="normal" 
>
<path vector-effect="none" fill-rule="evenodd" d="M148.28,240.727 L153.08,240.727 L153.08,246.633 L148.28,246.633 L148.28,240.727"/>
</g>

<g fill="#ffffff" fill-opacity="1" stroke="none" transform="matrix(1,0,0,1,0,0)"
font-family="Bravura" font-size="40" font-weight="400" font-style="normal" 
>
<rect x="191.857" y="240.727" width="5.03438" height="5.90625"/>
</g>

<g fill="none" stroke="none" transform="matrix(1,0,0,1,0,0)"
font-family="Bravura" font-size="40" font-weight="400" font-style="normal" 
>
<path vector-effect="none" fill-rule="evenodd" d="M191.857,240.727 L196.891,240.727 L196.891,246.633 L191.857,246.633 L191.857,240.727"/>
</g>

<g fill="#ffffff" fill-opacity="1" stroke="none" transform="matrix(1,0,0,1,0,0)"
font-family="Bravura" font-size="40" font-weight="400" font-style="normal" 
>
<rect x="241.543" y="240.727" width="4.8" height="5.90625"/>
</g>

<g fill="none" stroke="none" transform="matrix(1,0,0,1,0,0)"
font-family="Bravura" font-size="40" font-weight="400" font-style="normal" 
>
<path vector-effect="none" fill-rule="evenodd" d="M241.543,240.727 L246.343,240.727 L246.343,246.633 L241.543,246.633 L241.543,240.727"/>
</g>

<g fill="#ffffff" fill-opacity="1" stroke="none" transform="matrix(1,0,0,1,0,0)"
font-family="Bravura" font-size="40" font-weight="400" font-style="normal" 
>
<rect x="276.678" y="240.758" width="4.64375" height="5.84375"/>
</g>

<g fill="none" stroke="none" transform="matrix(1,0,0,1,0,0)"
font-family="Bravura" font-size="40" font-weight="400" font-style="normal" 
>
<path vector-effect="none" fill-rule="evenodd" d="M276.678,240.758 L281.321,240.758 L281.321,246.602 L276.678,246.602 L276.678,240.758"/>
</g>

<g fill="#ffffff" fill-opacity="1" stroke="none" transform="matrix(1,0,0,1,0,0)"
font-family="Bravura" font-size="40" font-weight="400" font-style="normal" 
>
<rect x="320.254" y="233.287" width="5.03437" height="5.90625"/>
</g>

<g fill="none" stroke="none" transform="matrix(1,0,0,1,0,0)"
font-family="Bravura" font-size="40" font-weight="400" font-style="normal" 
>
<path vector-effect="none" fill-rule="evenodd" d="M320.254,233.287 L325.289,233.287 L325.289,239.193 L320.254,239.193 L320.254,233.287"/>
</g>

<g fill="#ffffff" fill-opacity="1" stroke="none" transform="matrix(1,0,0,1,0,0)"
font-family="Bravura" font-size="40" font-weight="400" font-style="normal" 
>
<rect x="369.941" y="225.847" width="5.03437" height="5.90625"/>
</g>

<g fill="none" stroke="none" transform="matrix(1,0,0,1,0,0)"
font-family="Bravura" font-size="40" font-weight="400" font-style="normal" 
>
<path vector-effect="none" fill-rule="evenodd" d="M369.941,225.847 L374.975,225.847 L374.975,231.753 L369.941,231.753 L369.941,225.847"/>
</g>

<g fill="#ffffff" fill-opacity="1" stroke="none" transform="matrix(1,0,0,1,0,0)"
font-family="Bravura" font-size="40" font-weight="400" font-style="normal" 
>
<rect x="428.069" y="225.847" width="5.03437" height="5.90625"/>
</g>

<g fill="none" stroke="none" transform="matrix(1,0,0,1,0,0)"
font-family="Bravura" font-size="40" font-weight="400" font-style="normal" 
>
<path vector-effect="none" fill-rule="evenodd" d="M428.069,225.847 L433.104,225.847 L433.104,231.753 L428.069,231.753 L428.069,225.847"/>
</g>

<g fill="#ffffff" fill-opacity="1" stroke="none" transform="matrix(1,0,0,1,0,0)"
font-family="Bravura" font-size="40" font-weight="400" font-style="normal" 
>
<rect x="463.204" y="233.287" width="5.03437" height="5.90625"/>
</g>

<g fill="none" stroke="none" transform="matrix(1,0,0,1,0,0)"
font-family="Bravura" font-size="40" font-weight="400" font-style="normal" 
>
<path vector-effect="none" fill-rule="evenodd" d="M463.204,233.287 L468.238,233.287 L468.238,239.193 L463.204,239.193 L463.204,233.287"/>
</g>

<g fill="#ffffff" fill-opacity="1" stroke="none" transform="matrix(1,0,0,1,0,0)"
font-family="Bravura" font-size="40" font-weight="400" font-style="normal" 
>
<rect x="498.339" y="240.758" width="4.64375" height="5.84375"/>
</g>

<g fill="none" stroke="none" transform="matrix(1,0,0,1,0,0)"
font-family="Bravura" font-size="40" font-weight="400" font-style="normal" 
>
<path vector-effect="none" fill-rule="evenodd" d="M498.339,240.758 L502.982,240.758 L502.982,246.602 L498.339,246.602 L498.339,240.758"/>
</g>

<g fill="#ffffff" fill-opacity="1" stroke="none" transform="matrix(1,0,0,1,0,0)"
font-family="Bravura" font-size="40" font-weight="400" font-style="normal" 
>
<rect x="533.473" y="240.727" width="4.8" height="5.90625"/>
</g>

<g fill="none" stroke="none" transform="matrix(1,0,0,1,0,0)"
font-family="Bravura" font-size="40" font-weight="400" font-style="normal" 
>
<path vector-effect="none" fill-rule="evenodd" d="M533.473,240.727 L538.273,240.727 L538.273,246.633 L533.473,246.633 L533.473,240.727"/>
</g>

<g fill="#ffffff" fill-opacity="1" stroke="#000000" stroke-opacity="1" stroke-width="1" stroke-linecap="square" stroke-linejoin="bevel" transform="matrix(0.5,0,0,0.5,63.6634,246.571)"
font-family="Lato" font-size="16" font-weight="700" font-style="normal" 
>
<text fill="#000000" fill-opacity="1" stroke="none" xml:space="preserve" x="0" y="0" font-family="Lato" font-size="16" font-weight="700" font-style="normal" 
 >0</text>
</g>

<g fill="#ffffff" fill-opacity="1" stroke="#000000" stroke-opacity="1" stroke-width="1" stroke-linecap="square" stroke-linejoin="bevel" transform="matrix(0.5,0,0,0.5,113.201,246.539)"
font-family="Lato" font-size="16" font-weight="700" font-style="normal" 
>
<text fill="#000000" fill-opacity="1" stroke="none" xml:space="preserve" x="0" y="0" font-family="Lato" font-size="16" font-weight="700" font-style="normal" 
 >5</text>
</g>

<g fill="#ffffff" fill-opacity="1" stroke="#000000" stroke-opacity="1" stroke-width="1" stroke-linecap="square" stroke-linejoin="bevel" transform="matrix(0.5,0,0,0.5,148.422,246.571)"
font-family="Lato" font-size="16" font-weight="700" font-style="normal" 
>
<text fill="#000000" fill-opacity="1" stroke="none" xml:space="preserve" x="0" y="0" font-family="Lato" font-size="16" font-weight="700" font-style="normal" 
 >3</text>
</g>

<g fill="#ffffff" fill-opacity="1" stroke="#000000" stroke-opacity="1" stroke-width="1" stroke-linecap="square" stroke-linejoin="bevel" transform="matrix(0.5,0,0,0.5,192.061,246.571)"
font-family="Lato" font-size="16" font-weight="700" font-style="normal" 
>
<text fill="#000000" fill-opacity="1" stroke="none" xml:space="preserve" x="0" y="0" font-family="Lato" font-size="16" font-weight="700" font-style="normal" 
 >0</text>
</g>

<g fill="#ffffff" fill-opacity="1" stroke="#000000" stroke-opacity="1" stroke-width="1" stroke-linecap="square" stroke-linejoin="bevel" transform="matrix(0.5,0,0,0.5,241.685,246.571)"
font-family="Lato" font-size="16" font-weight="700" font-style="normal" 
>
<text fill="#000000" fill-opacity="1" stroke="none" xml:space="preserve" x="0" y="0" font-family="Lato" font-size="16" font-weight="700" font-style="normal" 
 >3</text>
</g>

<g fill="#ffffff" fill-opacity="1" stroke="#000000" stroke-opacity="1" stroke-width="1" stroke-linecap="square" stroke-linejoin="bevel" transform="matrix(0.5,0,0,0.5,276.734,246.539)"
font-family="Lato" font-size="16" font-weight="700" font-style="normal" 
>
<text fill="#000000" fill-opacity="1" stroke="none" xml:space="preserve" x="0" y="0" font-family="Lato" font-size="16" font-weight="700" font-style="normal" 
 >5</text>
</g>

<g fill="#ffffff" fill-opacity="1" stroke="#000000" stroke-opacity="1" stroke-width="1" stroke-linecap="square" stroke-linejoin="bevel" transform="matrix(0.5,0,0,0.5,320.459,239.131)"
font-family="Lato" font-size="16" font-weight="700" font-style="normal" 
>
<text fill="#000000" fill-opacity="1" stroke="none" xml:space="preserve" x="0" y="0" font-family="Lato" font-size="16" font-weight="700" font-style="normal" 
 >0</text>
</g>

<g fill="#ffffff" fill-opacity="1" stroke="#000000" stroke-opacity="1" stroke-width="1" stroke-linecap="square" stroke-linejoin="bevel" transform="matrix(0.5,0,0,0.5,370.146,231.691)"
font-family="Lato" font-size="16" font-weight="700" font-style="normal" 
>
<text fill="#000000" fill-opacity="1" stroke="none" xml:space="preserve" x="0" y="0" font-family="Lato" font-size="16" font-weight="700" font-style="normal" 
 >0</text>
</g>

<g fill="#ffffff" fill-opacity="1" stroke="#000000" stroke-opacity="1" stroke-width="1" stroke-linecap="square" stroke-linejoin="bevel" transform="matrix(0.5,0,0,0.5,428.274,231.691)"
font-family="Lato" font-size="16" font-weight="700" font-style="normal" 
>
<text fill="#000000" fill-opacity="1" stroke="none" xml:space="preserve" x="0" y="0" font-family="Lato" font-size="16" font-weight="700" font-style="normal" 
 >0</text>
</g>

<g fill="#ffffff" fill-opacity="1" stroke="#000000" stroke-opacity="1" stroke-width="1" stroke-linecap="square" stroke-linejoin="bevel" transform="matrix(0.5,0,0,0.5,463.409,239.131)"
font-family="Lato" font-size="16" font-weight="700" font-style="normal" 
>
<text fill="#000000" fill-opacity="1" stroke="none" xml:space="preserve" x="0" y="0" font-family="Lato" font-size="16" font-weight="700" font-style="normal" 
 >0</text>
</g>

<g fill="#ffffff" fill-opacity="1" stroke="#000000" stroke-opacity="1" stroke-width="1" stroke-linecap="square" stroke-linejoin="bevel" transform="matrix(0.5,0,0,0.5,498.395,246.539)"
font-family="Lato" font-size="16" font-weight="700" font-style="normal" 
>
<text fill="#000000" fill-opacity="1" stroke="none" xml:space="preserve" x="0" y="0" font-family="Lato" font-size="16" font-weight="700" font-style="normal" 
 >5</text>
</g>

<g fill="#ffffff" fill-opacity="1" stroke="#000000" stroke-opacity="1" stroke-width="1" stroke-linecap="square" stroke-linejoin="bevel" transform="matrix(0.5,0,0,0.5,533.616,246.571)"
font-family="Lato" font-size="16" font-weight="700" font-style="normal" 
>
<text fill="#000000" fill-opacity="1" stroke="none" xml:space="preserve" x="0" y="0" font-family="Lato" font-size="16" font-weight="700" font-style="normal" 
 >3</text>
</g>

<g fill="#ffffff" fill-opacity="1" stroke="#000000" stroke-opacity="1" stroke-width="0.62" stroke-linecap="butt" stroke-linejoin="miter" stroke-miterlimit="2" transform="matrix(1,0,0,1,0,0)"
font-family="Lato" font-size="16" font-weight="700" font-style="normal" 
>
<polyline fill="none" vector-effect="none" points="42,300.72 114.458,300.72 " />
<polyline fill="none" vector-effect="none" points="42,330.48 114.458,330.48 " />
<polyline fill="none" vector-effect="none" points="42,308.16 114.458,308.16 " />
<polyline fill="none" vector-effect="none" points="42,315.6 114.458,315.6 " />
<polyline fill="none" vector-effect="none" points="42,323.04 114.458,323.04 " />
</g>

<g fill="#ffffff" fill-opacity="1" stroke="#000000" stroke-opacity="1" stroke-width="0.992" stroke-linecap="butt" stroke-linejoin="miter" stroke-miterlimit="2" transform="matrix(1,0,0,1,0,0)"
font-family="Lato" font-size="16" font-weight="700" font-style="normal" 
>
<polyline fill="none" vector-effect="none" points="109.002,300.41 109.002,330.79 " />
</g>

<g fill="#ffffff" fill-opacity="1" stroke="#000000" stroke-opacity="1" stroke-width="2.48" stroke-linecap="butt" stroke-linejoin="miter" stroke-miterlimit="2" transform="matrix(1,0,0,1,0,0)"
font-family="Lato" font-size="16" font-weight="700" font-style="normal" 
>
<polyline fill="none" vector-effect="none" points="113.218,300.41 113.218,330.79 " />
</g>

<g fill="#ffffff" fill-opacity="1" stroke="#000000" stroke-opacity="1" stroke-width="1" stroke-linecap="square" stroke-linejoin="bevel" transform="matrix(0.5,0,0,0.5,44.5347,315.6)"
font-family="Bravura" font-size="40" font-weight="400" font-style="normal" 
>
</g>

<g fill="#000000" fill-opacity="1" stroke="none" transform="matrix(0.5,0,0,0.5,44.5347,315.6)"
font-family="Bravura" font-size="40" font-weight="400" font-style="normal" 
>
<path vector-effect="none" fill-rule="nonzero" d="M5.04,1.44 L8.12,-7.12 L11.04,1.44 L5.04,1.44 M11.88,16.2 C11.88,18.12 10.8,19.2 8.12,19.2 L3.48,19.2 L3.48,13.2 L8.12,13.2 C10.8,13.2 11.88,14.28 11.88,16.2 M12.72,24.56 C12.72,26.36 11.6,27.8 9.36,27.8 L3.48,27.8 L3.48,21.32 L9.36,21.32 C11.6,21.32 12.72,22.72 12.72,24.56 M9.72,-9.68 L6.6,-9.68 L-0.12,9.12 L2.44,9.12 L4.44,3.48 L11.68,3.48 L13.64,9.12 L16.32,9.12 L9.72,-9.68 M15.48,-30.56 L0.72,-30.56 L0.72,-28.44 L6.92,-28.44 L6.92,-11.72 L9.32,-11.72 L9.32,-28.44 L15.48,-28.44 L15.48,-30.56 M15.12,24.52 C15.12,22.28 14.08,20.88 11.68,19.96 C13.4,19.16 14.28,17.76 14.28,15.88 C14.28,13.12 12.28,11.08 8.72,11.08 L1.08,11.08 L1.08,29.92 L9.56,29.92 C12.96,29.92 15.12,27.64 15.12,24.52 "/>
</g>

<g fill="#ffffff" fill-opacity="1" stroke="#000000" stroke-opacity="1" stroke-width="1" stroke-linecap="square" stroke-linejoin="bevel" transform="matrix(0.5,0,0,0.5,44.5347,315.6)"
font-family="Bravura" font-size="40" font-weight="400" font-style="normal" 
>
<text fill="#000000" fill-opacity="1" stroke="none" xml:space="preserve" x="0" y="0" font-family="Segoe UI" font-size="12" font-weight="400" font-style="normal" 
 ></text>
</g>

<g fill="#ffffff" fill-opacity="1" stroke="#000000" stroke-opacity="1" stroke-width="1" stroke-linecap="square" stroke-linejoin="bevel" transform="matrix(0.5,0,0,0.5,104.026,311.88)"
font-family="Bravura" font-size="40" font-weight="400" font-style="normal" 
>
</g>

<g fill="#000000" fill-opacity="1" stroke="none" transform="matrix(0.5,0,0,0.5,104.026,311.88)"
font-family="Bravura" font-size="40" font-weight="400" font-style="normal" 
>
<path vector-effect="none" fill-rule="nonzero" d="M2,-2 C0.88,-2 0,-1.12 0,0 C0,1.12 0.88,2 2,2 C3.08,2 4,1.12 4,0 C4,-1.12 3.08,-2 2,-2 "/>
</g>

<g fill="#ffffff" fill-opacity="1" stroke="#000000" stroke-opacity="1" stroke-width="1" stroke-linecap="square" stroke-linejoin="bevel" transform="matrix(0.5,0,0,0.5,104.026,311.88)"
font-family="Bravura" font-size="40" font-weight="400" font-style="normal" 
>
<text fill="#000000" fill-opacity="1" stroke="none" xml:space="preserve" x="0" y="0" font-family="Segoe UI" font-size="12" font-weight="400" font-style="normal" 
 ></text>
</g>

<g fill="#ffffff" fill-opacity="1" stroke="#000000" stroke-opacity="1" stroke-width="1" stroke-linecap="square" stroke-linejoin="bevel" transform="matrix(0.5,0,0,0.5,104.026,319.32)"
font-family="Bravura" font-size="40" font-weight="400" font-style="normal" 
>
</g>

<g fill="#000000" fill-opacity="1" stroke="none" transform="matrix(0.5,0,0,0.5,104.026,319.32)"
font-family="Bravura" font-size="40" font-weight="400" font-style="normal" 
>
<path vector-effect="none" fill-rule="nonzero" d="M2,-2 C0.88,-2 0,-1.12 0,0 C0,1.12 0.88,2 2,2 C3.08,2 4,1.12 4,0 C4,-1.12 3.08,-2 2,-2 "/>
</g>

<g fill="#ffffff" fill-opacity="1" stroke="#000000" stroke-opacity="1" stroke-width="1" stroke-linecap="square" stroke-linejoin="bevel" transform="matrix(0.5,0,0,0.5,104.026,319.32)"
font-family="Bravura" font-size="40" font-weight="400" font-style="normal" 
>
<text fill="#000000" fill-opacity="1" stroke="none" xml:space="preserve" x="0" y="0" font-family="Segoe UI" font-size="12" font-weight="400" font-style="normal" 
 ></text>
</g>

<g fill="#ffffff" fill-opacity="1" stroke="none" transform="matrix(1,0,0,1,0,0)"
font-family="Bravura" font-size="40" font-weight="400" font-style="normal" 
>
<rect x="63.4588" y="320.087" width="5.03437" height="5.90625"/>
</g>

<g fill="none" stroke="none" transform="matrix(1,0,0,1,0,0)"
font-family="Bravura" font-size="40" font-weight="400" font-style="normal" 
>
<path vector-effect="none" fill-rule="evenodd" d="M63.4588,320.087 L68.4931,320.087 L68.4931,325.993 L63.4588,325.993 L63.4588,320.087"/>
</g>

<g fill="#ffffff" fill-opacity="1" stroke="#000000" stroke-opacity="1" stroke-width="1" stroke-linecap="square" stroke-linejoin="bevel" transform="matrix(0.5,0,0,0.5,63.6634,325.931)"
font-family="Lato" font-size="16" font-weight="700" font-style="normal" 
>
<text fill="#000000" fill-opacity="1" stroke="none" xml:space="preserve" x="0" y="0" font-family="Lato" font-size="16" font-weight="700" font-style="normal" 
 >0</text>
</g>

<g fill="#ffffff" fill-opacity="1" stroke="#000000" stroke-opacity="1" stroke-width="2" stroke-linecap="butt" stroke-linejoin="miter" stroke-miterlimit="2" transform="matrix(1,0,0,1,0,0)"
font-family="Lato" font-size="16" font-weight="700" font-style="normal" 
>
</g>

<g fill="#ffffff" fill-opacity="1" stroke="#000000" stroke-opacity="1" stroke-width="2" stroke-linecap="butt" stroke-linejoin="miter" stroke-miterlimit="2" transform="matrix(0.5,0,0,0.5,42,47.5)"
font-family="Lato" font-size="16" font-weight="700" font-style="normal" 
>
</g>

<g fill="#ffffff" fill-opacity="1" stroke="#000000" stroke-opacity="1" stroke-width="2" stroke-linecap="butt" stroke-linejoin="miter" stroke-miterlimit="2" transform="matrix(0.5,0,0,0.5,42,47.5)"
font-family="Lato" font-size="16" font-weight="700" font-style="normal" 
>
</g>

<g fill="#ffffff" fill-opacity="1" stroke="#000000" stroke-opacity="1" stroke-width="1" stroke-linecap="square" stroke-linejoin="bevel" transform="matrix(0.5,0,0,0.5,42,47.5)"
font-family="Lato" font-size="16" font-weight="700" font-style="normal" 
>
<text fill="#000000" fill-opacity="1" stroke="none" xml:space="preserve" x="413.953" y="39.2031" font-family="Academico" font-size="40" font-weight="400" font-style="normal" 
 >Darlin’ Cory</text>
</g>

<g fill="#ffffff" fill-opacity="1" stroke="#000000" stroke-opacity="1" stroke-width="2" stroke-linecap="butt" stroke-linejoin="miter" stroke-miterlimit="2" transform="matrix(0.5,0,0,0.5,42,47.5)"
font-family="Lato" font-size="16" font-weight="700" font-style="normal" 
>
</g>

<g fill="#ffffff" fill-opacity="1" stroke="#000000" stroke-opacity="1" stroke-width="2" stroke-linecap="butt" stroke-linejoin="miter" stroke-miterlimit="2" transform="matrix(1,0,0,1,0,0)"
font-family="Lato" font-size="16" font-weight="700" font-style="normal" 
>
</g>

<g fill="#ffffff" fill-opacity="1" stroke="#000000" stroke-opacity="1" stroke-width="2" stroke-linecap="butt" stroke-linejoin="miter" stroke-miterlimit="2" transform="matrix(0.5,0,0,0.5,42,740)"
font-family="Lato" font-size="16" font-weight="700" font-style="normal" 
>
</g>

<g fill="#ffffff" fill-opacity="1" stroke="#000000" stroke-opacity="1" stroke-width="2" stroke-linecap="butt" stroke-linejoin="miter" stroke-miterlimit="2" transform="matrix(0.5,0,0,0.5,42,740)"
font-family="Lato" font-size="16" font-weight="700" font-style="normal" 
>
</g>

<g fill="#ffffff" fill-opacity="1" stroke="#000000" stroke-opacity="1" stroke-width="1" stroke-linecap="square" stroke-linejoin="bevel" transform="matrix(0.5,0,0,0.5,42,740)"
font-family="Lato" font-size="16" font-weight="700" font-style="normal" 
>
<text fill="#000000" fill-opacity="1" stroke="none" xml:space="preserve" x="452.219" y="15.6875" font-family="Academico" font-size="16" font-weight="400" font-style="normal" 
 >https://axe.pics/banjo</text>
</g>

<g fill="#ffffff" fill-opacity="1" stroke="#000000" stroke-opacity="1" stroke-width="2" stroke-linecap="butt" stroke-linejoin="miter" stroke-miterlimit="2" transform="matrix(0.5,0,0,0.5,42,740)"
font-family="Lato" font-size="16" font-weight="700" font-style="normal" 
>
</g>

<g fill="#ffffff" fill-opacity="1" stroke="#000000" stroke-opacity="1" stroke-width="2" stroke-linecap="butt" stroke-linejoin="miter" stroke-miterlimit="2" transform="matrix(1,0,0,1,0,0)"
font-family="Lato" font-size="16" font-weight="700" font-style="normal" 
>
</g>

<g fill="#ffffff" fill-opacity="1" stroke="#000000" stroke-opacity="1" stroke-width="2" stroke-linecap="butt" stroke-linejoin="miter" stroke-miterlimit="2" transform="matrix(0.5,0,0,0.5,42,83.75)"
font-family="Lato" font-size="16" font-weight="700" font-style="normal" 
>
</g>

<g fill="#ffffff" fill-opacity="1" stroke="#000000" stroke-opacity="1" stroke-width="2" stroke-linecap="butt" stroke-linejoin="miter" stroke-miterlimit="2" transform="matrix(0.5,0,0,0.5,42,83.75)"
font-family="Lato" font-size="16" font-weight="700" font-style="normal" 
>
</g>

<g fill="#ffffff" fill-opacity="1" stroke="#000000" stroke-opacity="1" stroke-width="1" stroke-linecap="square" stroke-linejoin="bevel" transform="matrix(0.5,0,0,0.5,42,83.75)"
font-family="Lato" font-size="16" font-weight="700" font-style="normal" 
>
<text fill="#000000" fill-opacity="1" stroke="none" xml:space="preserve" x="0" y="19.5938" font-family="Academico" font-size="20" font-weight="400" font-style="normal" 
 >Double C (gCGCD)</text>
</g>

<g fill="#ffffff" fill-opacity="1" stroke="#000000" stroke-opacity="1" stroke-width="2" stroke-linecap="butt" stroke-linejoin="miter" stroke-miterlimit="2" transform="matrix(0.5,0,0,0.5,42,83.75)"
font-family="Lato" font-size="16" font-weight="700" font-style="normal" 
>
</g>

<g fill="#ffffff" fill-opacity="1" stroke="#000000" stroke-opacity="1" stroke-width="2" stroke-linecap="butt" stroke-linejoin="miter" stroke-miterlimit="2" transform="matrix(1,0,0,1,0,0)"
font-family="Lato" font-size="16" font-weight="700" font-style="normal" 
>
</g>

<g fill="#ffffff" fill-opacity="1" stroke="#000000" stroke-opacity="1" stroke-width="2" stroke-linecap="butt" stroke-linejoin="miter" stroke-miterlimit="2" transform="matrix(0.5,0,0,0.5,315,83.75)"
font-family="Lato" font-size="16" font-weight="700" font-style="normal" 
>
</g>

<g fill="#ffffff" fill-opacity="1" stroke="#000000" stroke-opacity="1" stroke-width="2" stroke-linecap="butt" stroke-linejoin="miter" stroke-miterlimit="2" transform="matrix(0.5,0,0,0.5,315,83.75)"
font-family="Lato" font-size="16" font-weight="700" font-style="normal" 
>
</g>

<g fill="#ffffff" fill-opacity="1" stroke="#000000" stroke-opacity="1" stroke-width="1" stroke-linecap="square" stroke-linejoin="bevel" transform="matrix(0.5,0,0,0.5,315,83.75)"
font-family="Lato" font-size="16" font-weight="700" font-style="normal" 
>
<text fill="#000000" fill-opacity="1" stroke="none" xml:space="preserve" x="407.453" y="19.5938" font-family="Academico" font-size="20" font-weight="400" font-style="normal" 
 >Axe Barbie</text>
</g>

<g fill="#ffffff" fill-opacity="1" stroke="#000000" stroke-opacity="1" stroke-width="2" stroke-linecap="butt" stroke-linejoin="miter" stroke-miterlimit="2" transform="matrix(0.5,0,0,0.5,315,83.75)"
font-family="Lato" font-size="16" font-weight="700" font-style="normal" 
>
</g>

<g fill="#ffffff" fill-opacity="1" stroke="#000000" stroke-opacity="1" stroke-width="2" stroke-linecap="butt" stroke-linejoin="miter" stroke-miterlimit="2" transform="matrix(1,0,0,1,0,0)"
font-family="Lato" font-size="16" font-weight="700" font-style="normal" 
>
</g>
</g>
</svg>
