<?xml version="1.0" encoding="UTF-8" standalone="no"?>
<svg width="161.925mm" height="209.55mm"
 viewBox="0 0 612 792"
 xmlns="http://www.w3.org/2000/svg" xmlns:xlink="http://www.w3.org/1999/xlink" version="1.2" baseProfile="tiny">
<title>Texas Rangers (German War)</title>
<desc>Dorico5</desc>
<defs>
</defs>
<g fill="none" stroke="black" stroke-width="1" fill-rule="evenodd" stroke-linecap="square" stroke-linejoin="bevel" >

<g fill="none" stroke="#000000" stroke-opacity="1" stroke-width="0.62" stroke-linecap="butt" stroke-linejoin="miter" stroke-miterlimit="2" transform="matrix(1,0,0,1,0,0)"
font-family="Segoe UI" font-size="12" font-weight="400" font-style="normal" 
>
<polyline fill="none" vector-effect="none" points="42,142 570,142 " />
<polyline fill="none" vector-effect="none" points="42,171.76 570,171.76 " />
<polyline fill="none" vector-effect="none" points="42,149.44 570,149.44 " />
<polyline fill="none" vector-effect="none" points="42,156.88 570,156.88 " />
<polyline fill="none" vector-effect="none" points="42,164.32 570,164.32 " />
</g>

<g fill="none" stroke="#000000" stroke-opacity="1" stroke-width="0.992" stroke-linecap="butt" stroke-linejoin="miter" stroke-miterlimit="2" transform="matrix(1,0,0,1,0,0)"
font-family="Segoe UI" font-size="12" font-weight="400" font-style="normal" 
>
<polyline fill="none" vector-effect="none" points="171.557,141.69 171.557,172.07 " />
<polyline fill="none" vector-effect="none" points="276.88,141.69 276.88,172.07 " />
<polyline fill="none" vector-effect="none" points="365.579,141.69 365.579,172.07 " />
<polyline fill="none" vector-effect="none" points="470.885,141.69 470.885,172.07 " />
<polyline fill="none" vector-effect="none" points="564.544,141.69 564.544,172.07 " />
</g>

<g fill="none" stroke="#000000" stroke-opacity="1" stroke-width="2.48" stroke-linecap="butt" stroke-linejoin="miter" stroke-miterlimit="2" transform="matrix(1,0,0,1,0,0)"
font-family="Segoe UI" font-size="12" font-weight="400" font-style="normal" 
>
<polyline fill="none" vector-effect="none" points="568.76,141.69 568.76,172.07 " />
<polyline fill="none" vector-effect="none" points="69.9725,141.69 69.9725,172.07 " />
</g>

<g fill="none" stroke="#000000" stroke-opacity="1" stroke-width="0.992" stroke-linecap="butt" stroke-linejoin="miter" stroke-miterlimit="2" transform="matrix(1,0,0,1,0,0)"
font-family="Segoe UI" font-size="12" font-weight="400" font-style="normal" 
>
<polyline fill="none" vector-effect="none" points="74.1885,141.69 74.1885,172.07 " />
</g>

<g fill="none" stroke="#000000" stroke-opacity="1" stroke-width="1" stroke-linecap="square" stroke-linejoin="bevel" transform="matrix(0.5,0,0,0.5,44.5347,156.88)"
font-family="Bravura" font-size="40" font-weight="400" font-style="normal" 
>
</g>

<g fill="#000000" fill-opacity="1" stroke="none" transform="matrix(0.5,0,0,0.5,44.5347,156.88)"
font-family="Bravura" font-size="40" font-weight="400" font-style="normal" 
>
<path vector-effect="none" fill-rule="nonzero" d="M5.04,1.44 L8.12,-7.12 L11.04,1.44 L5.04,1.44 M11.88,16.2 C11.88,18.12 10.8,19.2 8.12,19.2 L3.48,19.2 L3.48,13.2 L8.12,13.2 C10.8,13.2 11.88,14.28 11.88,16.2 M12.72,24.56 C12.72,26.36 11.6,27.8 9.36,27.8 L3.48,27.8 L3.48,21.32 L9.36,21.32 C11.6,21.32 12.72,22.72 12.72,24.56 M9.72,-9.68 L6.6,-9.68 L-0.12,9.12 L2.44,9.12 L4.44,3.48 L11.68,3.48 L13.64,9.12 L16.32,9.12 L9.72,-9.68 M15.48,-30.56 L0.72,-30.56 L0.72,-28.44 L6.92,-28.44 L6.92,-11.72 L9.32,-11.72 L9.32,-28.44 L15.48,-28.44 L15.48,-30.56 M15.12,24.52 C15.12,22.28 14.08,20.88 11.68,19.96 C13.4,19.16 14.28,17.76 14.28,15.88 C14.28,13.12 12.28,11.08 8.72,11.08 L1.08,11.08 L1.08,29.92 L9.56,29.92 C12.96,29.92 15.12,27.64 15.12,24.52 "/>
</g>

<g fill="none" stroke="#000000" stroke-opacity="1" stroke-width="1" stroke-linecap="square" stroke-linejoin="bevel" transform="matrix(0.5,0,0,0.5,44.5347,156.88)"
font-family="Bravura" font-size="40" font-weight="400" font-style="normal" 
>
<text fill="#000000" fill-opacity="1" stroke="none" xml:space="preserve" x="0" y="0" font-family="Segoe UI" font-size="12" font-weight="400" font-style="normal" 
 ></text>
</g>

<g fill="none" stroke="#000000" stroke-opacity="1" stroke-width="1" stroke-linecap="square" stroke-linejoin="bevel" transform="matrix(0.5,0,0,0.5,559.568,153.16)"
font-family="Bravura" font-size="40" font-weight="400" font-style="normal" 
>
</g>

<g fill="#000000" fill-opacity="1" stroke="none" transform="matrix(0.5,0,0,0.5,559.568,153.16)"
font-family="Bravura" font-size="40" font-weight="400" font-style="normal" 
>
<path vector-effect="none" fill-rule="nonzero" d="M2,-2 C0.88,-2 0,-1.12 0,0 C0,1.12 0.88,2 2,2 C3.08,2 4,1.12 4,0 C4,-1.12 3.08,-2 2,-2 "/>
</g>

<g fill="none" stroke="#000000" stroke-opacity="1" stroke-width="1" stroke-linecap="square" stroke-linejoin="bevel" transform="matrix(0.5,0,0,0.5,559.568,153.16)"
font-family="Bravura" font-size="40" font-weight="400" font-style="normal" 
>
<text fill="#000000" fill-opacity="1" stroke="none" xml:space="preserve" x="0" y="0" font-family="Segoe UI" font-size="12" font-weight="400" font-style="normal" 
 ></text>
</g>

<g fill="none" stroke="#000000" stroke-opacity="1" stroke-width="1" stroke-linecap="square" stroke-linejoin="bevel" transform="matrix(0.5,0,0,0.5,559.568,160.6)"
font-family="Bravura" font-size="40" font-weight="400" font-style="normal" 
>
</g>

<g fill="#000000" fill-opacity="1" stroke="none" transform="matrix(0.5,0,0,0.5,559.568,160.6)"
font-family="Bravura" font-size="40" font-weight="400" font-style="normal" 
>
<path vector-effect="none" fill-rule="nonzero" d="M2,-2 C0.88,-2 0,-1.12 0,0 C0,1.12 0.88,2 2,2 C3.08,2 4,1.12 4,0 C4,-1.12 3.08,-2 2,-2 "/>
</g>

<g fill="none" stroke="#000000" stroke-opacity="1" stroke-width="1" stroke-linecap="square" stroke-linejoin="bevel" transform="matrix(0.5,0,0,0.5,559.568,160.6)"
font-family="Bravura" font-size="40" font-weight="400" font-style="normal" 
>
<text fill="#000000" fill-opacity="1" stroke="none" xml:space="preserve" x="0" y="0" font-family="Segoe UI" font-size="12" font-weight="400" font-style="normal" 
 ></text>
</g>

<g fill="none" stroke="#000000" stroke-opacity="1" stroke-width="1" stroke-linecap="square" stroke-linejoin="bevel" transform="matrix(0.5,0,0,0.5,77.1645,153.16)"
font-family="Bravura" font-size="40" font-weight="400" font-style="normal" 
>
</g>

<g fill="#000000" fill-opacity="1" stroke="none" transform="matrix(0.5,0,0,0.5,77.1645,153.16)"
font-family="Bravura" font-size="40" font-weight="400" font-style="normal" 
>
<path vector-effect="none" fill-rule="nonzero" d="M2,-2 C0.88,-2 0,-1.12 0,0 C0,1.12 0.88,2 2,2 C3.08,2 4,1.12 4,0 C4,-1.12 3.08,-2 2,-2 "/>
</g>

<g fill="none" stroke="#000000" stroke-opacity="1" stroke-width="1" stroke-linecap="square" stroke-linejoin="bevel" transform="matrix(0.5,0,0,0.5,77.1645,153.16)"
font-family="Bravura" font-size="40" font-weight="400" font-style="normal" 
>
<text fill="#000000" fill-opacity="1" stroke="none" xml:space="preserve" x="0" y="0" font-family="Segoe UI" font-size="12" font-weight="400" font-style="normal" 
 ></text>
</g>

<g fill="none" stroke="#000000" stroke-opacity="1" stroke-width="1" stroke-linecap="square" stroke-linejoin="bevel" transform="matrix(0.5,0,0,0.5,77.1645,160.6)"
font-family="Bravura" font-size="40" font-weight="400" font-style="normal" 
>
</g>

<g fill="#000000" fill-opacity="1" stroke="none" transform="matrix(0.5,0,0,0.5,77.1645,160.6)"
font-family="Bravura" font-size="40" font-weight="400" font-style="normal" 
>
<path vector-effect="none" fill-rule="nonzero" d="M2,-2 C0.88,-2 0,-1.12 0,0 C0,1.12 0.88,2 2,2 C3.08,2 4,1.12 4,0 C4,-1.12 3.08,-2 2,-2 "/>
</g>

<g fill="none" stroke="#000000" stroke-opacity="1" stroke-width="1" stroke-linecap="square" stroke-linejoin="bevel" transform="matrix(0.5,0,0,0.5,77.1645,160.6)"
font-family="Bravura" font-size="40" font-weight="400" font-style="normal" 
>
<text fill="#000000" fill-opacity="1" stroke="none" xml:space="preserve" x="0" y="0" font-family="Segoe UI" font-size="12" font-weight="400" font-style="normal" 
 ></text>
</g>

<g fill="none" stroke="#000000" stroke-opacity="1" stroke-width="1" stroke-linecap="square" stroke-linejoin="bevel" transform="matrix(0.5,0,0,0.5,57.2603,151.88)"
font-family="Bravura" font-size="40" font-weight="400" font-style="normal" 
>
<text fill="#000000" fill-opacity="1" stroke="none" xml:space="preserve" x="0" y="0" font-family="Bravura" font-size="40" font-weight="400" font-style="normal" 
 ></text>
</g>

<g fill="none" stroke="#000000" stroke-opacity="1" stroke-width="1" stroke-linecap="square" stroke-linejoin="bevel" transform="matrix(0.5,0,0,0.5,57.2603,161.896)"
font-family="Bravura" font-size="40" font-weight="400" font-style="normal" 
>
<text fill="#000000" fill-opacity="1" stroke="none" xml:space="preserve" x="0" y="0" font-family="Bravura" font-size="40" font-weight="400" font-style="normal" 
 ></text>
</g>

<g fill="#ffffff" fill-opacity="1" stroke="none" transform="matrix(1,0,0,1,0,0)"
font-family="Bravura" font-size="40" font-weight="400" font-style="normal" 
>
<rect x="90.4045" y="161.367" width="4.8" height="5.90625"/>
</g>

<g fill="none" stroke="none" transform="matrix(1,0,0,1,0,0)"
font-family="Bravura" font-size="40" font-weight="400" font-style="normal" 
>
<path vector-effect="none" fill-rule="evenodd" d="M90.4045,161.367 L95.2045,161.367 L95.2045,167.273 L90.4045,167.273 L90.4045,161.367"/>
</g>

<g fill="#ffffff" fill-opacity="1" stroke="none" transform="matrix(1,0,0,1,0,0)"
font-family="Bravura" font-size="40" font-weight="400" font-style="normal" 
>
<rect x="130.533" y="161.367" width="5.03438" height="5.90625"/>
</g>

<g fill="none" stroke="none" transform="matrix(1,0,0,1,0,0)"
font-family="Bravura" font-size="40" font-weight="400" font-style="normal" 
>
<path vector-effect="none" fill-rule="evenodd" d="M130.533,161.367 L135.567,161.367 L135.567,167.273 L130.533,167.273 L130.533,161.367"/>
</g>

<g fill="#ffffff" fill-opacity="1" stroke="none" transform="matrix(1,0,0,1,0,0)"
font-family="Bravura" font-size="40" font-weight="400" font-style="normal" 
>
<rect x="179.103" y="161.367" width="4.8" height="5.90625"/>
</g>

<g fill="none" stroke="none" transform="matrix(1,0,0,1,0,0)"
font-family="Bravura" font-size="40" font-weight="400" font-style="normal" 
>
<path vector-effect="none" fill-rule="evenodd" d="M179.103,161.367 L183.903,161.367 L183.903,167.273 L179.103,167.273 L179.103,161.367"/>
</g>

<g fill="#ffffff" fill-opacity="1" stroke="none" transform="matrix(1,0,0,1,0,0)"
font-family="Bravura" font-size="40" font-weight="400" font-style="normal" 
>
<rect x="207.479" y="153.927" width="5.03438" height="5.90625"/>
</g>

<g fill="none" stroke="none" transform="matrix(1,0,0,1,0,0)"
font-family="Bravura" font-size="40" font-weight="400" font-style="normal" 
>
<path vector-effect="none" fill-rule="evenodd" d="M207.479,153.927 L212.514,153.927 L212.514,159.833 L207.479,159.833 L207.479,153.927"/>
</g>

<g fill="#ffffff" fill-opacity="1" stroke="none" transform="matrix(1,0,0,1,0,0)"
font-family="Bravura" font-size="40" font-weight="400" font-style="normal" 
>
<rect x="235.855" y="153.927" width="4.8" height="5.90625"/>
</g>

<g fill="none" stroke="none" transform="matrix(1,0,0,1,0,0)"
font-family="Bravura" font-size="40" font-weight="400" font-style="normal" 
>
<path vector-effect="none" fill-rule="evenodd" d="M235.855,153.927 L240.655,153.927 L240.655,159.833 L235.855,159.833 L235.855,153.927"/>
</g>

<g fill="#ffffff" fill-opacity="1" stroke="none" transform="matrix(1,0,0,1,0,0)"
font-family="Bravura" font-size="40" font-weight="400" font-style="normal" 
>
<rect x="284.426" y="153.927" width="5.03437" height="5.90625"/>
</g>

<g fill="none" stroke="none" transform="matrix(1,0,0,1,0,0)"
font-family="Bravura" font-size="40" font-weight="400" font-style="normal" 
>
<path vector-effect="none" fill-rule="evenodd" d="M284.426,153.927 L289.46,153.927 L289.46,159.833 L284.426,159.833 L284.426,153.927"/>
</g>

<g fill="#ffffff" fill-opacity="1" stroke="none" transform="matrix(1,0,0,1,0,0)"
font-family="Bravura" font-size="40" font-weight="400" font-style="normal" 
>
<rect x="324.554" y="153.927" width="4.8" height="5.90625"/>
</g>

<g fill="none" stroke="none" transform="matrix(1,0,0,1,0,0)"
font-family="Bravura" font-size="40" font-weight="400" font-style="normal" 
>
<path vector-effect="none" fill-rule="evenodd" d="M324.554,153.927 L329.354,153.927 L329.354,159.833 L324.554,159.833 L324.554,153.927"/>
</g>

<g fill="#ffffff" fill-opacity="1" stroke="none" transform="matrix(1,0,0,1,0,0)"
font-family="Bravura" font-size="40" font-weight="400" font-style="normal" 
>
<rect x="373.125" y="146.487" width="5.03437" height="5.90625"/>
</g>

<g fill="none" stroke="none" transform="matrix(1,0,0,1,0,0)"
font-family="Bravura" font-size="40" font-weight="400" font-style="normal" 
>
<path vector-effect="none" fill-rule="evenodd" d="M373.125,146.487 L378.159,146.487 L378.159,152.393 L373.125,152.393 L373.125,146.487"/>
</g>

<g fill="#ffffff" fill-opacity="1" stroke="none" transform="matrix(1,0,0,1,0,0)"
font-family="Bravura" font-size="40" font-weight="400" font-style="normal" 
>
<rect x="413.237" y="153.927" width="4.8" height="5.90625"/>
</g>

<g fill="none" stroke="none" transform="matrix(1,0,0,1,0,0)"
font-family="Bravura" font-size="40" font-weight="400" font-style="normal" 
>
<path vector-effect="none" fill-rule="evenodd" d="M413.237,153.927 L418.037,153.927 L418.037,159.833 L413.237,159.833 L413.237,153.927"/>
</g>

<g fill="#ffffff" fill-opacity="1" stroke="none" transform="matrix(1,0,0,1,0,0)"
font-family="Bravura" font-size="40" font-weight="400" font-style="normal" 
>
<rect x="441.613" y="153.927" width="5.03437" height="5.90625"/>
</g>

<g fill="none" stroke="none" transform="matrix(1,0,0,1,0,0)"
font-family="Bravura" font-size="40" font-weight="400" font-style="normal" 
>
<path vector-effect="none" fill-rule="evenodd" d="M441.613,153.927 L446.648,153.927 L446.648,159.833 L441.613,159.833 L441.613,153.927"/>
</g>

<g fill="#ffffff" fill-opacity="1" stroke="none" transform="matrix(1,0,0,1,0,0)"
font-family="Bravura" font-size="40" font-weight="400" font-style="normal" 
>
<rect x="478.431" y="161.367" width="4.8" height="5.90625"/>
</g>

<g fill="none" stroke="none" transform="matrix(1,0,0,1,0,0)"
font-family="Bravura" font-size="40" font-weight="400" font-style="normal" 
>
<path vector-effect="none" fill-rule="evenodd" d="M478.431,161.367 L483.231,161.367 L483.231,167.273 L478.431,167.273 L478.431,161.367"/>
</g>

<g fill="#ffffff" fill-opacity="1" stroke="none" transform="matrix(1,0,0,1,0,0)"
font-family="Bravura" font-size="40" font-weight="400" font-style="normal" 
>
<rect x="518.56" y="161.367" width="5.03437" height="5.90625"/>
</g>

<g fill="none" stroke="none" transform="matrix(1,0,0,1,0,0)"
font-family="Bravura" font-size="40" font-weight="400" font-style="normal" 
>
<path vector-effect="none" fill-rule="evenodd" d="M518.56,161.367 L523.594,161.367 L523.594,167.273 L518.56,167.273 L518.56,161.367"/>
</g>

<g fill="#ffffff" fill-opacity="1" stroke="#000000" stroke-opacity="1" stroke-width="1" stroke-linecap="square" stroke-linejoin="bevel" transform="matrix(0.5,0,0,0.5,90.5467,167.211)"
font-family="Lato" font-size="16" font-weight="700" font-style="normal" 
>
<text fill="#000000" fill-opacity="1" stroke="none" xml:space="preserve" x="0" y="0" font-family="Lato" font-size="16" font-weight="700" font-style="normal" 
 >3</text>
</g>

<g fill="#ffffff" fill-opacity="1" stroke="#000000" stroke-opacity="1" stroke-width="1" stroke-linecap="square" stroke-linejoin="bevel" transform="matrix(0.5,0,0,0.5,130.738,167.211)"
font-family="Lato" font-size="16" font-weight="700" font-style="normal" 
>
<text fill="#000000" fill-opacity="1" stroke="none" xml:space="preserve" x="0" y="0" font-family="Lato" font-size="16" font-weight="700" font-style="normal" 
 >0</text>
</g>

<g fill="#ffffff" fill-opacity="1" stroke="#000000" stroke-opacity="1" stroke-width="1" stroke-linecap="square" stroke-linejoin="bevel" transform="matrix(0.5,0,0,0.5,179.246,167.211)"
font-family="Lato" font-size="16" font-weight="700" font-style="normal" 
>
<text fill="#000000" fill-opacity="1" stroke="none" xml:space="preserve" x="0" y="0" font-family="Lato" font-size="16" font-weight="700" font-style="normal" 
 >3</text>
</g>

<g fill="#ffffff" fill-opacity="1" stroke="#000000" stroke-opacity="1" stroke-width="1" stroke-linecap="square" stroke-linejoin="bevel" transform="matrix(0.5,0,0,0.5,207.684,159.771)"
font-family="Lato" font-size="16" font-weight="700" font-style="normal" 
>
<text fill="#000000" fill-opacity="1" stroke="none" xml:space="preserve" x="0" y="0" font-family="Lato" font-size="16" font-weight="700" font-style="normal" 
 >0</text>
</g>

<g fill="#ffffff" fill-opacity="1" stroke="#000000" stroke-opacity="1" stroke-width="1" stroke-linecap="square" stroke-linejoin="bevel" transform="matrix(0.5,0,0,0.5,235.997,159.771)"
font-family="Lato" font-size="16" font-weight="700" font-style="normal" 
>
<text fill="#000000" fill-opacity="1" stroke="none" xml:space="preserve" x="0" y="0" font-family="Lato" font-size="16" font-weight="700" font-style="normal" 
 >3</text>
</g>

<g fill="#ffffff" fill-opacity="1" stroke="#000000" stroke-opacity="1" stroke-width="1" stroke-linecap="square" stroke-linejoin="bevel" transform="matrix(0.5,0,0,0.5,284.63,159.771)"
font-family="Lato" font-size="16" font-weight="700" font-style="normal" 
>
<text fill="#000000" fill-opacity="1" stroke="none" xml:space="preserve" x="0" y="0" font-family="Lato" font-size="16" font-weight="700" font-style="normal" 
 >0</text>
</g>

<g fill="#ffffff" fill-opacity="1" stroke="#000000" stroke-opacity="1" stroke-width="1" stroke-linecap="square" stroke-linejoin="bevel" transform="matrix(0.5,0,0,0.5,324.696,159.771)"
font-family="Lato" font-size="16" font-weight="700" font-style="normal" 
>
<text fill="#000000" fill-opacity="1" stroke="none" xml:space="preserve" x="0" y="0" font-family="Lato" font-size="16" font-weight="700" font-style="normal" 
 >3</text>
</g>

<g fill="#ffffff" fill-opacity="1" stroke="#000000" stroke-opacity="1" stroke-width="1" stroke-linecap="square" stroke-linejoin="bevel" transform="matrix(0.5,0,0,0.5,373.329,152.331)"
font-family="Lato" font-size="16" font-weight="700" font-style="normal" 
>
<text fill="#000000" fill-opacity="1" stroke="none" xml:space="preserve" x="0" y="0" font-family="Lato" font-size="16" font-weight="700" font-style="normal" 
 >0</text>
</g>

<g fill="#ffffff" fill-opacity="1" stroke="#000000" stroke-opacity="1" stroke-width="1" stroke-linecap="square" stroke-linejoin="bevel" transform="matrix(0.5,0,0,0.5,413.38,159.771)"
font-family="Lato" font-size="16" font-weight="700" font-style="normal" 
>
<text fill="#000000" fill-opacity="1" stroke="none" xml:space="preserve" x="0" y="0" font-family="Lato" font-size="16" font-weight="700" font-style="normal" 
 >3</text>
</g>

<g fill="#ffffff" fill-opacity="1" stroke="#000000" stroke-opacity="1" stroke-width="1" stroke-linecap="square" stroke-linejoin="bevel" transform="matrix(0.5,0,0,0.5,441.818,159.771)"
font-family="Lato" font-size="16" font-weight="700" font-style="normal" 
>
<text fill="#000000" fill-opacity="1" stroke="none" xml:space="preserve" x="0" y="0" font-family="Lato" font-size="16" font-weight="700" font-style="normal" 
 >0</text>
</g>

<g fill="#ffffff" fill-opacity="1" stroke="#000000" stroke-opacity="1" stroke-width="1" stroke-linecap="square" stroke-linejoin="bevel" transform="matrix(0.5,0,0,0.5,478.573,167.211)"
font-family="Lato" font-size="16" font-weight="700" font-style="normal" 
>
<text fill="#000000" fill-opacity="1" stroke="none" xml:space="preserve" x="0" y="0" font-family="Lato" font-size="16" font-weight="700" font-style="normal" 
 >3</text>
</g>

<g fill="#ffffff" fill-opacity="1" stroke="#000000" stroke-opacity="1" stroke-width="1" stroke-linecap="square" stroke-linejoin="bevel" transform="matrix(0.5,0,0,0.5,518.764,167.211)"
font-family="Lato" font-size="16" font-weight="700" font-style="normal" 
>
<text fill="#000000" fill-opacity="1" stroke="none" xml:space="preserve" x="0" y="0" font-family="Lato" font-size="16" font-weight="700" font-style="normal" 
 >0</text>
</g>

<g fill="#ffffff" fill-opacity="1" stroke="#000000" stroke-opacity="1" stroke-width="0.62" stroke-linecap="butt" stroke-linejoin="miter" stroke-miterlimit="2" transform="matrix(1,0,0,1,0,0)"
font-family="Lato" font-size="16" font-weight="700" font-style="normal" 
>
<polyline fill="none" vector-effect="none" points="42,221.36 570,221.36 " />
<polyline fill="none" vector-effect="none" points="42,251.12 570,251.12 " />
<polyline fill="none" vector-effect="none" points="42,228.8 570,228.8 " />
<polyline fill="none" vector-effect="none" points="42,236.24 570,236.24 " />
<polyline fill="none" vector-effect="none" points="42,243.68 570,243.68 " />
</g>

<g fill="#ffffff" fill-opacity="1" stroke="#000000" stroke-opacity="1" stroke-width="0.992" stroke-linecap="butt" stroke-linejoin="miter" stroke-miterlimit="2" transform="matrix(1,0,0,1,0,0)"
font-family="Lato" font-size="16" font-weight="700" font-style="normal" 
>
<polyline fill="none" vector-effect="none" points="178.193,221.05 178.193,251.43 " />
<polyline fill="none" vector-effect="none" points="264.394,221.05 264.394,251.43 " />
<polyline fill="none" vector-effect="none" points="353.329,221.05 353.329,251.43 " />
<polyline fill="none" vector-effect="none" points="475.609,221.05 475.609,251.43 " />
<polyline fill="none" vector-effect="none" points="564.544,221.05 564.544,251.43 " />
</g>

<g fill="#ffffff" fill-opacity="1" stroke="#000000" stroke-opacity="1" stroke-width="2.48" stroke-linecap="butt" stroke-linejoin="miter" stroke-miterlimit="2" transform="matrix(1,0,0,1,0,0)"
font-family="Lato" font-size="16" font-weight="700" font-style="normal" 
>
<polyline fill="none" vector-effect="none" points="568.76,221.05 568.76,251.43 " />
</g>

<g fill="#ffffff" fill-opacity="1" stroke="#000000" stroke-opacity="1" stroke-width="1" stroke-linecap="square" stroke-linejoin="bevel" transform="matrix(0.5,0,0,0.5,44.5347,236.24)"
font-family="Bravura" font-size="40" font-weight="400" font-style="normal" 
>
</g>

<g fill="#000000" fill-opacity="1" stroke="none" transform="matrix(0.5,0,0,0.5,44.5347,236.24)"
font-family="Bravura" font-size="40" font-weight="400" font-style="normal" 
>
<path vector-effect="none" fill-rule="nonzero" d="M5.04,1.44 L8.12,-7.12 L11.04,1.44 L5.04,1.44 M11.88,16.2 C11.88,18.12 10.8,19.2 8.12,19.2 L3.48,19.2 L3.48,13.2 L8.12,13.2 C10.8,13.2 11.88,14.28 11.88,16.2 M12.72,24.56 C12.72,26.36 11.6,27.8 9.36,27.8 L3.48,27.8 L3.48,21.32 L9.36,21.32 C11.6,21.32 12.72,22.72 12.72,24.56 M9.72,-9.68 L6.6,-9.68 L-0.12,9.12 L2.44,9.12 L4.44,3.48 L11.68,3.48 L13.64,9.12 L16.32,9.12 L9.72,-9.68 M15.48,-30.56 L0.72,-30.56 L0.72,-28.44 L6.92,-28.44 L6.92,-11.72 L9.32,-11.72 L9.32,-28.44 L15.48,-28.44 L15.48,-30.56 M15.12,24.52 C15.12,22.28 14.08,20.88 11.68,19.96 C13.4,19.16 14.28,17.76 14.28,15.88 C14.28,13.12 12.28,11.08 8.72,11.08 L1.08,11.08 L1.08,29.92 L9.56,29.92 C12.96,29.92 15.12,27.64 15.12,24.52 "/>
</g>

<g fill="#ffffff" fill-opacity="1" stroke="#000000" stroke-opacity="1" stroke-width="1" stroke-linecap="square" stroke-linejoin="bevel" transform="matrix(0.5,0,0,0.5,44.5347,236.24)"
font-family="Bravura" font-size="40" font-weight="400" font-style="normal" 
>
<text fill="#000000" fill-opacity="1" stroke="none" xml:space="preserve" x="0" y="0" font-family="Segoe UI" font-size="12" font-weight="400" font-style="normal" 
 ></text>
</g>

<g fill="#ffffff" fill-opacity="1" stroke="none" transform="matrix(1,0,0,1,0,0)"
font-family="Bravura" font-size="40" font-weight="400" font-style="normal" 
>
<rect x="63.4588" y="233.287" width="4.8" height="5.90625"/>
</g>

<g fill="none" stroke="none" transform="matrix(1,0,0,1,0,0)"
font-family="Bravura" font-size="40" font-weight="400" font-style="normal" 
>
<path vector-effect="none" fill-rule="evenodd" d="M63.4588,233.287 L68.2587,233.287 L68.2587,239.193 L63.4588,239.193 L63.4588,233.287"/>
</g>

<g fill="#ffffff" fill-opacity="1" stroke="none" transform="matrix(1,0,0,1,0,0)"
font-family="Bravura" font-size="40" font-weight="400" font-style="normal" 
>
<rect x="91.9182" y="233.287" width="5.03437" height="5.90625"/>
</g>

<g fill="none" stroke="none" transform="matrix(1,0,0,1,0,0)"
font-family="Bravura" font-size="40" font-weight="400" font-style="normal" 
>
<path vector-effect="none" fill-rule="evenodd" d="M91.9182,233.287 L96.9526,233.287 L96.9526,239.193 L91.9182,239.193 L91.9182,233.287"/>
</g>

<g fill="#ffffff" fill-opacity="1" stroke="none" transform="matrix(1,0,0,1,0,0)"
font-family="Bravura" font-size="40" font-weight="400" font-style="normal" 
>
<rect x="120.378" y="233.287" width="4.8" height="5.90625"/>
</g>

<g fill="none" stroke="none" transform="matrix(1,0,0,1,0,0)"
font-family="Bravura" font-size="40" font-weight="400" font-style="normal" 
>
<path vector-effect="none" fill-rule="evenodd" d="M120.378,233.287 L125.178,233.287 L125.178,239.193 L120.378,239.193 L120.378,233.287"/>
</g>

<g fill="#ffffff" fill-opacity="1" stroke="none" transform="matrix(1,0,0,1,0,0)"
font-family="Bravura" font-size="40" font-weight="400" font-style="normal" 
>
<rect x="148.837" y="225.847" width="5.03438" height="5.90625"/>
</g>

<g fill="none" stroke="none" transform="matrix(1,0,0,1,0,0)"
font-family="Bravura" font-size="40" font-weight="400" font-style="normal" 
>
<path vector-effect="none" fill-rule="evenodd" d="M148.837,225.847 L153.871,225.847 L153.871,231.753 L148.837,231.753 L148.837,225.847"/>
</g>

<g fill="#ffffff" fill-opacity="1" stroke="none" transform="matrix(1,0,0,1,0,0)"
font-family="Bravura" font-size="40" font-weight="400" font-style="normal" 
>
<rect x="185.739" y="225.847" width="4.8" height="5.90625"/>
</g>

<g fill="none" stroke="none" transform="matrix(1,0,0,1,0,0)"
font-family="Bravura" font-size="40" font-weight="400" font-style="normal" 
>
<path vector-effect="none" fill-rule="evenodd" d="M185.739,225.847 L190.539,225.847 L190.539,231.753 L185.739,231.753 L185.739,225.847"/>
</g>

<g fill="#ffffff" fill-opacity="1" stroke="none" transform="matrix(1,0,0,1,0,0)"
font-family="Bravura" font-size="40" font-weight="400" font-style="normal" 
>
<rect x="214.198" y="225.847" width="5.03438" height="5.90625"/>
</g>

<g fill="none" stroke="none" transform="matrix(1,0,0,1,0,0)"
font-family="Bravura" font-size="40" font-weight="400" font-style="normal" 
>
<path vector-effect="none" fill-rule="evenodd" d="M214.198,225.847 L219.232,225.847 L219.232,231.753 L214.198,231.753 L214.198,225.847"/>
</g>

<g fill="#ffffff" fill-opacity="1" stroke="none" transform="matrix(1,0,0,1,0,0)"
font-family="Bravura" font-size="40" font-weight="400" font-style="normal" 
>
<rect x="271.94" y="225.847" width="4.8" height="5.90625"/>
</g>

<g fill="none" stroke="none" transform="matrix(1,0,0,1,0,0)"
font-family="Bravura" font-size="40" font-weight="400" font-style="normal" 
>
<path vector-effect="none" fill-rule="evenodd" d="M271.94,225.847 L276.74,225.847 L276.74,231.753 L271.94,231.753 L271.94,225.847"/>
</g>

<g fill="#ffffff" fill-opacity="1" stroke="none" transform="matrix(1,0,0,1,0,0)"
font-family="Bravura" font-size="40" font-weight="400" font-style="normal" 
>
<rect x="312.186" y="225.878" width="4.64375" height="5.84375"/>
</g>

<g fill="none" stroke="none" transform="matrix(1,0,0,1,0,0)"
font-family="Bravura" font-size="40" font-weight="400" font-style="normal" 
>
<path vector-effect="none" fill-rule="evenodd" d="M312.186,225.878 L316.83,225.878 L316.83,231.722 L312.186,231.722 L312.186,225.878"/>
</g>

<g fill="#ffffff" fill-opacity="1" stroke="none" transform="matrix(1,0,0,1,0,0)"
font-family="Bravura" font-size="40" font-weight="400" font-style="normal" 
>
<rect x="360.875" y="225.847" width="4.8" height="5.90625"/>
</g>

<g fill="none" stroke="none" transform="matrix(1,0,0,1,0,0)"
font-family="Bravura" font-size="40" font-weight="400" font-style="normal" 
>
<path vector-effect="none" fill-rule="evenodd" d="M360.875,225.847 L365.675,225.847 L365.675,231.753 L360.875,231.753 L360.875,225.847"/>
</g>

<g fill="#ffffff" fill-opacity="1" stroke="none" transform="matrix(1,0,0,1,0,0)"
font-family="Bravura" font-size="40" font-weight="400" font-style="normal" 
>
<rect x="389.334" y="225.847" width="5.03437" height="5.90625"/>
</g>

<g fill="none" stroke="none" transform="matrix(1,0,0,1,0,0)"
font-family="Bravura" font-size="40" font-weight="400" font-style="normal" 
>
<path vector-effect="none" fill-rule="evenodd" d="M389.334,225.847 L394.369,225.847 L394.369,231.753 L389.334,231.753 L389.334,225.847"/>
</g>

<g fill="#ffffff" fill-opacity="1" stroke="none" transform="matrix(1,0,0,1,0,0)"
font-family="Bravura" font-size="40" font-weight="400" font-style="normal" 
>
<rect x="417.794" y="233.287" width="4.8" height="5.90625"/>
</g>

<g fill="none" stroke="none" transform="matrix(1,0,0,1,0,0)"
font-family="Bravura" font-size="40" font-weight="400" font-style="normal" 
>
<path vector-effect="none" fill-rule="evenodd" d="M417.794,233.287 L422.594,233.287 L422.594,239.193 L417.794,239.193 L417.794,233.287"/>
</g>

<g fill="#ffffff" fill-opacity="1" stroke="none" transform="matrix(1,0,0,1,0,0)"
font-family="Bravura" font-size="40" font-weight="400" font-style="normal" 
>
<rect x="446.253" y="233.287" width="5.03437" height="5.90625"/>
</g>

<g fill="none" stroke="none" transform="matrix(1,0,0,1,0,0)"
font-family="Bravura" font-size="40" font-weight="400" font-style="normal" 
>
<path vector-effect="none" fill-rule="evenodd" d="M446.253,233.287 L451.288,233.287 L451.288,239.193 L446.253,239.193 L446.253,233.287"/>
</g>

<g fill="#ffffff" fill-opacity="1" stroke="none" transform="matrix(1,0,0,1,0,0)"
font-family="Bravura" font-size="40" font-weight="400" font-style="normal" 
>
<rect x="483.155" y="240.727" width="4.8" height="5.90625"/>
</g>

<g fill="none" stroke="none" transform="matrix(1,0,0,1,0,0)"
font-family="Bravura" font-size="40" font-weight="400" font-style="normal" 
>
<path vector-effect="none" fill-rule="evenodd" d="M483.155,240.727 L487.955,240.727 L487.955,246.633 L483.155,246.633 L483.155,240.727"/>
</g>

<g fill="#ffffff" fill-opacity="1" stroke="none" transform="matrix(1,0,0,1,0,0)"
font-family="Bravura" font-size="40" font-weight="400" font-style="normal" 
>
<rect x="523.401" y="240.727" width="5.03437" height="5.90625"/>
</g>

<g fill="none" stroke="none" transform="matrix(1,0,0,1,0,0)"
font-family="Bravura" font-size="40" font-weight="400" font-style="normal" 
>
<path vector-effect="none" fill-rule="evenodd" d="M523.401,240.727 L528.436,240.727 L528.436,246.633 L523.401,246.633 L523.401,240.727"/>
</g>

<g fill="#ffffff" fill-opacity="1" stroke="#000000" stroke-opacity="1" stroke-width="1" stroke-linecap="square" stroke-linejoin="bevel" transform="matrix(0.5,0,0,0.5,63.6009,239.131)"
font-family="Lato" font-size="16" font-weight="700" font-style="normal" 
>
<text fill="#000000" fill-opacity="1" stroke="none" xml:space="preserve" x="0" y="0" font-family="Lato" font-size="16" font-weight="700" font-style="normal" 
 >3</text>
</g>

<g fill="#ffffff" fill-opacity="1" stroke="#000000" stroke-opacity="1" stroke-width="1" stroke-linecap="square" stroke-linejoin="bevel" transform="matrix(0.5,0,0,0.5,92.1229,239.131)"
font-family="Lato" font-size="16" font-weight="700" font-style="normal" 
>
<text fill="#000000" fill-opacity="1" stroke="none" xml:space="preserve" x="0" y="0" font-family="Lato" font-size="16" font-weight="700" font-style="normal" 
 >0</text>
</g>

<g fill="#ffffff" fill-opacity="1" stroke="#000000" stroke-opacity="1" stroke-width="1" stroke-linecap="square" stroke-linejoin="bevel" transform="matrix(0.5,0,0,0.5,120.52,239.131)"
font-family="Lato" font-size="16" font-weight="700" font-style="normal" 
>
<text fill="#000000" fill-opacity="1" stroke="none" xml:space="preserve" x="0" y="0" font-family="Lato" font-size="16" font-weight="700" font-style="normal" 
 >3</text>
</g>

<g fill="#ffffff" fill-opacity="1" stroke="#000000" stroke-opacity="1" stroke-width="1" stroke-linecap="square" stroke-linejoin="bevel" transform="matrix(0.5,0,0,0.5,149.042,231.691)"
font-family="Lato" font-size="16" font-weight="700" font-style="normal" 
>
<text fill="#000000" fill-opacity="1" stroke="none" xml:space="preserve" x="0" y="0" font-family="Lato" font-size="16" font-weight="700" font-style="normal" 
 >0</text>
</g>

<g fill="#ffffff" fill-opacity="1" stroke="#000000" stroke-opacity="1" stroke-width="1" stroke-linecap="square" stroke-linejoin="bevel" transform="matrix(0.5,0,0,0.5,185.881,231.691)"
font-family="Lato" font-size="16" font-weight="700" font-style="normal" 
>
<text fill="#000000" fill-opacity="1" stroke="none" xml:space="preserve" x="0" y="0" font-family="Lato" font-size="16" font-weight="700" font-style="normal" 
 >3</text>
</g>

<g fill="#ffffff" fill-opacity="1" stroke="#000000" stroke-opacity="1" stroke-width="1" stroke-linecap="square" stroke-linejoin="bevel" transform="matrix(0.5,0,0,0.5,214.403,231.691)"
font-family="Lato" font-size="16" font-weight="700" font-style="normal" 
>
<text fill="#000000" fill-opacity="1" stroke="none" xml:space="preserve" x="0" y="0" font-family="Lato" font-size="16" font-weight="700" font-style="normal" 
 >0</text>
</g>

<g fill="#ffffff" fill-opacity="1" stroke="#000000" stroke-opacity="1" stroke-width="1" stroke-linecap="square" stroke-linejoin="bevel" transform="matrix(0.5,0,0,0.5,272.082,231.691)"
font-family="Lato" font-size="16" font-weight="700" font-style="normal" 
>
<text fill="#000000" fill-opacity="1" stroke="none" xml:space="preserve" x="0" y="0" font-family="Lato" font-size="16" font-weight="700" font-style="normal" 
 >3</text>
</g>

<g fill="#ffffff" fill-opacity="1" stroke="#000000" stroke-opacity="1" stroke-width="1" stroke-linecap="square" stroke-linejoin="bevel" transform="matrix(0.5,0,0,0.5,312.243,231.659)"
font-family="Lato" font-size="16" font-weight="700" font-style="normal" 
>
<text fill="#000000" fill-opacity="1" stroke="none" xml:space="preserve" x="0" y="0" font-family="Lato" font-size="16" font-weight="700" font-style="normal" 
 >5</text>
</g>

<g fill="#ffffff" fill-opacity="1" stroke="#000000" stroke-opacity="1" stroke-width="1" stroke-linecap="square" stroke-linejoin="bevel" transform="matrix(0.5,0,0,0.5,361.017,231.691)"
font-family="Lato" font-size="16" font-weight="700" font-style="normal" 
>
<text fill="#000000" fill-opacity="1" stroke="none" xml:space="preserve" x="0" y="0" font-family="Lato" font-size="16" font-weight="700" font-style="normal" 
 >3</text>
</g>

<g fill="#ffffff" fill-opacity="1" stroke="#000000" stroke-opacity="1" stroke-width="1" stroke-linecap="square" stroke-linejoin="bevel" transform="matrix(0.5,0,0,0.5,389.539,231.691)"
font-family="Lato" font-size="16" font-weight="700" font-style="normal" 
>
<text fill="#000000" fill-opacity="1" stroke="none" xml:space="preserve" x="0" y="0" font-family="Lato" font-size="16" font-weight="700" font-style="normal" 
 >0</text>
</g>

<g fill="#ffffff" fill-opacity="1" stroke="#000000" stroke-opacity="1" stroke-width="1" stroke-linecap="square" stroke-linejoin="bevel" transform="matrix(0.5,0,0,0.5,417.936,239.131)"
font-family="Lato" font-size="16" font-weight="700" font-style="normal" 
>
<text fill="#000000" fill-opacity="1" stroke="none" xml:space="preserve" x="0" y="0" font-family="Lato" font-size="16" font-weight="700" font-style="normal" 
 >3</text>
</g>

<g fill="#ffffff" fill-opacity="1" stroke="#000000" stroke-opacity="1" stroke-width="1" stroke-linecap="square" stroke-linejoin="bevel" transform="matrix(0.5,0,0,0.5,446.458,239.131)"
font-family="Lato" font-size="16" font-weight="700" font-style="normal" 
>
<text fill="#000000" fill-opacity="1" stroke="none" xml:space="preserve" x="0" y="0" font-family="Lato" font-size="16" font-weight="700" font-style="normal" 
 >0</text>
</g>

<g fill="#ffffff" fill-opacity="1" stroke="#000000" stroke-opacity="1" stroke-width="1" stroke-linecap="square" stroke-linejoin="bevel" transform="matrix(0.5,0,0,0.5,483.297,246.571)"
font-family="Lato" font-size="16" font-weight="700" font-style="normal" 
>
<text fill="#000000" fill-opacity="1" stroke="none" xml:space="preserve" x="0" y="0" font-family="Lato" font-size="16" font-weight="700" font-style="normal" 
 >3</text>
</g>

<g fill="#ffffff" fill-opacity="1" stroke="#000000" stroke-opacity="1" stroke-width="1" stroke-linecap="square" stroke-linejoin="bevel" transform="matrix(0.5,0,0,0.5,523.606,246.571)"
font-family="Lato" font-size="16" font-weight="700" font-style="normal" 
>
<text fill="#000000" fill-opacity="1" stroke="none" xml:space="preserve" x="0" y="0" font-family="Lato" font-size="16" font-weight="700" font-style="normal" 
 >0</text>
</g>

<g fill="#ffffff" fill-opacity="1" stroke="#000000" stroke-opacity="1" stroke-width="2" stroke-linecap="butt" stroke-linejoin="miter" stroke-miterlimit="2" transform="matrix(1,0,0,1,0,0)"
font-family="Lato" font-size="16" font-weight="700" font-style="normal" 
>
</g>

<g fill="#ffffff" fill-opacity="1" stroke="#000000" stroke-opacity="1" stroke-width="2" stroke-linecap="butt" stroke-linejoin="miter" stroke-miterlimit="2" transform="matrix(0.5,0,0,0.5,42,47.5)"
font-family="Lato" font-size="16" font-weight="700" font-style="normal" 
>
</g>

<g fill="#ffffff" fill-opacity="1" stroke="#000000" stroke-opacity="1" stroke-width="2" stroke-linecap="butt" stroke-linejoin="miter" stroke-miterlimit="2" transform="matrix(0.5,0,0,0.5,42,47.5)"
font-family="Lato" font-size="16" font-weight="700" font-style="normal" 
>
</g>

<g fill="#ffffff" fill-opacity="1" stroke="#000000" stroke-opacity="1" stroke-width="1" stroke-linecap="square" stroke-linejoin="bevel" transform="matrix(0.5,0,0,0.5,42,47.5)"
font-family="Lato" font-size="16" font-weight="700" font-style="normal" 
>
<text fill="#000000" fill-opacity="1" stroke="none" xml:space="preserve" x="255.125" y="39.2031" font-family="Academico" font-size="40" font-weight="400" font-style="normal" 
 >Texas Rangers (German War)</text>
</g>

<g fill="#ffffff" fill-opacity="1" stroke="#000000" stroke-opacity="1" stroke-width="2" stroke-linecap="butt" stroke-linejoin="miter" stroke-miterlimit="2" transform="matrix(0.5,0,0,0.5,42,47.5)"
font-family="Lato" font-size="16" font-weight="700" font-style="normal" 
>
</g>

<g fill="#ffffff" fill-opacity="1" stroke="#000000" stroke-opacity="1" stroke-width="2" stroke-linecap="butt" stroke-linejoin="miter" stroke-miterlimit="2" transform="matrix(1,0,0,1,0,0)"
font-family="Lato" font-size="16" font-weight="700" font-style="normal" 
>
</g>

<g fill="#ffffff" fill-opacity="1" stroke="#000000" stroke-opacity="1" stroke-width="2" stroke-linecap="butt" stroke-linejoin="miter" stroke-miterlimit="2" transform="matrix(0.5,0,0,0.5,42,740)"
font-family="Lato" font-size="16" font-weight="700" font-style="normal" 
>
</g>

<g fill="#ffffff" fill-opacity="1" stroke="#000000" stroke-opacity="1" stroke-width="2" stroke-linecap="butt" stroke-linejoin="miter" stroke-miterlimit="2" transform="matrix(0.5,0,0,0.5,42,740)"
font-family="Lato" font-size="16" font-weight="700" font-style="normal" 
>
</g>

<g fill="#ffffff" fill-opacity="1" stroke="#000000" stroke-opacity="1" stroke-width="1" stroke-linecap="square" stroke-linejoin="bevel" transform="matrix(0.5,0,0,0.5,42,740)"
font-family="Lato" font-size="16" font-weight="700" font-style="normal" 
>
<text fill="#000000" fill-opacity="1" stroke="none" xml:space="preserve" x="452.219" y="15.6875" font-family="Academico" font-size="16" font-weight="400" font-style="normal" 
 >https://axe.pics/banjo</text>
</g>

<g fill="#ffffff" fill-opacity="1" stroke="#000000" stroke-opacity="1" stroke-width="2" stroke-linecap="butt" stroke-linejoin="miter" stroke-miterlimit="2" transform="matrix(0.5,0,0,0.5,42,740)"
font-family="Lato" font-size="16" font-weight="700" font-style="normal" 
>
</g>

<g fill="#ffffff" fill-opacity="1" stroke="#000000" stroke-opacity="1" stroke-width="2" stroke-linecap="butt" stroke-linejoin="miter" stroke-miterlimit="2" transform="matrix(1,0,0,1,0,0)"
font-family="Lato" font-size="16" font-weight="700" font-style="normal" 
>
</g>

<g fill="#ffffff" fill-opacity="1" stroke="#000000" stroke-opacity="1" stroke-width="2" stroke-linecap="butt" stroke-linejoin="miter" stroke-miterlimit="2" transform="matrix(0.5,0,0,0.5,42,83.75)"
font-family="Lato" font-size="16" font-weight="700" font-style="normal" 
>
</g>

<g fill="#ffffff" fill-opacity="1" stroke="#000000" stroke-opacity="1" stroke-width="2" stroke-linecap="butt" stroke-linejoin="miter" stroke-miterlimit="2" transform="matrix(0.5,0,0,0.5,42,83.75)"
font-family="Lato" font-size="16" font-weight="700" font-style="normal" 
>
</g>

<g fill="#ffffff" fill-opacity="1" stroke="#000000" stroke-opacity="1" stroke-width="1" stroke-linecap="square" stroke-linejoin="bevel" transform="matrix(0.5,0,0,0.5,42,83.75)"
font-family="Lato" font-size="16" font-weight="700" font-style="normal" 
>
<text fill="#000000" fill-opacity="1" stroke="none" xml:space="preserve" x="0" y="19.5938" font-family="Academico" font-size="20" font-weight="400" font-style="normal" 
 >Double C (gCGCD)</text>
</g>

<g fill="#ffffff" fill-opacity="1" stroke="#000000" stroke-opacity="1" stroke-width="2" stroke-linecap="butt" stroke-linejoin="miter" stroke-miterlimit="2" transform="matrix(0.5,0,0,0.5,42,83.75)"
font-family="Lato" font-size="16" font-weight="700" font-style="normal" 
>
</g>

<g fill="#ffffff" fill-opacity="1" stroke="#000000" stroke-opacity="1" stroke-width="2" stroke-linecap="butt" stroke-linejoin="miter" stroke-miterlimit="2" transform="matrix(1,0,0,1,0,0)"
font-family="Lato" font-size="16" font-weight="700" font-style="normal" 
>
</g>

<g fill="#ffffff" fill-opacity="1" stroke="#000000" stroke-opacity="1" stroke-width="2" stroke-linecap="butt" stroke-linejoin="miter" stroke-miterlimit="2" transform="matrix(0.5,0,0,0.5,315,83.75)"
font-family="Lato" font-size="16" font-weight="700" font-style="normal" 
>
</g>

<g fill="#ffffff" fill-opacity="1" stroke="#000000" stroke-opacity="1" stroke-width="2" stroke-linecap="butt" stroke-linejoin="miter" stroke-miterlimit="2" transform="matrix(0.5,0,0,0.5,315,83.75)"
font-family="Lato" font-size="16" font-weight="700" font-style="normal" 
>
</g>

<g fill="#ffffff" fill-opacity="1" stroke="#000000" stroke-opacity="1" stroke-width="1" stroke-linecap="square" stroke-linejoin="bevel" transform="matrix(0.5,0,0,0.5,315,83.75)"
font-family="Lato" font-size="16" font-weight="700" font-style="normal" 
>
<text fill="#000000" fill-opacity="1" stroke="none" xml:space="preserve" x="407.453" y="19.5938" font-family="Academico" font-size="20" font-weight="400" font-style="normal" 
 >Axe Barbie</text>
</g>

<g fill="#ffffff" fill-opacity="1" stroke="#000000" stroke-opacity="1" stroke-width="2" stroke-linecap="butt" stroke-linejoin="miter" stroke-miterlimit="2" transform="matrix(0.5,0,0,0.5,315,83.75)"
font-family="Lato" font-size="16" font-weight="700" font-style="normal" 
>
</g>

<g fill="#ffffff" fill-opacity="1" stroke="#000000" stroke-opacity="1" stroke-width="2" stroke-linecap="butt" stroke-linejoin="miter" stroke-miterlimit="2" transform="matrix(1,0,0,1,0,0)"
font-family="Lato" font-size="16" font-weight="700" font-style="normal" 
>
</g>
</g>
</svg>
