<?xml version="1.0" encoding="UTF-8" standalone="no"?>
<!DOCTYPE svg PUBLIC "-//W3C//DTD SVG 1.1//EN" "http://www.w3.org/Graphics/SVG/1.1/DTD/svg11.dtd">
<svg xmlns="http://www.w3.org/2000/svg" version="1.1" viewBox="0.00 0.00 741.00 677.00">
<path d="
  M 421.69 82.91
  L 404.01 80.30
  A 0.50 0.50 0.0 0 0 403.46 80.65
  L 401.13 88.22
  A 0.50 0.50 0.0 0 1 400.57 88.57
  L 387.74 86.62
  A 0.50 0.50 0.0 0 1 387.34 85.97
  L 415.19 2.36
  A 0.50 0.50 0.0 0 1 415.74 2.02
  L 433.95 4.75
  A 0.50 0.50 0.0 0 1 434.38 5.23
  L 436.18 93.42
  A 0.50 0.50 0.0 0 1 435.60 93.92
  L 422.72 91.96
  A 0.50 0.50 0.0 0 1 422.29 91.48
  L 422.12 83.39
  A 0.50 0.50 0.0 0 0 421.69 82.91
  Z
  M 408.31 66.41
  A 0.31 0.31 0.0 0 0 408.56 66.82
  L 421.51 68.76
  A 0.31 0.31 0.0 0 0 421.87 68.44
  L 420.86 30.91
  A 0.31 0.31 0.0 0 0 420.25 30.81
  L 408.31 66.41
  Z"
/>
<path d="
  M 325.38 44.52
  C 326.48 45.23 327.77 45.97 328.66 46.93
  C 334.77 53.47 337.94 63.29 336.38 72.07
  Q 333.49 88.42 316.18 92.19
  Q 306.26 94.35 293.81 96.64
  Q 292.73 96.84 292.52 95.76
  L 276.02 11.04
  A 0.35 0.34 79.8 0 1 276.29 10.64
  Q 287.79 8.46 299.20 6.27
  C 312.57 3.69 324.05 11.08 327.26 24.30
  Q 329.85 34.93 325.10 43.38
  Q 324.70 44.08 325.38 44.52
  Z
  M 292.36 22.08
  L 296.24 42.25
  A 0.46 0.46 0.0 0 0 296.78 42.61
  L 307.54 40.54
  A 8.68 8.37 -10.9 0 0 314.48 30.68
  L 313.59 26.04
  A 8.68 8.37 -10.9 0 0 303.49 19.46
  L 292.72 21.54
  A 0.46 0.46 0.0 0 0 292.36 22.08
  Z
  M 299.15 56.91
  L 303.62 80.08
  A 0.59 0.59 0.0 0 0 304.31 80.55
  L 315.02 78.48
  A 10.10 9.93 -10.9 0 0 323.06 66.82
  L 322.13 61.99
  A 10.10 9.93 -10.9 0 0 310.33 54.15
  L 299.62 56.21
  A 0.59 0.59 0.0 0 0 299.15 56.91
  Z"
/>
<path d="
  M 514.32 82.96
  Q 513.68 82.64 513.34 83.27
  L 496.02 115.19
  Q 495.44 116.26 494.37 115.68
  L 483.60 109.91
  A 0.47 0.47 0.0 0 1 483.41 109.28
  L 524.74 32.99
  A 0.59 0.58 -61.9 0 1 525.53 32.74
  Q 537.32 38.97 547.21 44.56
  C 567.43 55.99 561.81 81.92 542.59 90.04
  A 0.65 0.64 -19.1 0 0 542.22 90.79
  C 544.32 99.10 541.43 106.33 537.29 113.70
  Q 532.01 123.07 527.20 132.44
  A 0.87 0.86 -62.0 0 1 526.02 132.81
  L 514.91 126.86
  Q 514.40 126.59 514.68 126.08
  Q 520.92 114.90 528.10 101.40
  Q 532.53 93.07 524.53 88.46
  Q 519.59 85.61 514.32 82.96
  Z
  M 530.45 51.61
  L 520.52 69.98
  A 0.45 0.45 0.0 0 0 520.70 70.59
  L 531.30 76.32
  A 9.14 8.84 28.4 0 0 543.54 72.89
  L 545.49 69.28
  A 9.14 8.84 28.4 0 0 541.66 57.16
  L 531.06 51.43
  A 0.45 0.45 0.0 0 0 530.45 51.61
  Z"
/>
<path d="
  M 120.12 115.94
  L 134.51 131.10
  A 0.50 0.50 0.0 0 0 135.21 131.12
  L 152.68 114.55
  A 0.50 0.50 0.0 0 1 153.38 114.57
  L 162.27 123.99
  A 0.50 0.50 0.0 0 1 162.25 124.69
  L 144.71 141.21
  A 0.50 0.50 0.0 0 0 144.69 141.91
  L 160.75 158.89
  A 0.50 0.50 0.0 0 0 161.45 158.91
  L 180.79 140.64
  A 0.50 0.50 0.0 0 1 181.49 140.66
  L 190.37 150.07
  A 0.50 0.50 0.0 0 1 190.35 150.77
  L 160.84 178.56
  A 0.50 0.50 0.0 0 1 160.14 178.54
  L 100.48 115.38
  A 0.50 0.50 0.0 0 1 100.50 114.68
  L 129.90 86.95
  A 0.50 0.50 0.0 0 1 130.60 86.96
  L 139.60 96.24
  A 0.50 0.50 0.0 0 1 139.58 96.95
  L 120.14 115.24
  A 0.50 0.50 0.0 0 0 120.12 115.94
  Z"
/>
<path d="
  M 628.74 166.90
  C 627.72 180.15 615.26 191.97 601.83 192.36
  C 592.29 192.64 585.60 186.90 579.64 180.07
  Q 573.46 173.01 567.24 166.03
  A 0.71 0.71 0.0 0 1 567.30 165.02
  L 632.16 108.18
  A 0.94 0.94 0.0 0 1 633.48 108.26
  Q 641.23 117.03 647.91 124.75
  C 658.33 136.79 656.72 151.22 644.21 160.98
  Q 637.26 166.41 629.39 166.30
  Q 628.78 166.30 628.74 166.90
  Z
  M 630.96 127.67
  L 616.10 140.77
  A 0.83 0.83 0.0 0 0 616.02 141.94
  L 623.00 149.86
  A 8.70 8.47 48.6 0 0 635.11 150.78
  L 638.51 147.78
  A 8.70 8.47 48.6 0 0 639.11 135.65
  L 632.14 127.74
  A 0.83 0.83 0.0 0 0 630.96 127.67
  Z
  M 604.69 150.76
  L 586.77 166.45
  A 0.50 0.50 0.0 0 0 586.72 167.15
  L 593.90 175.35
  A 10.19 10.06 48.8 0 0 608.18 176.39
  L 611.72 173.29
  A 10.19 10.06 48.8 0 0 612.57 159.00
  L 605.40 150.80
  A 0.50 0.50 0.0 0 0 604.69 150.76
  Z"
/>
<path d="
  M 233.42 286.54
  Q 218.71 329.04 229.83 373.88
  A 2.14 2.13 54.4 0 1 229.56 375.54
  L 223.00 385.95
  A 0.42 0.42 0.0 0 1 222.25 385.85
  C 211.86 352.98 211.43 317.73 222.46 285.26
  C 239.13 236.14 276.99 198.61 326.41 182.54
  Q 356.45 172.78 388.93 175.57
  Q 435.98 179.62 474.19 208.92
  A 0.57 0.57 0.0 0 1 474.11 209.88
  Q 469.94 212.10 467.70 216.47
  A 0.62 0.62 0.0 0 1 466.77 216.68
  C 432.95 190.76 388.88 180.15 347.30 188.32
  Q 302.77 197.08 270.43 228.42
  C 253.97 244.37 241.02 264.58 233.42 286.54
  Z"
/>
<path d="
  M 91.01 223.57
  L 114.98 245.59
  A 1.18 1.17 35.6 0 1 115.22 247.01
  Q 112.06 252.92 109.16 258.75
  Q 108.94 259.20 107.99 258.86
  A 0.52 0.46 75.1 0 1 107.78 258.72
  L 76.07 226.66
  A 4.78 4.78 0.0 0 0 73.42 225.29
  L 31.34 218.69
  A 0.41 0.41 0.0 0 1 31.05 218.09
  L 37.54 205.99
  A 1.28 1.27 20.0 0 1 38.93 205.35
  L 68.01 211.54
  Q 69.43 211.85 68.38 210.84
  L 46.50 190.09
  Q 46.06 189.68 46.34 189.14
  L 52.83 176.88
  A 0.51 0.51 0.0 0 1 53.66 176.77
  L 82.77 207.62
  A 4.50 4.45 73.2 0 0 85.25 208.97
  L 129.96 217.09
  Q 131.02 217.28 130.51 218.23
  L 124.33 229.72
  A 1.51 1.50 20.4 0 1 122.66 230.48
  L 91.24 223.15
  Q 90.33 222.94 91.01 223.57
  Z"
/>
<path d="
  M 384.05 222.64
  L 386.23 237.46
  A 0.31 0.31 0.0 0 1 385.69 237.72
  L 375.44 226.77
  A 0.31 0.31 0.0 0 0 374.98 226.77
  L 364.69 237.68
  A 0.31 0.31 0.0 0 1 364.16 237.42
  L 366.32 222.64
  A 0.31 0.31 0.0 0 0 366.04 222.28
  L 351.07 221.04
  A 0.31 0.31 0.0 0 1 350.94 220.46
  L 363.94 212.88
  A 0.31 0.31 0.0 0 0 364.04 212.44
  L 355.60 199.95
  A 0.31 0.31 0.0 0 1 355.97 199.49
  L 369.98 204.94
  A 0.31 0.31 0.0 0 0 370.39 204.75
  L 374.91 190.62
  A 0.31 0.31 0.0 0 1 375.50 190.62
  L 380.02 204.75
  A 0.31 0.31 0.0 0 0 380.43 204.94
  L 394.33 199.55
  A 0.31 0.31 0.0 0 1 394.70 200.01
  L 386.37 212.42
  A 0.31 0.31 0.0 0 0 386.47 212.86
  L 399.37 220.46
  A 0.31 0.31 0.0 0 1 399.24 221.04
  L 384.33 222.28
  A 0.31 0.31 0.0 0 0 384.05 222.64
  Z"
/>
<rect x="-43.96" y="-6.96" transform="translate(666.30,232.29) rotate(-24.8)" width="87.92" height="13.92" rx="0.70"/>
<path d="
  M 483.97 237.23
  Q 477.16 231.68 475.34 224.98
  C 474.51 221.93 475.69 218.04 479.11 217.09
  C 486.50 215.04 497.44 219.58 504.44 223.49
  Q 518.72 231.47 529.20 243.36
  A 3.40 3.40 0.0 0 0 531.66 244.51
  Q 543.05 244.77 552.78 248.20
  Q 567.57 253.41 573.60 268.32
  Q 577.19 277.20 579.04 282.41
  C 581.98 290.66 586.95 297.88 595.03 301.66
  A 0.90 0.89 32.9 0 0 596.08 301.44
  Q 599.94 297.09 605.14 298.53
  C 615.40 301.37 612.46 316.31 601.26 315.22
  Q 600.28 315.13 599.92 316.03
  C 596.15 325.38 585.09 327.41 576.05 327.55
  Q 570.46 327.64 565.49 325.46
  Q 555.61 321.12 550.57 314.95
  A 0.87 0.85 58.2 0 0 549.56 314.70
  C 536.46 320.44 519.53 317.17 512.47 303.85
  C 508.80 296.90 511.02 287.49 515.32 281.02
  Q 516.12 279.81 515.97 281.26
  Q 515.31 287.70 516.68 295.53
  Q 517.20 298.51 519.23 300.85
  C 526.42 309.11 537.57 309.10 547.26 304.98
  A 0.91 0.91 0.0 0 0 547.74 303.78
  Q 546.33 300.44 545.14 297.12
  Q 545.08 296.94 545.26 296.86
  L 545.26 296.86
  Q 545.41 296.79 545.49 296.93
  Q 554.47 313.53 572.54 317.29
  Q 573.07 317.41 573.62 317.31
  Q 574.35 317.18 573.64 316.94
  C 566.46 314.56 560.25 307.75 556.31 301.23
  Q 556.20 301.04 556.28 300.83
  Q 556.30 300.78 556.35 300.75
  Q 556.51 300.65 556.65 300.79
  C 566.90 310.70 580.64 315.41 594.80 312.21
  A 0.22 0.22 0.0 0 0 594.84 311.79
  Q 582.21 305.94 576.28 292.92
  C 571.41 282.23 566.76 270.87 557.76 263.27
  C 552.18 258.55 543.81 255.56 536.41 255.45
  Q 521.31 255.23 509.80 265.64
  Q 509.10 266.27 508.44 265.60
  Q 494.34 251.27 477.08 243.89
  Q 474.47 242.77 471.82 242.03
  Q 471.23 241.86 471.43 242.44
  C 475.82 255.16 486.44 274.40 502.34 273.10
  Q 505.14 272.88 502.71 274.28
  C 497.25 277.44 489.25 275.71 484.49 272.35
  C 477.73 267.57 471.90 260.44 466.67 253.94
  Q 462.71 249.03 460.33 243.56
  C 458.36 239.03 458.44 231.43 465.37 231.86
  Q 473.83 232.38 483.77 237.71
  Q 483.83 237.74 483.86 237.69
  L 484.01 237.46
  Q 484.09 237.33 483.97 237.23
  Z"
/>
<path d="
  M 433.14 400.70
  Q 427.48 402.73 421.33 403.09
  Q 395.09 404.61 368.67 400.41
  Q 368.16 400.33 367.94 400.80
  Q 365.45 406.24 361.17 411.17
  Q 354.67 418.66 347.12 425.70
  Q 324.57 446.73 300.74 465.51
  A 0.72 0.72 0.0 0 0 300.53 466.38
  Q 313.69 494.03 321.82 527.21
  Q 322.84 531.39 323.08 535.82
  C 323.42 542.24 319.21 549.21 315.78 554.32
  Q 310.03 562.89 302.85 571.18
  Q 302.80 571.24 302.80 571.31
  Q 302.84 572.43 305.42 578.72
  A 0.10 0.09 54.5 0 0 305.58 578.75
  C 314.67 567.77 323.70 556.41 329.98 544.00
  C 332.01 539.98 331.61 534.08 330.95 529.33
  Q 329.71 520.40 327.73 511.09
  Q 322.40 486.04 315.96 462.12
  A 1.75 1.75 0.0 0 1 316.62 460.24
  Q 328.18 451.91 338.03 442.80
  Q 359.14 423.25 376.74 404.41
  Q 378.03 403.04 379.78 403.20
  Q 384.80 403.68 389.47 404.36
  A 0.71 0.71 0.0 0 1 389.99 405.40
  Q 388.46 408.25 386.56 410.76
  Q 380.16 419.27 371.83 427.37
  C 357.44 441.36 341.96 453.95 327.17 466.73
  C 326.30 467.48 325.65 468.59 325.95 469.79
  Q 331.67 492.94 335.83 516.15
  Q 337.56 525.85 338.71 536.48
  C 339.35 542.49 336.69 548.27 333.89 553.43
  Q 324.33 571.05 311.63 587.44
  C 309.37 590.36 304.78 596.50 301.06 597.00
  C 296.43 597.62 294.91 588.32 294.24 585.34
  A 0.36 0.36 0.0 0 0 293.60 585.21
  Q 290.13 589.99 284.66 589.85
  A 1.90 1.90 0.0 0 1 282.83 587.67
  C 283.49 583.28 284.20 579.13 284.26 574.72
  Q 284.48 558.10 284.21 541.09
  C 284.12 535.53 287.05 532.67 292.10 531.02
  A 0.72 0.72 0.0 0 0 292.51 529.99
  Q 281.02 508.57 270.11 486.80
  Q 263.41 473.42 262.27 468.97
  Q 259.06 456.47 265.94 443.39
  C 271.59 432.65 279.23 423.86 287.20 414.90
  C 296.55 404.38 304.05 389.99 306.39 375.60
  Q 306.63 374.12 305.49 375.09
  C 294.32 384.60 287.32 396.92 280.91 410.23
  Q 277.00 418.35 269.84 427.37
  Q 256.71 443.90 239.99 459.74
  Q 231.44 467.85 224.80 472.15
  Q 201.29 487.37 173.47 484.68
  C 167.70 484.12 161.34 482.35 155.98 479.77
  Q 135.62 469.97 130.85 446.64
  C 127.24 428.98 130.74 410.11 146.17 398.94
  C 154.45 392.94 164.79 389.70 175.06 388.59
  Q 176.96 388.39 175.44 389.55
  Q 174.40 390.36 173.30 391.08
  C 164.82 396.65 158.34 406.46 160.99 416.76
  Q 162.76 423.63 167.98 427.85
  Q 179.33 437.01 193.38 431.14
  C 201.42 427.78 208.80 420.08 214.26 413.32
  Q 221.72 404.11 228.08 394.03
  Q 240.03 375.09 252.64 354.49
  Q 261.79 339.55 273.49 324.73
  Q 274.19 323.84 274.53 322.75
  Q 274.85 321.77 273.82 321.68
  L 259.32 320.45
  Q 258.66 320.40 259.23 320.06
  L 272.27 312.34
  Q 272.53 312.19 272.37 311.94
  L 263.96 299.33
  Q 263.58 298.77 264.22 299.01
  L 277.96 304.24
  Q 278.62 304.49 278.84 303.81
  L 283.18 290.28
  Q 283.53 289.18 283.89 290.28
  L 288.28 303.98
  Q 288.40 304.37 288.79 304.24
  Q 298.35 301.23 307.26 296.39
  C 317.46 290.85 328.22 286.42 339.03 282.98
  C 352.21 278.79 367.57 279.98 381.03 283.03
  Q 396.50 286.53 424.55 295.24
  Q 433.90 298.14 446.24 299.77
  A 1.27 1.26 -65.3 0 0 447.36 299.35
  Q 447.88 298.76 447.83 297.98
  Q 447.79 297.40 447.22 297.33
  Q 439.85 296.39 433.17 296.15
  Q 431.48 296.08 432.93 295.23
  L 445.25 287.96
  A 0.46 0.45 58.3 0 0 445.40 287.32
  L 437.17 274.90
  Q 436.76 274.28 437.45 274.54
  L 451.03 279.73
  A 0.75 0.75 0.0 0 0 452.02 279.26
  L 456.37 265.55
  Q 456.66 264.66 456.94 265.55
  L 461.38 279.37
  Q 461.58 280.01 462.21 279.77
  L 476.04 274.51
  Q 476.63 274.28 476.28 274.81
  L 468.02 287.20
  A 0.58 0.58 0.0 0 0 468.21 288.02
  L 474.49 291.73
  A 1.30 1.29 42.5 0 0 475.89 291.67
  Q 482.54 286.94 486.53 279.81
  A 2.06 2.05 -74.0 0 1 488.40 278.77
  Q 494.86 279.05 500.64 277.20
  Q 502.22 276.70 501.44 278.16
  Q 497.81 285.01 492.28 290.48
  Q 466.00 316.56 429.58 307.98
  Q 424.77 306.85 412.07 302.72
  Q 390.21 295.60 367.19 293.70
  Q 358.26 292.96 348.89 294.73
  Q 330.15 298.26 315.03 306.33
  C 291.96 318.66 273.35 337.97 259.16 360.30
  Q 259.14 360.33 249.49 377.78
  Q 240.35 394.30 227.14 411.51
  C 218.63 422.58 208.88 433.25 197.31 441.00
  C 189.83 446.00 181.03 448.91 172.08 448.43
  C 158.17 447.68 148.90 437.71 143.74 424.87
  Q 143.12 423.31 142.75 424.94
  C 142.33 426.81 141.72 428.65 141.57 430.54
  C 139.88 452.24 153.64 475.56 177.95 474.88
  Q 191.42 474.50 208.00 467.61
  C 227.38 459.55 243.86 445.02 256.60 427.70
  Q 268.05 412.15 275.65 396.56
  Q 281.42 384.73 285.33 377.79
  C 290.91 367.86 300.28 358.43 310.71 353.06
  Q 326.55 344.90 345.42 347.75
  Q 347.50 348.06 345.58 348.92
  C 340.47 351.23 335.77 356.18 332.16 361.04
  Q 321.61 375.24 315.00 390.80
  C 313.11 395.23 311.79 399.70 309.17 403.95
  Q 305.17 410.40 301.14 415.88
  Q 290.58 430.25 279.47 445.68
  Q 274.85 452.09 271.31 459.31
  C 268.84 464.34 271.34 469.59 273.33 474.23
  Q 278.02 485.14 285.16 498.79
  Q 295.17 517.91 305.93 536.67
  A 0.92 0.92 0.0 0 1 305.50 537.98
  C 294.59 542.66 292.71 554.83 295.28 565.23
  Q 295.44 565.89 295.95 565.44
  C 305.88 556.62 315.96 544.04 316.07 531.19
  Q 316.11 527.35 314.31 522.03
  Q 306.54 499.00 300.45 482.57
  C 298.46 477.19 295.56 472.12 293.62 466.73
  C 292.69 464.14 291.38 458.23 293.86 456.13
  Q 321.58 432.65 346.54 406.61
  Q 354.58 398.22 361.96 388.88
  C 366.24 383.47 370.38 377.46 372.74 371.01
  C 377.76 357.35 377.52 341.60 370.74 328.46
  Q 369.81 326.67 371.61 327.57
  C 378.42 330.95 382.46 337.11 384.53 344.61
  Q 387.18 354.23 387.06 365.27
  C 386.99 371.14 390.61 374.68 395.75 376.76
  Q 404.03 380.11 413.44 382.39
  Q 429.19 386.21 440.76 375.36
  A 0.48 0.47 62.0 0 1 441.54 375.60
  Q 444.88 389.37 457.18 399.40
  A 0.93 0.93 0.0 0 1 457.31 400.71
  Q 455.48 402.99 453.01 405.07
  Q 446.22 410.80 437.25 416.29
  Q 436.91 416.50 436.52 416.46
  A 0.64 0.64 0.0 0 1 435.95 415.76
  L 436.73 407.54
  A 0.44 0.44 0.0 0 0 436.04 407.14
  C 429.35 411.70 423.53 418.30 426.36 426.60
  A 1.24 1.23 -16.9 0 0 427.85 427.39
  Q 430.04 426.80 431.88 425.84
  C 444.83 419.03 456.99 409.56 468.57 400.19
  Q 469.50 399.44 469.05 398.33
  Q 462.66 382.39 455.93 365.64
  C 451.49 354.59 438.85 351.75 428.36 350.62
  Q 426.72 350.44 428.21 349.74
  Q 437.09 345.56 445.24 346.31
  C 455.30 347.23 463.14 355.19 467.08 364.01
  Q 467.31 364.53 467.79 364.23
  C 488.55 351.30 503.16 330.94 511.63 308.07
  Q 512.18 306.60 512.68 308.08
  Q 514.27 312.81 518.27 314.85
  A 0.68 0.67 28.2 0 1 518.55 315.77
  Q 510.79 330.04 502.75 342.99
  Q 499.66 347.96 495.51 352.29
  Q 483.55 364.77 471.11 375.59
  Q 470.54 376.08 470.84 376.77
  Q 475.91 388.37 475.80 397.91
  C 475.73 403.20 472.23 406.67 468.33 409.79
  C 457.52 418.45 443.39 426.11 430.36 432.89
  A 0.96 0.96 0.0 0 0 430.21 434.50
  Q 432.77 436.51 435.64 436.16
  C 449.11 434.52 463.05 425.72 473.71 416.95
  Q 477.10 414.17 480.22 410.40
  Q 483.84 406.02 483.29 399.56
  Q 482.28 387.60 476.57 376.52
  Q 476.19 375.80 476.85 375.32
  L 483.18 370.68
  A 0.73 0.73 0.0 0 1 484.27 370.95
  Q 490.82 384.52 491.66 398.84
  Q 492.27 409.36 484.62 415.48
  C 472.80 424.94 459.20 432.20 445.50 438.49
  Q 439.08 441.44 433.01 443.12
  C 427.72 444.59 423.95 441.34 424.52 436.03
  Q 424.60 435.26 423.83 435.22
  L 421.29 435.08
  A 1.46 1.46 0.0 0 1 420.31 434.63
  C 408.70 422.52 424.41 408.17 433.36 401.11
  Q 434.51 400.21 433.14 400.70
  Z"
/>
<path d="
  M 549.13 273.79
  Q 545.57 271.57 545.78 268.14
  Q 545.86 266.92 546.48 267.98
  C 548.28 271.02 552.32 272.18 555.51 273.15
  C 562.71 275.33 564.14 280.09 565.19 286.93
  Q 565.50 288.90 564.52 287.16
  C 562.97 284.41 561.77 282.39 558.47 281.49
  Q 557.88 281.32 557.49 281.81
  C 555.82 283.93 554.72 285.42 551.81 285.93
  C 547.12 286.74 544.75 282.55 545.83 278.26
  Q 545.96 277.72 546.49 277.92
  Q 548.90 278.82 551.72 278.43
  Q 553.21 278.22 551.74 277.93
  C 545.33 276.64 540.79 272.82 539.75 266.16
  Q 539.69 265.83 540.02 265.73
  Q 540.32 265.64 540.43 265.94
  C 542.03 269.94 544.52 273.35 548.99 274.15
  Q 549.99 274.33 549.13 273.79
  Z"
/>
<path d="
  M 699.78 310.96
  L 703.47 334.53
  A 0.62 0.62 0.0 0 1 702.95 335.24
  L 690.31 337.27
  Q 689.78 337.36 689.69 336.82
  L 686.00 313.23
  Q 685.89 312.51 685.18 312.62
  L 662.30 316.23
  Q 661.76 316.32 661.86 316.86
  Q 664.02 329.12 665.72 340.86
  Q 665.87 341.93 666.34 342.93
  Q 666.62 343.52 665.97 343.62
  L 653.32 345.60
  Q 652.35 345.75 652.20 344.78
  L 646.03 305.13
  Q 645.97 304.72 646.37 304.66
  L 732.20 291.17
  A 0.55 0.54 -9.2 0 1 732.82 291.61
  Q 735.86 310.08 738.72 328.75
  Q 738.92 330.07 739.38 331.36
  A 0.50 0.49 75.2 0 1 739.00 332.02
  L 726.36 334.10
  A 0.92 0.92 0.0 0 1 725.30 333.33
  L 721.36 307.79
  A 0.75 0.74 81.2 0 0 720.51 307.16
  L 700.29 310.27
  Q 699.69 310.37 699.78 310.96
  Z"
/>
<path d="
  M 81.16 334.74
  L 88.42 337.12
  A 0.71 0.71 0.0 0 1 88.90 337.90
  L 87.02 350.21
  A 0.71 0.71 0.0 0 1 86.09 350.78
  L 2.93 322.61
  A 0.71 0.71 0.0 0 1 2.45 321.83
  L 5.24 303.93
  A 0.71 0.71 0.0 0 1 5.93 303.33
  L 93.73 302.17
  A 0.71 0.71 0.0 0 1 94.44 302.99
  L 92.53 315.31
  A 0.71 0.71 0.0 0 1 91.85 315.91
  L 84.02 316.16
  A 0.71 0.71 0.0 0 0 83.34 316.76
  L 80.68 333.95
  A 0.71 0.71 0.0 0 0 81.16 334.74
  Z
  M 31.12 316.99
  A 0.33 0.33 0.0 0 0 31.02 317.63
  L 66.78 329.72
  A 0.33 0.33 0.0 0 0 67.21 329.46
  L 69.30 316.79
  A 0.33 0.33 0.0 0 0 68.97 316.41
  L 31.12 316.99
  Z"
/>
<path d="
  M 455.71 462.67
  C 502.51 432.93 529.00 380.48 525.32 325.07
  A 0.47 0.46 -83.6 0 1 525.92 324.59
  Q 530.24 325.92 534.44 325.94
  Q 536.15 325.95 536.23 327.66
  Q 537.31 351.02 531.98 373.19
  C 517.31 434.11 468.76 480.99 407.42 493.59
  Q 375.04 500.25 341.54 493.25
  Q 340.10 492.95 339.81 491.52
  L 337.90 482.04
  Q 337.76 481.37 338.43 481.53
  Q 348.32 483.94 355.79 484.80
  C 361.15 485.41 366.62 486.09 372.00 486.15
  Q 417.99 486.64 455.71 462.67
  Z"
/>
<path d="
  M 366.02 467.12
  L 351.08 465.95
  A 0.32 0.32 0.0 0 1 350.94 465.35
  L 363.92 457.76
  A 0.32 0.32 0.0 0 0 364.02 457.31
  L 355.69 444.94
  A 0.32 0.32 0.0 0 1 356.07 444.47
  L 369.99 449.83
  A 0.32 0.32 0.0 0 0 370.41 449.62
  L 374.88 435.37
  A 0.32 0.32 0.0 0 1 375.49 435.37
  L 380.01 449.61
  A 0.32 0.32 0.0 0 0 380.43 449.81
  L 394.33 444.41
  A 0.32 0.32 0.0 0 1 394.71 444.89
  L 386.36 457.30
  A 0.32 0.32 0.0 0 0 386.46 457.75
  L 399.40 465.35
  A 0.32 0.32 0.0 0 1 399.27 465.94
  L 384.35 467.14
  A 0.32 0.32 0.0 0 0 384.06 467.51
  L 386.20 482.26
  A 0.32 0.32 0.0 0 1 385.65 482.53
  L 375.44 471.67
  A 0.32 0.32 0.0 0 0 374.98 471.67
  L 364.76 482.47
  A 0.32 0.32 0.0 0 1 364.21 482.20
  L 366.31 467.49
  A 0.32 0.32 0.0 0 0 366.02 467.12
  Z"
/>
<path d="
  M 146.16 580.88
  L 177.24 557.53
  Q 177.38 557.42 177.53 557.52
  Q 180.00 559.27 181.84 561.48
  A 0.06 0.05 -41.4 0 1 181.83 561.56
  Q 161.94 576.52 142.75 590.97
  A 0.46 0.45 -42.7 0 1 142.19 590.95
  L 136.56 586.05
  Q 136.24 585.77 136.45 585.41
  L 160.06 543.47
  Q 160.54 542.63 161.28 543.25
  L 164.38 545.87
  Q 165.19 546.56 164.67 547.48
  L 145.97 580.71
  Q 145.67 581.25 146.16 580.88
  Z"
/>
<path d="
  M 599.95 580.71
  C 599.55 575.51 595.31 573.70 590.47 573.67
  Q 583.54 573.63 576.97 573.28
  Q 570.22 572.92 566.26 567.48
  Q 561.13 560.45 566.34 554.38
  Q 569.43 550.77 573.34 548.91
  C 579.73 545.85 584.41 550.93 588.11 555.63
  Q 588.49 556.11 588.04 556.53
  L 584.43 559.89
  Q 583.98 560.31 583.62 559.81
  C 581.75 557.23 578.22 553.18 574.60 555.23
  C 571.68 556.88 569.24 559.87 571.03 563.39
  Q 573.04 567.36 578.15 567.26
  Q 586.31 567.10 593.32 567.78
  Q 600.68 568.50 605.04 575.38
  C 609.46 582.35 604.54 587.37 599.35 591.33
  C 592.22 596.77 586.08 591.09 581.99 585.52
  Q 581.34 584.63 582.17 583.91
  L 585.18 581.27
  Q 585.96 580.59 586.57 581.44
  Q 588.04 583.51 590.42 585.59
  Q 593.43 588.20 596.63 585.68
  C 598.23 584.42 600.13 582.96 599.95 580.71
  Z"
/>
<path d="
  M 196.06 580.06
  Q 187.13 593.45 176.06 609.07
  Q 175.60 609.73 177.80 611.47
  A 0.27 0.27 0.0 0 1 177.85 611.84
  L 175.18 615.70
  A 0.31 0.30 -54.8 0 1 174.75 615.78
  L 165.35 609.17
  A 0.31 0.31 0.0 0 1 165.27 608.75
  L 167.82 604.80
  Q 167.91 604.66 168.06 604.74
  L 170.20 605.91
  A 0.68 0.67 -58.1 0 0 171.08 605.70
  L 191.54 576.34
  A 1.14 1.13 -50.8 0 0 191.40 574.89
  L 190.43 573.94
  Q 189.82 573.35 190.31 572.66
  L 192.40 569.67
  Q 192.75 569.16 193.26 569.52
  L 201.99 575.63
  Q 202.72 576.14 202.23 576.88
  L 200.19 579.98
  A 0.71 0.71 0.0 0 1 199.16 580.14
  Q 198.37 579.52 197.43 579.25
  Q 196.74 579.04 196.06 580.06
  Z"
/>
<path d="
  M 564.35 610.53
  L 573.72 604.23
  A 0.46 0.46 0.0 0 1 574.36 604.35
  L 576.83 608.04
  A 0.46 0.46 0.0 0 1 576.71 608.68
  L 562.41 618.40
  A 0.46 0.46 0.0 0 1 561.77 618.28
  L 535.09 578.89
  A 0.46 0.46 0.0 0 1 535.20 578.25
  L 539.44 575.32
  A 0.46 0.46 0.0 0 1 540.08 575.45
  L 563.71 610.41
  A 0.46 0.46 0.0 0 0 564.35 610.53
  Z"
/>
<path d="
  M 219.24 622.24
  Q 219.00 624.29 219.97 622.47
  L 234.47 595.20
  Q 234.75 594.67 235.28 594.96
  L 239.45 597.27
  A 0.69 0.68 -62.1 0 1 239.73 598.19
  L 217.68 639.72
  A 0.82 0.81 27.8 0 1 216.57 640.06
  L 212.80 638.04
  A 1.21 1.20 -73.0 0 1 212.18 636.86
  Q 214.02 619.45 215.41 602.62
  Q 215.42 602.47 215.28 602.44
  L 215.03 602.38
  Q 214.96 602.37 214.95 602.43
  Q 214.53 604.26 213.92 605.40
  Q 206.80 618.67 200.25 631.16
  A 0.21 0.21 0.0 0 1 199.96 631.24
  L 195.01 628.56
  Q 194.80 628.45 194.91 628.25
  L 217.35 586.00
  A 0.50 0.50 0.0 0 1 218.03 585.80
  L 222.19 588.07
  A 0.77 0.77 0.0 0 1 222.59 588.81
  Q 221.22 605.48 219.24 622.24
  Z"
/>
<path d="
  M 536.8983 623.2214
  A 9.74 9.74 0.0 0 1 532.7104 636.3437
  L 528.4628 638.5361
  A 9.74 9.74 0.0 0 1 515.3404 634.3482
  L 501.4617 607.4586
  A 9.74 9.74 0.0 0 1 505.6496 594.3363
  L 509.8972 592.1439
  A 9.74 9.74 0.0 0 1 523.0196 596.3318
  L 536.8983 623.2214
  Z
  M 518.4027 600.4969
  A 5.23 5.23 0.0 0 0 511.3644 598.2235
  L 509.8689 598.9889
  A 5.23 5.23 0.0 0 0 507.5956 606.0272
  L 519.9773 630.2231
  A 5.23 5.23 0.0 0 0 527.0156 632.4965
  L 528.5111 631.7311
  A 5.23 5.23 0.0 0 0 530.7844 624.6928
  L 518.4027 600.4969
  Z"
/>
<path d="
  M 265.60 614.28
  L 250.84 653.88
  A 0.46 0.46 0.0 0 1 250.25 654.15
  L 245.44 652.37
  A 0.46 0.46 0.0 0 1 245.17 651.78
  L 259.96 612.21
  A 0.46 0.46 0.0 0 0 259.69 611.62
  L 252.36 608.89
  A 0.46 0.46 0.0 0 1 252.08 608.30
  L 253.60 604.11
  A 0.46 0.46 0.0 0 1 254.20 603.83
  L 275.36 611.70
  A 0.46 0.46 0.0 0 1 275.64 612.28
  L 274.20 616.53
  A 0.46 0.46 0.0 0 1 273.60 616.81
  L 266.19 614.01
  A 0.46 0.46 0.0 0 0 265.60 614.28
  Z"
/>
<path d="
  M 493.8582 643.4514
  A 9.73 9.73 0.0 0 1 487.8693 655.8401
  L 483.3551 657.4121
  A 9.73 9.73 0.0 0 1 470.9665 651.4232
  L 461.0018 622.8086
  A 9.73 9.73 0.0 0 1 466.9907 610.4199
  L 471.5049 608.8479
  A 9.73 9.73 0.0 0 1 483.8935 614.8368
  L 493.8582 643.4514
  Z
  M 478.6832 618.2814
  A 5.20 5.20 0.0 0 0 472.0623 615.0807
  L 470.4191 615.6530
  A 5.20 5.20 0.0 0 0 467.2185 622.2738
  L 476.1768 647.9986
  A 5.20 5.20 0.0 0 0 482.7977 651.1993
  L 484.4409 650.6270
  A 5.20 5.20 0.0 0 0 487.6415 644.0062
  L 478.6832 618.2814
  Z"
/>
<path d="
  M 283.12 651.46
  L 277.70 662.61
  A 0.44 0.44 0.0 0 1 277.21 662.85
  L 272.12 661.62
  A 0.44 0.44 0.0 0 1 271.83 661.00
  L 293.12 617.18
  A 0.44 0.44 0.0 0 1 293.63 616.95
  L 300.86 618.73
  A 0.44 0.44 0.0 0 1 301.20 619.18
  L 299.35 667.80
  A 0.44 0.44 0.0 0 1 298.81 668.21
  L 293.82 667.01
  A 0.44 0.44 0.0 0 1 293.48 666.57
  L 293.83 654.09
  A 0.44 0.44 0.0 0 0 293.50 653.65
  L 283.63 651.22
  A 0.44 0.44 0.0 0 0 283.12 651.46
  Z
  M 286.09 645.37
  Q 285.74 646.11 286.53 646.31
  L 293.56 648.05
  A 0.50 0.49 7.7 0 0 294.17 647.59
  L 294.92 627.71
  Q 294.94 627.18 294.70 627.66
  L 286.09 645.37
  Z"
/>
<path d="
  M 430.76 626.27
  L 423.08 628.01
  A 0.41 0.41 0.0 0 1 422.59 627.70
  L 421.60 623.15
  A 0.41 0.41 0.0 0 1 421.91 622.67
  L 444.24 617.99
  A 0.41 0.41 0.0 0 1 444.73 618.31
  L 445.57 622.80
  A 0.41 0.41 0.0 0 1 445.25 623.27
  L 437.50 624.90
  A 0.41 0.41 0.0 0 0 437.19 625.38
  L 445.96 666.83
  A 0.41 0.41 0.0 0 1 445.65 667.31
  L 440.51 668.38
  A 0.41 0.41 0.0 0 1 440.03 668.06
  L 431.26 626.59
  A 0.41 0.41 0.0 0 0 430.76 626.27
  Z"
/>
<path d="
  M 339.80 671.78
  Q 339.68 670.91 339.06 671.53
  C 336.11 674.47 332.85 674.31 329.08 673.49
  C 320.72 671.67 320.88 665.26 321.70 657.76
  Q 323.08 645.17 324.36 634.09
  C 324.96 628.95 327.44 624.81 333.04 624.34
  C 339.55 623.79 348.12 625.45 348.40 633.50
  Q 348.57 638.24 347.45 645.42
  Q 347.39 645.81 347.00 645.77
  L 341.78 645.22
  A 0.40 0.39 -82.5 0 1 341.43 644.76
  Q 342.38 639.26 342.21 634.96
  C 342.13 632.93 340.72 631.25 338.76 630.76
  C 333.70 629.50 330.70 631.05 330.14 636.44
  Q 328.87 648.66 327.46 661.22
  Q 326.77 667.35 333.06 667.97
  Q 337.96 668.46 339.03 664.34
  Q 340.11 660.18 340.23 654.92
  Q 340.24 654.38 339.69 654.33
  L 333.72 653.84
  Q 332.91 653.77 333.00 652.96
  L 333.46 649.03
  Q 333.56 648.13 334.46 648.23
  L 346.56 649.52
  Q 347.04 649.57 346.99 650.06
  L 344.38 673.98
  A 0.68 0.68 0.0 0 1 343.79 674.58
  Q 340.25 675.04 339.80 671.78
  Z"
/>
<path d="
  M 374.99 654.11
  L 375.35 669.61
  A 0.36 0.36 0.0 0 0 375.72 669.96
  L 390.54 669.60
  A 0.36 0.36 0.0 0 1 390.91 669.96
  L 390.93 674.63
  A 0.36 0.36 0.0 0 1 390.58 674.99
  L 369.78 675.48
  A 0.36 0.36 0.0 0 1 369.41 675.13
  L 368.36 627.33
  A 0.36 0.36 0.0 0 1 368.71 626.96
  L 388.88 626.57
  A 0.36 0.36 0.0 0 1 389.25 626.93
  L 389.28 631.59
  A 0.36 0.36 0.0 0 1 388.92 631.96
  L 374.92 632.16
  A 0.36 0.36 0.0 0 0 374.57 632.53
  L 374.82 647.90
  A 0.36 0.36 0.0 0 0 375.19 648.25
  L 385.88 647.93
  A 0.36 0.36 0.0 0 1 386.25 648.28
  L 386.42 653.15
  A 0.36 0.36 0.0 0 1 386.07 653.52
  L 375.34 653.74
  A 0.36 0.36 0.0 0 0 374.99 654.11
  Z"
/>
</svg>
